<?xml version="1.0" standalone="no"?>
<!DOCTYPE svg PUBLIC "-//W3C//DTD SVG 1.1//EN" "http://www.w3.org/Graphics/SVG/1.1/DTD/svg11.dtd" >
<svg xmlns="http://www.w3.org/2000/svg" xmlns:xlink="http://www.w3.org/1999/xlink" version="1.1">
<metadata>
Created by FontForge 20161003 at Wed Apr 19 08:03:53 2017
 By www-data
Copyright (c) 2005-2009, Joshua Darden &#38; Phil's Fonts, Inc. All rights reserved. Published by Garagefonts USA 301-879-9222 www.garagefonts.com
</metadata>
<defs>
<font id="FreightBigProSemiBold" horiz-adv-x="750" >
  <font-face 
    font-family="FreightBigProSemiBold"
    font-weight="400"
    font-stretch="normal"
    units-per-em="1000"
    panose-1="2 0 6 3 9 0 0 2 0 4"
    ascent="725"
    descent="-275"
    x-height="424"
    cap-height="625"
    bbox="-205 -288 1296 975"
    underline-thickness="20"
    underline-position="-153"
    unicode-range="U+0020-FB04"
  />
<missing-glyph horiz-adv-x="500" 
 />
    <glyph glyph-name="ff" unicode="ff" horiz-adv-x="563" 
d="M20 0l3 6l18 1q14 1 20 1.5t12 2t8 4.5t2 7v359l-81 1l22 40h58l2 18q17 106 80 159.5t143 53.5q38 0 63 -16t25 -43q0 -5 -2 -13q30 40 72.5 60.5t87.5 20.5q37 0 54.5 -14.5t17.5 -35.5q0 -20 -15 -34.5t-36 -14.5q-24 0 -44 20.5t-25 49.5l-1 5l-12 2q-33 -14 -43 -51
t-10 -116v-51h124l-20 -41h-104v-361q0 -12 51 -13l35 -1l1 -6h-242l3 6l18 1q26 2 33.5 4t7.5 11v360h-172v-362q0 -12 51 -13l30 -1l3 -6h-238zM349 454q4 56 27 100q-15 -12 -34 -12q-32 0 -52 25.5t-16 59.5l-30 9q-39 -17 -54.5 -59t-15.5 -115v-40h172z" />
    <glyph glyph-name="fi" unicode="fi" horiz-adv-x="524" 
d="M21 0l3 6l18 1q14 1 20 1.5t12 2t8 4.5t2 7v359l-79 1l21 42h57l3 39q7 94 77 148.5t154 54.5q42 0 66.5 -17.5t24.5 -45.5q0 -22 -15.5 -37.5t-37.5 -15.5q-32 0 -52.5 27t-19.5 63l-28 8q-39 -13 -56 -52.5t-17 -113.5v-58h196l70 12v-416q0 -6 8 -8t43 -5l12 -1l3 -6
h-225l3 6l18 1q26 2 32.5 4t6.5 11v360h-167v-362q0 -6 8.5 -9t37.5 -4l27 -1l3 -6h-237z" />
    <glyph glyph-name="fl" unicode="fl" horiz-adv-x="520" 
d="M374 649l74 23v-652q0 -6 7 -7.5t44 -5.5l12 -1l3 -6h-225l3 6l15 1q2 0 7 1q32 3 34 10q1 2 1 4v360h-167v-362q0 -6 8.5 -9t37.5 -4l27 -1l3 -6h-237l3 6l18 1q14 1 20 1.5t12 2t8 4.5t2 7v359l-79 1l21 42h57l3 39q7 94 75.5 148.5t151.5 54.5q39 0 61 -17zM349 424
v135h-3q-33 0 -54 25.5t-19 55.5l-21 8q-38 -13 -54 -51.5t-16 -114.5v-58h167z" />
    <glyph glyph-name="ffi" unicode="ffi" horiz-adv-x="779" 
d="M20 0l3 6l18 1q14 1 20 1.5t12 2t8 4.5t2 7v359l-81 1l22 40h58l2 18q17 106 80 159.5t143 53.5q38 0 63 -16t25 -43q0 -14 -6 -24q32 45 82 69t102 24q38 0 63 -16t25 -43q0 -21 -15 -36t-36 -15q-33 0 -53.5 26t-16.5 58l-30 8q-41 -17 -56 -58t-15 -116v-49h179l84 11
v-413q0 -6 9 -8.5t42 -4.5l14 -1l3 -6h-220l3 8l18 1h1h1h1h1q32 2 34 9q1 2 1 5v359h-171v-362q0 -12 50 -13l32 -1l2 -6h-239l3 6l18 1q26 2 33.5 4t7.5 11v360h-172v-362q0 -12 51 -13l30 -1l3 -6h-238zM349 452q4 60 33 108q-15 -18 -40 -18q-32 0 -52 26.5t-16 58.5
l-30 9q-39 -17 -54.5 -59t-15.5 -115v-40h172z" />
    <glyph glyph-name="ffl" unicode="ffl" horiz-adv-x="775" 
d="M620 654l82 19v-653q0 -6 7 -7.5t44 -5.5l13 -1l3 -6h-219l3 6l17 1q13 1 19 1.5t11.5 2t7.5 4.5t2 7v360h-171v-362q0 -12 50 -13l32 -1l2 -6h-239l3 6l18 1q26 2 33.5 4t7.5 11v360h-172v-362q0 -12 51 -13l30 -1l3 -6h-238l3 6l18 1q14 1 20 1.5t12 2t8 4.5t2 7v359
l-81 1l22 40h58l2 18q17 106 80 159.5t143 53.5q38 0 63 -16t25 -43q0 -11 -5 -23q32 45 81.5 68.5t100.5 23.5q27 0 48 -9zM610 422v134h-2q-34 0 -54.5 25.5t-15.5 56.5l-28 7q-42 -17 -56.5 -58t-14.5 -116v-49h171zM349 452q4 62 32 106q-14 -16 -39 -16q-32 0 -52 25.5
t-16 59.5l-30 9q-39 -17 -54.5 -59t-15.5 -115v-40h172z" />
    <glyph glyph-name=".notdef" horiz-adv-x="500" 
 />
    <glyph glyph-name=".null" horiz-adv-x="0" 
 />
    <glyph glyph-name="nonmarkingreturn" horiz-adv-x="333" 
 />
    <glyph glyph-name="space" unicode=" " horiz-adv-x="180" 
 />
    <glyph glyph-name="exclam" unicode="!" horiz-adv-x="260" 
d="M127 185l-54 395q-4 28 7 44t50 16h2q39 0 49.5 -16t6.5 -44l-52 -395q-1 -4 -5 -4t-4 4zM131 -14q-27 0 -45.5 18.5t-18.5 44.5q0 24 18.5 42.5t45.5 18.5t45 -18t18 -43t-18.5 -44t-44.5 -19z" />
    <glyph glyph-name="quotedbl" unicode="&#x22;" horiz-adv-x="327" 
d="M166 403l106 242h1l65 -28l-167 -214h-5zM-2 403l106 242h2l66 -28l-169 -214h-5z" />
    <glyph glyph-name="numbersign" unicode="#" horiz-adv-x="494" 
d="M72 -5l52 198h-139v8h141l58 221h-139v8h141l53 202h11l-53 -202h163l53 202h11l-53 -202h138v-8h-140l-58 -221h138v-8h-140l-52 -198h-11l52 198h-163l-52 -198h-11zM137 201h163l58 221h-163z" />
    <glyph glyph-name="dollar" unicode="$" horiz-adv-x="468" 
d="M148 -8q-72 10 -118 27l-8 156h7l62 -117q25 -27 63 -44l68 258l-12 5q-83 29 -126.5 69.5t-43.5 110.5q0 71 57.5 125.5t146.5 54.5q31 0 73 -7l29 110h10l-30 -112q40 -10 56 -15l39 14l2 -168h-5l-74 133q-10 8 -23 15l-60 -225q1 -1 2 -1q95 -33 145 -76.5t50 -120.5
t-66 -137t-165 -60q-37 0 -69 4l-41 -155h-10zM163 10q36 -12 66 -12q58 0 97.5 36.5t39.5 95.5q0 51 -35 83t-100 56zM312 611q-32 16 -70 16q-49 0 -82.5 -32.5t-33.5 -79.5q0 -49 31.5 -77.5t94.5 -52.5q4 14 10 37.5t19.5 73.5t22.5 82z" />
    <glyph glyph-name="percent" unicode="%" horiz-adv-x="529" 
d="M132 386q-56 0 -90 36.5t-34 89.5t34 90.5t90 37.5q57 0 91 -37.5t34 -90.5t-34 -89.5t-91 -36.5zM43 -14l428 654h12l-428 -654h-12zM396 -13q-56 0 -90 36.5t-34 88.5q0 54 34 91.5t90 37.5q57 0 91 -37.5t34 -91.5q0 -52 -34 -88.5t-91 -36.5zM132 396q51 0 82 33
t31 83q0 49 -31.5 83.5t-81.5 34.5t-81 -34t-31 -84t30.5 -83t81.5 -33zM396 -3q51 0 82 33t31 83q0 49 -31.5 83.5t-81.5 34.5t-81 -34t-31 -84t30.5 -83t81.5 -33z" />
    <glyph glyph-name="ampersand" unicode="&#x26;" horiz-adv-x="724" 
d="M205 -13q-89 0 -142.5 52.5t-53.5 128.5q0 74 49.5 127t134.5 79q-41 20 -67 52.5t-26 71.5q0 55 54.5 98t117.5 43q72 0 117.5 -32.5t45.5 -77.5q0 -39 -34 -68.5t-90 -42.5q48 -22 104 -82t85 -115q83 113 83 150q0 38 -88 47l-10 1l-3 6h259l-3 -6l-11 -1
q-41 -4 -69.5 -24t-71.5 -77l-80 -105q42 -91 74.5 -127t72.5 -36q46 0 84 44l7 -5q-25 -28 -42.5 -45t-50.5 -36.5t-63 -19.5q-55 0 -93 35t-70 107q-122 -142 -220 -142zM300 421q47 27 47 103q0 41 -20.5 73.5t-58.5 32.5q-34 0 -55.5 -27.5t-21.5 -67.5q0 -38 26 -64.5
t83 -49.5zM260 62q85 0 161 76q-33 78 -89.5 140t-128.5 91q-53 -32 -73.5 -71t-20.5 -88q0 -62 43.5 -105t107.5 -43z" />
    <glyph glyph-name="quotesingle" unicode="'" horiz-adv-x="163" 
d="M-2 403l106 242h2l66 -28l-169 -214h-5z" />
    <glyph glyph-name="parenleft" unicode="(" horiz-adv-x="316" 
d="M312 -279q-43 24 -86 64.5t-83.5 97.5t-65.5 136t-25 165t25 165.5t65.5 137t83.5 97.5t86 63l5 -8q-42 -23 -84.5 -63.5t-81.5 -97t-63.5 -134t-24.5 -160.5q0 -84 24.5 -161.5t64 -133.5t81 -96t84.5 -64z" />
    <glyph glyph-name="parenright" unicode=")" horiz-adv-x="316" 
d="M4 -279l-5 8q43 24 84.5 64t81 96t64 133.5t24.5 161.5q0 83 -24.5 160.5t-63.5 134t-81.5 97t-84.5 63.5l5 8q43 -23 86 -63t83.5 -97.5t65.5 -137t25 -165.5t-25 -165t-65.5 -136t-83.5 -97.5t-86 -64.5z" />
    <glyph glyph-name="asterisk" unicode="*" horiz-adv-x="308" 
d="M199 312l-55 36l3 120q0 2 -1.5 3.5t-2.5 -0.5l-62 -100l-68 1q-4 0 -4 2l17 66l114 32q3 4 0 7l-114 35l-18 65q0 2 3 2l70 2l61 -102q2 -3 5 2l-2 123l56 33q2 2 4 0l24 -61l-78 -96q-2 -5 3 -6l115 43l50 -42q4 -2 0 -4l-50 -42l-115 44q-2 1 -3 -2v-5l76 -95l-24 -60
q-3 -3 -4 -1z" />
    <glyph glyph-name="plus" unicode="+" horiz-adv-x="433" 
d="M211 24v207h-204l2 12h202v203h12v-203h201l2 -12h-203v-207h-12z" />
    <glyph glyph-name="comma" unicode="," horiz-adv-x="188" 
d="M42 -122l-4 5q39 19 61.5 49t22.5 62q0 40 -29 55t-55 -3q-12 24 5 52t56 28q38 0 61.5 -23.5t23.5 -62.5q0 -45 -41.5 -93t-100.5 -69z" />
    <glyph glyph-name="hyphen" unicode="-" horiz-adv-x="280" 
d="M18 214l3 40h241l-3 -40h-241z" />
    <glyph glyph-name="period" unicode="." horiz-adv-x="206" 
d="M104 -12q-27 0 -46 19t-19 45q0 25 19 43.5t46 18.5q26 0 44.5 -18.5t18.5 -43.5q0 -26 -18 -45t-45 -19z" />
    <glyph glyph-name="slash" unicode="/" horiz-adv-x="249" 
d="M16 -247l210 877h10l-210 -877h-10z" />
    <glyph glyph-name="zero" unicode="0" horiz-adv-x="559" 
d="M277 -11q-106 0 -176.5 69t-70.5 178q0 110 73 181t179 71q104 0 175.5 -70t71.5 -179q0 -110 -72.5 -180t-179.5 -70zM280 -3q61 0 98.5 68t37.5 166q0 111 -36 179.5t-102 68.5q-60 0 -97.5 -67.5t-37.5 -162.5q0 -117 35 -184.5t102 -67.5z" />
    <glyph glyph-name="one" unicode="1" horiz-adv-x="344" 
d="M51 0l3 6l30 1q44 1 44 16v413l-99 14l3 6l197 27v-462q0 -12 54 -14l26 -1l3 -6h-261z" />
    <glyph glyph-name="two" unicode="2" horiz-adv-x="457" 
d="M19 0l-4 18q158 123 206.5 178t48.5 118q0 47 -30 77.5t-74 30.5q-43 0 -74 -21t-57 -68l-7 4q74 150 196 150q60 0 100 -36.5t40 -90.5q0 -14 -3 -27t-7 -24.5t-14 -25.5t-17.5 -23.5t-24 -25t-27 -25.5t-34 -28.5t-37 -29t-43 -33.5t-46.5 -36v-3h251q25 0 75 123l5 11
l7 -3l-47 -210h-383z" />
    <glyph glyph-name="three" unicode="3" horiz-adv-x="415" 
d="M138 -201q-59 0 -95 22.5t-36 53.5q0 22 15 36.5t37 14.5q35 0 55.5 -31.5t13.5 -72.5h3q3 -1 8 -2.5t10.5 -2.5t11.5 -1.5t11 -0.5q52 0 90 44.5t38 110.5q0 74 -41.5 119t-108.5 45q-35 0 -84 -17l-3 7q13 8 42.5 25.5t39.5 24t31.5 21t28.5 21.5l20 20q13 13 17 23.5
t8 24.5t4 30q0 48 -29 78t-76 30q-88 0 -129 -88l-7 3q66 150 189 150q63 0 103.5 -36.5t40.5 -89.5q0 -24 -9.5 -45.5t-20.5 -35.5t-34.5 -31t-37.5 -25t-43 -24v-2q87 1 137.5 -50t50.5 -126q0 -88 -73 -155.5t-178 -67.5z" />
    <glyph glyph-name="four" unicode="4" horiz-adv-x="488" 
d="M266 -184v192h-256v6l316 463h33v-400h119l-24 -69h-95v-192h-93zM67 77h199v290h-1z" />
    <glyph glyph-name="five" unicode="5" horiz-adv-x="399" 
d="M107 -200q-129 0 -129 75q0 22 15 37t38 15q32 0 52 -32t19 -70q22 -9 45 -9q50 0 87.5 44t37.5 110q0 82 -63.5 132.5t-176.5 62.5l79 307h265l-23 -95h-255l-30 -122q145 -19 217 -79t72 -149q0 -92 -74.5 -159.5t-175.5 -67.5z" />
    <glyph glyph-name="six" unicode="6" horiz-adv-x="509" 
d="M261 -12q-105 0 -169.5 70t-64.5 175q0 170 128.5 288t325.5 135l1 -7q-92 -14 -164 -64.5t-111.5 -114t-59.5 -139.5l1 -1q73 62 155 62q77 0 128 -50.5t51 -135.5q0 -95 -64.5 -156.5t-156.5 -61.5zM268 -2q52 0 82 47.5t30 132.5q0 77 -39 126t-98 49q-58 0 -97 -39
q-12 -16 -12 -84q0 -106 33 -169t101 -63z" />
    <glyph glyph-name="seven" unicode="7" horiz-adv-x="435" 
d="M79 -184l300 563v3h-161q-101 0 -136 -14.5t-48 -67.5l-2 -10l-10 1l22 181h380l1 -6l-263 -650h-83z" />
    <glyph glyph-name="eight" unicode="8" horiz-adv-x="486" 
d="M245 -14q-93 0 -155 47t-62 119q0 53 43 93t111 55v1q-66 32 -100.5 68.5t-34.5 89.5q0 70 53 126t141 56q87 0 143.5 -45t56.5 -114q0 -44 -38.5 -78t-99.5 -53v-2q75 -34 115 -74.5t40 -102.5q0 -75 -61.5 -130.5t-151.5 -55.5zM292 354q56 44 56 124q0 59 -31 106
t-82 47q-47 0 -74 -35t-27 -82q0 -54 41 -91t117 -69zM252 -3q56 0 88.5 34.5t32.5 86.5q0 58 -48 99.5t-132 76.5q-71 -42 -71 -139q0 -60 37 -109t93 -49z" />
    <glyph glyph-name="nine" unicode="9" horiz-adv-x="509" 
d="M27 -178l-1 8q136 22 220 110.5t115 207.5l-2 1q-73 -62 -154 -62q-77 0 -128.5 50.5t-51.5 136.5q0 95 66 156t157 61q104 0 168.5 -70.5t64.5 -174.5q0 -170 -128.5 -287.5t-325.5 -136.5zM265 126q58 0 97 39q11 20 11 85q0 64 -12 113.5t-42.5 83.5t-77.5 34
q-50 0 -82 -47t-32 -132q0 -75 39 -125.5t99 -50.5z" />
    <glyph glyph-name="colon" unicode=":" horiz-adv-x="204" 
d="M104 288q-27 0 -46 19.5t-19 45.5q0 24 19 42t46 18t45 -18t18 -42q0 -26 -18.5 -45.5t-44.5 -19.5zM104 -12q-27 0 -46 19t-19 44q0 24 19 42.5t46 18.5q26 0 44.5 -18t18.5 -43t-18.5 -44t-44.5 -19z" />
    <glyph glyph-name="semicolon" unicode=";" horiz-adv-x="188" 
d="M110 288q-27 0 -45.5 19t-18.5 45q0 24 18.5 42.5t45.5 18.5t45 -18.5t18 -42.5q0 -26 -18 -45t-45 -19zM43 -120l-4 4q39 19 61.5 48.5t22.5 61.5q0 40 -29 55t-55 -3q-13 23 5 51t56 28t61.5 -23.5t23.5 -61.5q0 -45 -41 -92t-101 -68z" />
    <glyph glyph-name="less" unicode="&#x3c;" horiz-adv-x="420" 
d="M403 33l-398 197v11l398 196l5 -11l-387 -189v-2l387 -191z" />
    <glyph glyph-name="equal" unicode="=" horiz-adv-x="428" 
d="M18 316l-3 12h398l-3 -12h-392zM15 143l3 12h392l3 -12h-398z" />
    <glyph glyph-name="greater" unicode="&#x3e;" horiz-adv-x="420" 
d="M17 33l-5 11l387 191v2l-387 189l5 11l398 -196v-11z" />
    <glyph glyph-name="question" unicode="?" horiz-adv-x="310" 
d="M147 178q-30 24 -56.5 60t-26.5 58q0 38 23 57.5t84 42.5q58 23 79 37.5t21 34.5q0 34 -37.5 59t-113.5 25q-41 0 -77 -10q-19 19 -19 51q-2 47 69 47q86 0 138 -61.5t52 -140.5q0 -51 -16.5 -75t-67.5 -47q-64 -26 -76 -37q-12 -12 -12 -28q0 -31 45 -71zM149 -13
q-27 0 -45.5 18.5t-18.5 44.5q0 24 18.5 42t45.5 18t45 -17.5t18 -42.5q0 -26 -18 -44.5t-45 -18.5z" />
    <glyph glyph-name="at" unicode="@" horiz-adv-x="766" 
d="M388 -103q-160 0 -261.5 95.5t-101.5 246.5q0 166 114 284.5t274 118.5q142 0 235 -87t93 -221q0 -110 -71 -193t-159 -83q-51 0 -79 23t-28 58q0 34 20 84h-1q-59 -88 -96 -126.5t-76 -38.5q-37 0 -62.5 25t-26.5 64q0 57 43 126.5t101 122.5q72 67 127 67
q23 0 35.5 -29.5t10.5 -67.5h1l42 122l86 -4l-64 -162l-45 -118q-38 -105 58 -105q64 0 119 69.5t55 165.5q0 129 -90 214t-228 85q-156 0 -267 -116t-111 -278q0 -146 98.5 -239.5t254.5 -93.5q106 0 194.5 54t128.5 136l9 -4q-41 -84 -132 -139.5t-200 -55.5zM295 112
q24 0 62.5 42.5t77.5 117.5q28 54 28 71q0 26 -22 50.5t-51 24.5q-18 0 -38 -18q-34 -31 -65.5 -102.5t-31.5 -122.5q0 -30 11 -46.5t29 -16.5z" />
    <glyph glyph-name="A" unicode="A" horiz-adv-x="640" 
d="M349 271h-168l-37 -104q-13 -40 -19 -58.5t-9.5 -40t-1 -28.5t12.5 -15.5t24.5 -11t40.5 -5.5l20 -2l3 -6h-223l3 6l17 2q34 4 51 18.5t35 53t56 142.5l111 311l-12 31q50 17 76 77h14l168 -507q26 -79 43 -101.5t52 -24.5l28 -2l3 -6h-299l3 6l29 2q37 2 43 25t-11 72z
M185 281h161l-75 236h-2z" />
    <glyph glyph-name="B" unicode="B" horiz-adv-x="595" 
d="M20 0l3 6l37 4q47 5 47 16v576q0 9 -57 13l-26 3l-3 7h254q253 0 253 -137q0 -111 -191 -138v-3q105 -6 165 -54t60 -118q0 -79 -71 -127t-207 -48h-264zM275 10q-1 0 16 2q68 4 109.5 49.5t41.5 108.5q0 73 -49 120.5t-123 47.5q-32 0 -50 -3v-307zM220 348h34
q72 1 113 36.5t41 95.5q0 133 -155 133l-33 -1v-264z" />
    <glyph glyph-name="C" unicode="C" horiz-adv-x="684" 
d="M385 -14q-159 0 -258.5 90.5t-99.5 233.5q0 144 100 237t267 93q92 0 167 -41l62 25l5 -199h-6l-98 171q-42 33 -132 33q-114 0 -178 -89t-64 -223q0 -142 69.5 -231t171.5 -89q80 0 130.5 37t93.5 114l29 52h6l-35 -168l-33 -7q-31 -14 -89.5 -26.5t-107.5 -12.5z" />
    <glyph glyph-name="D" unicode="D" horiz-adv-x="677" 
d="M20 0l3 6l37 4q47 5 47 16v576q0 5 -10 7.5t-47 6.5l-26 3l-3 6h21q14 0 50 0.5t68 0.5t65 0.5t52 0.5t18 0q175 2 266 -80.5t91 -224.5q0 -138 -102 -230t-279 -92h-251zM287 11q59 1 106.5 25t77 64t45 91.5t15.5 109.5q0 140 -63.5 227t-192.5 87h-55v-584z" />
    <glyph glyph-name="E" unicode="E" horiz-adv-x="601" 
d="M20 0l3 6l34 4q50 6 50 16v576q0 5 -10 7.5t-47 6.5l-26 3l-3 6h496l12 -199l-7 -1l-4 13q-31 97 -74 137.5t-135 39.5h-89v-289l44 1q74 4 106.5 22t48.5 67l6 16l7 -1l-24 -225l-7 1l-1 15q-4 55 -32 71.5t-112 21.5l-36 2v-302l110 -5q92 1 142 48.5t85 135.5l5 13
l7 -1l-32 -206h-517z" />
    <glyph glyph-name="F" unicode="F" horiz-adv-x="569" 
d="M20 0l3 6l40 4q44 5 44 16v576q0 3 -1 4.5t-7 3t-16 3t-30 3.5l-29 3l-3 6h501l14 -193l-7 -1l-4 13q-23 63 -44.5 96.5t-62 54t-104.5 20.5l-94 -1v-293l44 1q75 4 107 21t48 67l6 16l7 -1l-24 -225l-7 1l-1 15q-4 55 -32.5 73t-111.5 21l-36 1v-288q0 -10 57 -14l46 -3
l3 -6h-306z" />
    <glyph glyph-name="G" unicode="G" horiz-adv-x="709" 
d="M377 -15q-156 0 -253 90.5t-97 234.5t99 237t267 93q47 0 95.5 -11.5t73.5 -26.5l58 22l4 -199h-6l-93 170q-44 34 -134 34q-114 0 -177.5 -89t-63.5 -223q0 -145 70.5 -233t167.5 -88q75 0 119 34v219q0 10 -64 14l-37 3l-3 6h299l-3 -6l-39 -4q-45 -4 -45 -15v-199
l52 7l1 -4q-63 -26 -146.5 -46t-144.5 -20z" />
    <glyph glyph-name="H" unicode="H" horiz-adv-x="741" 
d="M20 0l3 6l37 4q47 6 47 16v576q0 5 -10 7.5t-47 6.5l-26 3l-3 6h288l-3 -6l-39 -4q-48 -5 -48 -16v-276h303v279q0 5 -10 7.5t-48 6.5l-28 3l-3 6h288l-3 -6l-37 -4q-47 -6 -47 -16v-576q0 -5 10 -7.5t47 -6.5l26 -3l3 -6h-288l3 6l39 4q48 5 48 16v287h-303v-290
q0 -5 10 -7.5t48 -6.5l28 -3l3 -6h-288z" />
    <glyph glyph-name="I" unicode="I" horiz-adv-x="349" 
d="M28 0l3 6l40 4q48 4 48 16v576q0 5 -10 7.5t-48 6.5l-29 3l-3 6h292l-3 -6l-40 -4q-48 -4 -48 -16v-576q0 -5 10 -7.5t48 -6.5l29 -3l3 -6h-292z" />
    <glyph glyph-name="J" unicode="J" horiz-adv-x="334" 
d="M8 -170q-38 0 -62.5 19t-24.5 48q0 25 18 43t46 18q45 0 58 -41.5t-21 -71.5q43 -4 66 47.5t23 144.5v565q0 10 -57 14l-29 3l-3 6h291l-3 -6l-39 -4q-48 -5 -48 -16v-572q0 -27 -32.5 -73.5t-85 -85t-97.5 -38.5z" />
    <glyph glyph-name="K" unicode="K" horiz-adv-x="685" 
d="M20 0l3 6l40 4q44 5 44 16v576q0 3 -1 4.5t-7 3t-16 3t-30 3.5l-29 3l-3 6h296l-3 -6l-47 -4q-48 -4 -48 -16v-326l153 156q119 121 122 155q3 19 -26 27q-13 3 -37 5l-35 3l-2 6h259l-3 -6l-17 -2q-12 -1 -22 -3t-18.5 -4t-18.5 -7.5t-17 -9t-19 -14.5t-20.5 -18
t-26 -24.5t-29.5 -30t-37 -38.5t-44 -45l-5 -6l192 -320q35 -59 50.5 -73t47.5 -16l20 -2l3 -6h-287l2 6l24 2q20 2 28.5 7t8 18.5t-10.5 35t-32 59.5l-123 211l-80 -80v-236q0 -5 10 -7.5t48 -6.5l36 -3l3 -6h-296z" />
    <glyph glyph-name="L" unicode="L" horiz-adv-x="566" 
d="M20 0l3 6l40 4q44 5 44 16v576q0 3 -1 4.5t-7 3t-16 3t-30 3.5l-29 3l-3 6h306l-3 -6l-57 -4q-48 -4 -48 -16v-585l86 -5q88 0 131 44.5t91 154.5l6 13h6l-32 -221h-487z" />
    <glyph glyph-name="M" unicode="M" horiz-adv-x="830" 
d="M16 0l3 6l19 1q47 3 62.5 13.5t15.5 28.5l13 546q-20 17 -63 22l-28 2l-3 6h205l176 -476h1l184 476h210l-3 -6l-50 -4q-47 -4 -47 -16l11 -576q0 -5 9.5 -7.5t46.5 -6.5l29 -3l3 -6h-293l3 6l48 4q41 4 41 16l-12 555h-1l-225 -581h-9l-210 555q-4 14 -14 27l-10 -537
q0 -33 97 -38l18 -1l3 -6h-230z" />
    <glyph glyph-name="N" unicode="N" horiz-adv-x="687" 
d="M573 -5l-450 547h-1l1 -497q0 -30 86 -38l19 -1l3 -6h-215l3 6l20 1q35 3 53 15t18 28l3 503q-49 58 -100 65l-12 2l-3 6h205l370 -455l1 1l-1 407q0 31 -87 39l-18 1l-3 6h215l-3 -6l-20 -1q-35 -3 -53.5 -15t-18.5 -28l-3 -580h-9z" />
    <glyph glyph-name="O" unicode="O" horiz-adv-x="735" 
d="M362 -13q-146 0 -240.5 90.5t-94.5 233.5q0 129 102.5 228.5t242.5 99.5q146 0 241 -91.5t95 -235.5q0 -129 -102 -227t-244 -98zM370 -2q102 0 158 82t56 235q0 142 -60 227.5t-159 85.5q-102 0 -158.5 -83t-56.5 -235q0 -143 60 -227.5t160 -84.5z" />
    <glyph glyph-name="P" unicode="P" horiz-adv-x="571" 
d="M10 0l3 6l47 4q47 5 47 16v576q0 5 -10 7.5t-47 6.5l-36 3l-3 6h287q249 0 249 -150q0 -77 -71 -124.5t-187 -47.5q-39 0 -69 5v-285q0 -10 57 -14l46 -3l3 -6h-316zM287 314q64 0 102.5 39.5t38.5 107.5q0 78 -36 116t-116 38l-56 -2v-290q32 -9 67 -9z" />
    <glyph glyph-name="Q" unicode="Q" horiz-adv-x="734" 
d="M614 -180q-99 0 -166 35t-107 133q-138 7 -226 97t-88 226q0 128 102.5 228t242.5 100q147 0 241.5 -92.5t94.5 -234.5q0 -100 -67 -185.5t-171 -120.5q47 -111 109.5 -143t176.5 -18l2 -6q-59 -19 -144 -19zM370 -3q102 0 158 82.5t56 235.5q0 141 -60.5 227t-158.5 86
q-102 0 -158.5 -83.5t-56.5 -235.5q0 -143 60 -227.5t160 -84.5z" />
    <glyph glyph-name="R" unicode="R" horiz-adv-x="665" 
d="M10 0l3 6l47 4q47 6 47 16v576q0 5 -10 7.5t-47 6.5l-36 3l-3 6l284 1q255 0 255 -163q0 -55 -42.5 -97t-111.5 -55l135 -208q35 -55 58 -73.5t62 -22.5l12 -1l4 -6h-203l-8 15l-175 296q-29 7 -61 20v-308q0 -8 57 -14l38 -3l3 -6h-308zM285 328q70 0 108.5 36t38.5 104
q0 71 -44 110t-127 37l-41 -2v-273q41 -12 65 -12z" />
    <glyph glyph-name="S" unicode="S" horiz-adv-x="504" 
d="M241 -13q-96 0 -197 35l-8 155h6l33 -68q55 -112 168 -112q62 0 99.5 38t37.5 98q0 57 -37 89.5t-112 58.5q-85 30 -130 70.5t-45 109.5q0 72 56 125t146 53q58 0 139 -24l38 13l2 -169h-5l-74 136q-45 34 -101 34q-49 0 -82.5 -31t-33.5 -78q0 -51 36.5 -80t107.5 -54
q92 -32 138.5 -76.5t46.5 -121.5q0 -78 -65 -139.5t-164 -61.5z" />
    <glyph glyph-name="T" unicode="T" horiz-adv-x="665" 
d="M179 0l3 6l47 4q48 4 48 16v590h-38q-64 -4 -112.5 -51t-81.5 -110l-7 -13h-7l33 183h545l23 -183h-6l-6 13q-71 157 -192 161h-39v-593q0 -5 10 -7.5t48 -6.5l36 -3l3 -6h-307z" />
    <glyph glyph-name="U" unicode="U" horiz-adv-x="691" 
d="M359 -15q-136 0 -196 53t-60 174v391q0 10 -57 14l-36 3l-3 6h306l-3 -6l-47 -4q-47 -4 -47 -16v-363q0 -108 45 -160t138 -52q90 0 139 57t49 170l-1 327q0 32 -88 39l-18 2l-3 6h215l-3 -6l-20 -2q-35 -3 -53 -15t-18 -28l-2 -325q-2 -130 -57 -197.5t-180 -67.5z" />
    <glyph glyph-name="V" unicode="V" horiz-adv-x="643" 
d="M321 -12l-199 507q-34 86 -46.5 103t-49.5 20l-29 2l-2 6h294l-2 -6l-36 -1q-44 -1 -49 -15.5t17 -66.5l154 -399h2l120 323q14 39 20.5 57.5t10 39t1 28t-12 16t-24.5 11t-41 5.5l-20 2l-3 6h222l-3 -6l-16 -2q-31 -3 -47 -14t-33.5 -44t-45.5 -110l-173 -462h-9z" />
    <glyph glyph-name="W" unicode="W" horiz-adv-x="993" 
d="M314 -15l-196 510q-30 80 -45 99.5t-52 22.5l-27 2l-3 6h295l-3 -6l-32 -1q-40 -1 -46 -13.5t10 -58.5l153 -416h2l129 324l-15 41q-30 79 -45 99.5t-52 22.5l-29 2l-3 6h296l-3 -6l-30 -1q-42 -1 -48 -14t12 -60l149 -410h2l118 321q14 38 20 57t10 40t1 29.5t-12 17.5
t-25 12t-42 6l-21 2l-3 6h224l-3 -6l-16 -2q-44 -4 -63 -30.5t-59 -135.5l-174 -466h-11l-171 457h-1l-180 -457h-11z" />
    <glyph glyph-name="X" unicode="X" horiz-adv-x="655" 
d="M-6 0l3 6l23 2q45 3 75 31t96 120l90 131l-134 207q-10 14 -23 34t-18.5 28.5t-14 20.5t-13.5 16.5t-12 10t-14 7t-16 2.5l-30 3l-4 6h295l-1 -6l-36 -1q-18 -1 -26.5 -5t-9 -15t8.5 -29.5t29 -49.5l93 -145h1l65 97q41 59 51.5 87.5t-1.5 40.5t-51 17l-27 3l-3 6h238
l-3 -6l-21 -2q-47 -4 -76.5 -30.5t-96.5 -120.5l-70 -101l183 -280q33 -50 45.5 -63t36.5 -14l25 -2l4 -6h-291l2 6l36 1q34 1 39.5 14.5t-12.5 41.5l-142 218h-1l-22 -31l-42 -64l-22 -31q-39 -57 -49.5 -86.5t1.5 -42t50 -17.5l27 -3l3 -6h-238z" />
    <glyph glyph-name="Y" unicode="Y" horiz-adv-x="636" 
d="M165 0l3 6l46 4q48 4 48 16v257l-140 250q-29 49 -46 65t-49 19l-25 2l-3 6h296l-3 -6l-20 -1q-45 -4 -51.5 -20t15.5 -53l129 -233h2l81 152q26 49 36.5 73.5t9.5 43t-15.5 25t-46.5 10.5l-22 3l-3 6h221l-3 -6l-28 -3q-35 -4 -61 -31.5t-74 -118.5l-88 -164v-279
q0 -5 10 -7.5t48 -6.5l36 -3l3 -6h-306z" />
    <glyph glyph-name="Z" unicode="Z" horiz-adv-x="590" 
d="M30 0v4l385 608v2h-97q-114 0 -170.5 -43t-85.5 -124l-4 -10h-6l15 188h481v-5l-387 -606v-2l108 -1q64 -1 108.5 10t76 38t52 59.5t43.5 87.5l6 13h8l-32 -219h-501z" />
    <glyph glyph-name="bracketleft" unicode="[" horiz-adv-x="306" 
d="M53 -247v872h244v-10h-233v-852h233v-10h-244z" />
    <glyph glyph-name="backslash" unicode="\" horiz-adv-x="232" 
d="M204 -247l-210 877h10l210 -877h-10z" />
    <glyph glyph-name="bracketright" unicode="]" horiz-adv-x="306" 
d="M9 -247v10h233v852h-233v10h244v-872h-244z" />
    <glyph glyph-name="asciicircum" unicode="^" horiz-adv-x="370" 
d="M38 480l145 197h4l145 -197h-6l-140 104h-2l-141 -104h-5z" />
    <glyph glyph-name="underscore" unicode="_" horiz-adv-x="446" 
d="M19 -28l3 29h402l3 -29h-408z" />
    <glyph glyph-name="grave" unicode="`" horiz-adv-x="385" 
d="M237 491l-198 187h105l98 -187h-5z" />
    <glyph glyph-name="a" unicode="a" horiz-adv-x="431" 
d="M336 -10q-66 0 -75 79l-1 2q-74 -80 -132 -80q-43 0 -73 28t-30 66q0 54 52.5 92t188.5 70l1 33q2 67 -24.5 100.5t-75.5 33.5q-26 0 -47 -9.5t-21 -18.5q0 -1 14 -21t14 -36q0 -19 -15 -33.5t-38 -14.5t-37.5 12.5t-14.5 32.5q0 42 71.5 77.5t137.5 35.5q78 0 109 -34
t27 -122l-10 -189q-3 -54 36 -54q17 0 42 27l6 -3q-17 -21 -26.5 -32t-33 -26.5t-45.5 -15.5zM186 46q39 0 74 35l6 156q-83 -19 -113 -47t-30 -70q0 -32 18.5 -53t44.5 -21z" />
    <glyph glyph-name="b" unicode="b" horiz-adv-x="499" 
d="M46 -20v590q0 27 -7.5 36.5t-33.5 16.5l-23 6l1 4l161 41v-327l2 -2q75 89 157 89q75 0 126 -59t51 -150q0 -77 -37.5 -133.5t-88.5 -80.5t-106 -24q-60 0 -132 29h-1l-63 -36h-6zM264 -2q50 0 78.5 57t28.5 141q0 77 -35 128.5t-93 51.5q-52 0 -99 -47v-230
q18 -43 51.5 -72t68.5 -29z" />
    <glyph glyph-name="c" unicode="c" horiz-adv-x="418" 
d="M223 -14q-88 0 -146 61.5t-58 154.5q0 100 64 168.5t166 68.5q65 0 110 -26t45 -68q0 -23 -16.5 -40t-38.5 -17q-23 0 -39 16t-16 37q0 19 11 37.5t11 19.5q0 11 -19 21.5t-42 10.5q-56 0 -92.5 -53.5t-36.5 -138.5q0 -87 42 -137.5t109 -50.5q44 0 73 17.5t54 61.5l8 -4
q-71 -139 -189 -139z" />
    <glyph glyph-name="d" unicode="d" horiz-adv-x="511" 
d="M355 -16v92l-2 2q-73 -91 -157 -91q-75 0 -126 59.5t-51 150.5q0 77 37.5 133t88.5 80t106 24q64 0 102 -19h2v155q0 27 -8 38t-32 15l-33 6l1 4l170 41v-603q0 -23 4 -30t18 -11l42 -9l-1 -4zM257 46q55 0 98 48v231q-17 42 -50.5 69.5t-66.5 27.5q-52 0 -81 -56
t-29 -141q0 -76 35 -127.5t94 -51.5z" />
    <glyph glyph-name="e" unicode="e" horiz-adv-x="434" 
d="M224 -14q-89 0 -147 62t-58 155q0 100 63.5 168.5t160.5 68.5q79 0 122.5 -39.5t43.5 -99.5q0 -2 -2 -16q-265 2 -279 3q-3 -21 -3 -52q0 -83 43 -134.5t110 -51.5q45 0 76.5 18t56.5 61l7 -4q-73 -139 -194 -139zM129 297l179 2q0 54 -17.5 92t-56.5 38q-37 0 -67 -38.5
t-38 -93.5z" />
    <glyph glyph-name="f" unicode="f" horiz-adv-x="308" 
d="M21 0l3 6l17 1q37 2 41 8q1 3 1 6v359l-78 1l21 43h57l2 43q8 92 69 143.5t135 51.5q40 0 59 -14.5t19 -36.5q0 -20 -16 -35t-38 -15q-23 0 -40.5 19.5t-24.5 51.5l-2 6l-15 4q-29 -12 -39 -46.5t-10 -109.5v-62h121l-17 -44h-104v-360q0 -12 50 -13l34 -1l3 -6h-248z
" />
    <glyph glyph-name="g" unicode="g" horiz-adv-x="464" 
d="M180 -242q-83 0 -126.5 26.5t-43.5 75.5q0 38 37 68t87 48v1q-50 4 -82.5 27.5t-32.5 55.5q0 38 34.5 65.5t80.5 37.5v2q-40 14 -65.5 47t-25.5 77q0 63 50.5 106t123.5 43q62 0 117 -37l127 23l-10 -51l-98 14l-1 -2q40 -37 40 -88q0 -61 -51.5 -103t-126.5 -42
q-31 0 -64 7q-58 -12 -58 -51q0 -22 20 -30.5t63 -8.5q13 0 56.5 1.5t62.5 1.5q71 0 109.5 -30.5t38.5 -86.5q0 -84 -73 -140.5t-189 -56.5zM217 160q36 0 58 34t22 93q0 142 -81 142q-35 0 -54.5 -35t-19.5 -97q0 -65 19.5 -101t55.5 -36zM234 -223q64 0 106 35t42 85
q0 79 -131 83q-45 2 -104 -6q-26 -10 -43 -35t-17 -55q0 -47 41 -77t106 -30z" />
    <glyph glyph-name="h" unicode="h" horiz-adv-x="511" 
d="M6 0l3 6l15 1q14 1 20 1.5t12 2t8 4.5t2 7v547q0 26 -7.5 35.5t-32.5 16.5l-23 6l1 4l161 41v-319l2 -2q22 19 27.5 23.5t28.5 21.5t36.5 23t35 13t41.5 7q47 0 78 -31q32 -32 32 -104v-283q0 -4 2 -5.5t13.5 -4t35.5 -4.5l12 -1l3 -6h-225l3 6l18 1q39 2 39 15v268
q0 84 -85 84q-56 0 -97 -36v-318q0 -6 8 -8.5t40 -4.5l14 -1l3 -6h-224z" />
    <glyph glyph-name="i" unicode="i" horiz-adv-x="248" 
d="M118 513q-30 0 -47 19.5t-17 42.5q0 24 17 44t47 20t47 -20t17 -44q0 -22 -17 -42t-47 -20zM15 0l3 6l16 1q14 1 20 1.5t12 2t8 4.5t2 7v284q0 45 -7.5 58.5t-33.5 19.5l-23 5l1 4l162 44v-417q0 -6 8 -8t42 -5l13 -1l3 -6h-226z" />
    <glyph glyph-name="j" unicode="j" horiz-adv-x="238" 
d="M116 513q-30 0 -47.5 19.5t-17.5 42.5q0 24 17 44t48 20q29 0 46 -20t17 -44q0 -22 -17 -42t-46 -20zM-17 -251q-36 0 -56.5 16.5t-20.5 41.5q0 22 15.5 37t37.5 15q30 0 48 -26t16 -59q50 8 50 148v384q0 45 -7.5 58.5t-33.5 19.5l-23 5l1 4l162 44v-466
q0 -71 -63 -146.5t-126 -75.5z" />
    <glyph glyph-name="k" unicode="k" horiz-adv-x="493" 
d="M7 0l3 6l15 1q2 0 7 1q31 3 33 10q1 2 1 4v547q0 26 -7.5 35.5t-32.5 16.5l-23 6l1 4l161 41v-473l87 83q81 76 81 105q0 26 -59 31l-13 1l-3 6h208l-3 -6l-18 -2q-34 -4 -60.5 -24t-94.5 -88q-17 -15 -17 -16l123 -210q27 -45 40.5 -57.5t41.5 -14.5l12 -1l3 -6h-169
l-6 14l-117 206l-36 -33v-167q0 -6 8.5 -8.5t41.5 -4.5l15 -1l2 -6h-225z" />
    <glyph glyph-name="l" unicode="l" horiz-adv-x="242" 
d="M12 0l3 6l16 1q25 2 32.5 4t7.5 11v522q0 44 -7.5 57t-33.5 20l-22 6l1 4l161 41v-652q0 -6 8.5 -8.5t39.5 -4.5l13 -1l3 -6h-222z" />
    <glyph glyph-name="m" unicode="m" horiz-adv-x="772" 
d="M15 0l3 6l16 1q14 1 20 1.5t12 2t8 4.5t2 7v283q0 46 -7.5 59.5t-33.5 19.5l-23 5l1 4l163 44l-3 -85h3q26 26 42 40t49 30.5t65 16.5q45 0 79 -31q20 -22 26 -58l2 -1q26 27 44 42.5t50 31.5t64 16q49 0 79 -31q32 -31 32 -118v-269q0 -4 2 -5.5t13 -4t35 -4.5l12 -1
l3 -6h-224l3 6l18 1q24 1 31 4.5t7 10.5v267q0 46 -18.5 65.5t-61.5 19.5q-28 0 -54 -12t-31 -28l-2 -25v-288q0 -4 2 -6t12.5 -4t33.5 -4l14 -1l3 -6h-223l3 6l18 1q38 2 38 15v267q0 46 -18.5 65.5t-61.5 19.5t-87 -33v-321q0 -6 8 -8.5t39 -4.5l15 -1l2 -6h-224z" />
    <glyph glyph-name="n" unicode="n" horiz-adv-x="521" 
d="M15 0l3 6l16 1q14 1 20 1.5t12 2t8 4.5t2 7v283q0 46 -7.5 59.5t-33.5 19.5l-23 5l1 4l163 44l-3 -85l3 -1q32 27 49 40.5t53 30.5t68 17q48 0 78 -31q31 -30 31 -105v-282q0 -4 2.5 -5.5t14 -4t35.5 -4.5l12 -1l3 -6h-225l3 6l18 1q24 1 31 4.5t7 10.5v267q0 85 -85 85
q-55 0 -96 -36v-318q0 -6 8 -8.5t38 -4.5l15 -1l2 -6h-223z" />
    <glyph glyph-name="o" unicode="o" horiz-adv-x="507" 
d="M253 -13q-103 0 -168.5 64.5t-65.5 160.5t67 161.5t169 65.5t167.5 -64t65.5 -160q0 -97 -66.5 -162.5t-168.5 -65.5zM254 -5q55 0 87.5 62t32.5 150q0 141 -53 194q-30 30 -68 30q-59 0 -89.5 -60.5t-30.5 -147.5q0 -147 51 -198q30 -30 70 -30z" />
    <glyph glyph-name="p" unicode="p" horiz-adv-x="513" 
d="M-3 -253l3 6l18 1q14 1 20 1.5t12 2t8 4t2 6.5v538q0 45 -7.5 58.5t-33.5 19.5l-23 5l1 4l163 44l-2 -90l3 -2q73 89 156 89q75 0 126 -59t51 -150q0 -59 -21.5 -106t-56 -75t-74 -42.5t-79.5 -14.5q-60 0 -103 19h-1v-240q0 -11 50 -12l34 -1l3 -6h-249zM278 -2
q51 0 79.5 57t28.5 141q0 76 -35.5 127.5t-93.5 51.5q-54 0 -98 -46v-231q18 -42 51.5 -71t67.5 -29z" />
    <glyph glyph-name="q" unicode="q" horiz-adv-x="507" 
d="M267 -253l3 6l35 1q50 1 50 12v310l-2 2q-73 -91 -157 -91q-75 0 -126 59.5t-51 150.5q0 114 72 175.5t160 61.5q75 0 135 -30h1l60 40h6v-676q0 -8 8.5 -10t33.5 -4l18 -1l3 -6h-249zM257 46q55 0 98 48v228q-18 43 -51 72t-66 29q-52 0 -81.5 -55.5t-29.5 -139.5
q0 -77 36 -129.5t94 -52.5z" />
    <glyph glyph-name="r" unicode="r" horiz-adv-x="383" 
d="M15 0l3 6l16 1q14 1 20 1.5t12 2t8 4.5t2 7v283q0 46 -7.5 59.5t-33.5 19.5l-23 5l1 4l163 44l-3 -158h2q44 160 135 160q28 0 48 -18t20 -43q0 -24 -16.5 -41.5t-41.5 -17.5t-43 17t-21 47q-26 -5 -43.5 -37.5t-37.5 -104.5v-220q0 -12 52 -14l26 -1l3 -6h-241z" />
    <glyph glyph-name="s" unicode="s" horiz-adv-x="366" 
d="M168 -13q-75 0 -138 24l-7 125h5l23 -44q46 -96 123 -96q41 0 65 23t24 58t-26.5 57.5t-78.5 41.5q-60 22 -92 50t-32 82q0 59 43 94.5t110 35.5q53 0 93 -17l35 11l5 -125l-5 -1l-65 97q-30 26 -65 26q-37 0 -57 -20t-20 -54q0 -18 6.5 -31t22.5 -23.5t31 -17.5t43 -17
q31 -12 50.5 -22t40 -26t30.5 -38.5t10 -51.5q0 -58 -46 -99.5t-128 -41.5z" />
    <glyph glyph-name="t" unicode="t" horiz-adv-x="335" 
d="M187 -12q-111 0 -110 114l5 276l-80 1l12 22l163 123h4l-1 -98l150 -1l-17 -43h-134l-6 -271q0 -71 71 -71q50 0 84 32l5 -4q-80 -80 -146 -80z" />
    <glyph glyph-name="u" unicode="u" horiz-adv-x="497" 
d="M340 -16l1 90h-1q-94 -87 -169 -87q-45 0 -76 31q-33 31 -31 105l1 282q0 4 -2 5.5t-13.5 3.5t-36.5 4l-14 1l-3 6h168l-1 -290q-1 -44 20.5 -64t65.5 -20q51 0 90 34v293q0 24 -9 31t-41 9l-14 1l-3 6h166v-340q0 -23 4 -30t17 -11l43 -8l-1 -5z" />
    <glyph glyph-name="v" unicode="v" horiz-adv-x="470" 
d="M226 -10l-157 368q-17 39 -25 48.5t-31 11.5l-17 1l-3 6h234l-2 -6l-17 -1q-29 -2 -36 -13t4 -37l106 -253l70 183q26 74 18.5 94t-58.5 25l-14 2l-3 6h174l-3 -6l-14 -2q-31 -3 -43 -19t-39 -84q-6 -17 -10 -26l-116 -298h-18z" />
    <glyph glyph-name="w" unicode="w" horiz-adv-x="733" 
d="M217 -10l-143 355q-18 47 -28.5 59t-35.5 13l-17 1l-2 6h233l-2 -6l-17 -1q-29 -2 -35.5 -10t3.5 -34l103 -263l85 201l-22 53q-13 32 -24 41.5t-35 11.5l-14 1l-4 6h231l-2 -6l-17 -1q-28 -1 -33.5 -11t4.5 -33l108 -261l65 179q25 70 17 95.5t-59 30.5l-14 1l-3 6h174
l-3 -6l-14 -1q-34 -3 -46 -22t-43 -109l-107 -296h-21l-132 310l-129 -310h-21z" />
    <glyph glyph-name="x" unicode="x" horiz-adv-x="470" 
d="M1 0l3 6l21 3q30 5 52.5 25t68.5 82l52 70l-103 156q-31 43 -46 58.5t-35 16.5l-13 1l-3 6h232l-3 -6l-21 -2q-16 -1 -21 -9t0.5 -21.5t20.5 -35.5l60 -91h1l43 63q26 37 33.5 56.5t-1 27.5t-35.5 10l-19 2l-3 6h174l-3 -6l-22 -2q-29 -4 -52.5 -25t-68.5 -84l-41 -56
l114 -168q27 -40 44 -57.5t34 -18.5l13 -1l4 -6h-231l2 6l19 2q17 1 22 8.5t0 21.5t-20 36l-70 106h-1l-52 -77q-20 -28 -29 -45.5t-9 -28.5t8.5 -15.5t27.5 -5.5l23 -2l3 -6h-173z" />
    <glyph glyph-name="y" unicode="y" horiz-adv-x="470" 
d="M93 -256q-25 0 -44.5 15.5t-19.5 40.5q0 22 16 37.5t38 15.5q51 0 63 -52q18 4 30.5 24t27.5 62l35 105h-7l-163 366q-17 38 -26 48t-32 11l-18 1l-3 6h236l-3 -6l-17 -1q-29 -1 -35 -12t6 -37l107 -252l67 184q25 73 18 92.5t-59 24.5l-14 1l-3 6h175l-3 -6l-16 -1
q-33 -3 -46 -22t-44 -106l-107 -289l-40 -122q-22 -69 -49.5 -101.5t-69.5 -32.5z" />
    <glyph glyph-name="z" unicode="z" horiz-adv-x="428" 
d="M19 0v4l260 410l-50 1q-74 -1 -108 -28t-61 -91l-15 -31h-5v159h357v-4l-263 -410h49q76 1 122.5 33.5t79.5 91.5l14 25h5l-30 -160h-355z" />
    <glyph glyph-name="braceleft" unicode="{" horiz-adv-x="311" 
d="M299 -267q-91 6 -153 50t-62 109q0 42 21 113.5t21 99.5q0 39 -32.5 56.5t-107.5 24.5l-2 4l2 5q67 6 103.5 24t36.5 58q0 28 -21 99t-21 113q0 65 62 108.5t153 50.5l3 -6q-74 -10 -107 -35.5t-33 -69.5q0 -32 21 -105.5t21 -113.5q0 -104 -183 -127v-1
q183 -23 183 -127q0 -40 -21 -113.5t-21 -105.5q0 -87 140 -105z" />
    <glyph glyph-name="bar" unicode="|" horiz-adv-x="153" 
d="M72 -207v877h9v-877h-9z" />
    <glyph glyph-name="braceright" unicode="}" horiz-adv-x="311" 
d="M-11 -267l-3 6q140 18 140 105q0 32 -21.5 105.5t-21.5 113.5q0 104 184 127v1q-184 23 -184 127q0 40 21.5 113.5t21.5 105.5q0 44 -33 69.5t-107 35.5l3 6q91 -7 153 -50.5t62 -108.5q0 -42 -21 -113t-21 -99q0 -40 36.5 -58t103.5 -24l2 -5l-2 -4q-75 -7 -107.5 -24.5
t-32.5 -56.5q0 -28 21 -99.5t21 -113.5q0 -65 -62 -109t-153 -50z" />
    <glyph glyph-name="asciitilde" unicode="~" horiz-adv-x="380" 
d="M269 148q-33 0 -98 31t-84 31q-10 0 -16 -1t-13 -6t-11 -16t-5 -30h-6q6 65 22 89.5t54 24.5q32 0 97 -31t83 -31q22 0 33 9.5t14 44.5h6q-6 -64 -22 -89.5t-54 -25.5z" />
    <glyph glyph-name="nbspace" unicode="&#xa0;" horiz-adv-x="130" 
 />
    <glyph glyph-name="exclamdown" unicode="&#xa1;" horiz-adv-x="260" 
d="M129 511q-27 0 -44.5 17.5t-17.5 42.5q0 26 17.5 44.5t44.5 18.5t46 -18.5t19 -44.5q0 -24 -19 -42t-46 -18zM128 -19q-37 0 -47 16t-6 44l49 395q1 4 5 4t5 -4l49 -395q4 -28 -6 -44t-47 -16h-2z" />
    <glyph glyph-name="cent" unicode="&#xa2;" horiz-adv-x="419" 
d="M156 -157l38 145q-77 11 -126 70.5t-49 143.5q0 100 64 169t166 69q32 0 64 -8l46 172h10l-47 -175q37 -11 59.5 -33t22.5 -51q0 -23 -16.5 -40t-38.5 -17q-20 0 -34.5 12.5t-18.5 30.5l-73 -269q29 -12 54 -12q44 0 73 17.5t54 61.5l9 -3q-71 -140 -190 -140
q-13 0 -19 1l-38 -144h-10zM215 65l93 347q-22 18 -53 18q-56 0 -92.5 -53.5t-36.5 -138.5q0 -64 24 -109t65 -64z" />
    <glyph glyph-name="sterling" unicode="&#xa3;" horiz-adv-x="543" 
d="M167 295h-105l3 10h98q-15 43 -15 85q0 99 72.5 170.5t182.5 71.5q54 0 84 -21t30 -60q0 -21 -18 -38t-42 -17q-40 0 -52.5 38.5t9.5 65.5q-13 16 -45 16q-49 0 -83 -36t-34 -104q0 -26 10 -83t13 -88h126l3 -10h-128q0 -5 0.5 -17t0.5 -18q0 -66 -45 -145q8 -2 36.5 -11
t41.5 -12.5t35 -9.5t39.5 -8t34.5 -2q44 0 63.5 24.5t27.5 97.5h9q-3 -87 -44 -146t-104 -59q-35 0 -71 10.5t-57.5 22t-53.5 30.5q-54 -63 -111 -63q-33 0 -53 17t-20 45q0 36 30 60.5t84 24.5q38 0 91 -15q3 13 3 26q0 22 -6.5 44.5t-20.5 56.5t-19 47zM179 58
q-71 45 -106 45q-25 0 -41.5 -14.5t-16.5 -39.5q0 -24 17.5 -38t45.5 -14q54 0 101 61z" />
    <glyph glyph-name="currency" unicode="&#xa4;" horiz-adv-x="433" 
d="M370 213l-8 -8l-57 56q-38 -35 -89 -35t-89 35l-57 -56l-8 8l56 57q-34 37 -34 88.5t34 89.5l-56 57l8 8l57 -56q38 35 89.5 35t88.5 -35l57 56l8 -8l-56 -57q34 -38 34 -89.5t-34 -88.5zM131 274q35 -35 85 -35t85 35t35 85t-35 85t-85 35t-85 -35t-35 -85t35 -85z" />
    <glyph glyph-name="yen" unicode="&#xa5;" horiz-adv-x="615" 
d="M153 0l3 6l47 4q48 4 48 16v141h-185l3 10h182v120h-182l-3 10h179l-128 226q-30 50 -48 66t-50 18l-25 2l-4 6h303l-3 -6l-24 -1q-43 -2 -49 -19.5t19 -59.5l122 -224h2l68 132q37 72 45 105t-5.5 46t-57.5 18l-22 3l-4 6h228l-3 -6l-25 -3q-34 -4 -59 -28.5t-65 -101.5
q-93 -179 -94 -179h185l-3 -10h-183v-120h183l3 -10h-186v-144q0 -10 58 -14l37 -3l3 -6h-310z" />
    <glyph glyph-name="brokenbar" unicode="&#xa6;" horiz-adv-x="153" 
d="M72 292v335h9v-335h-9zM72 -154v335h9v-335h-9z" />
    <glyph glyph-name="section" unicode="&#xa7;" horiz-adv-x="392" 
d="M169 -43q-56 0 -89 18.5t-33 52.5q0 19 12.5 34t32.5 15q35 0 46 -31.5t-7 -59.5q20 -20 55 -20q36 0 59.5 25.5t23.5 52.5q0 19 -8 34t-30.5 31t-36 24t-50.5 28q-65 34 -102.5 69.5t-37.5 84.5q0 71 88 114q-31 32 -31 76q0 56 47.5 95.5t113.5 39.5q56 0 87.5 -18.5
t31.5 -52.5q0 -19 -14.5 -34t-34.5 -15q-34 0 -45.5 31.5t3.5 59.5q-18 20 -44 20q-36 0 -58.5 -25t-22.5 -53q0 -19 8 -34t29.5 -31t37 -24.5t50.5 -27.5q66 -34 102.5 -68t36.5 -83q0 -71 -88 -118q31 -32 31 -75q0 -55 -48.5 -95t-114.5 -40zM296 172q33 28 33 62
q0 35 -25 59.5t-81 53.5q-12 7 -36 20.5t-36 20.5t-27.5 17t-25.5 20q-34 -26 -34 -61t24.5 -59t80.5 -54q105 -58 127 -79z" />
    <glyph glyph-name="dieresis" unicode="&#xa8;" horiz-adv-x="381" 
d="M284 507q-26 0 -41 17.5t-15 37.5q0 21 15 39.5t41 18.5q27 0 42 -18.5t15 -39.5q0 -20 -15 -37.5t-42 -17.5zM97 507q-26 0 -41.5 17.5t-15.5 37.5q0 21 15.5 39.5t41.5 18.5q27 0 42 -18.5t15 -39.5q0 -20 -15 -37.5t-42 -17.5z" />
    <glyph glyph-name="copyright" unicode="&#xa9;" horiz-adv-x="704" 
d="M352 -14q-136 0 -231.5 95.5t-95.5 231.5t95.5 232t231.5 96t231.5 -96t95.5 -232t-95.5 -231.5t-231.5 -95.5zM352 -5q131 0 224 93.5t93 224.5t-93 225t-224 94t-224 -94t-93 -225t93 -224.5t224 -93.5zM363 115q-95 0 -155 54.5t-60 140.5q0 85 60.5 141.5t160.5 56.5
q59 0 99 -23l38 13l3 -119h-3l-60 100q-27 23 -78 23q-69 0 -107.5 -53.5t-38.5 -134.5q0 -85 42 -139t103 -54q48 0 78.5 23t55.5 70l18 30h3l-21 -103l-20 -4q-46 -22 -118 -22z" />
    <glyph glyph-name="ordfeminine" unicode="&#xaa;" horiz-adv-x="337" 
d="M93 284q-32 0 -54 21.5t-22 49.5q0 80 194 128v26q0 52 -23.5 77t-60.5 25q-15 0 -25.5 -4t-14.5 -8t-4 -8q0 -2 9 -18.5t9 -26.5q0 -15 -13 -27t-31 -12t-30.5 11.5t-12.5 27.5q0 32 59.5 60.5t114.5 28.5q110 0 106 -111l-6 -150q-1 -46 26 -46q19 0 35 22l4 -2
q-39 -64 -86 -64q-53 0 -60 71h-1q-54 -71 -113 -71zM149 331q24 0 57 33l5 110q-112 -28 -112 -88q0 -25 14 -40t36 -15z" />
    <glyph glyph-name="guillemotleft" unicode="&#xab;" horiz-adv-x="442" 
d="M426 43l-221 174v11l221 173l3 -3l-122 -176l122 -176zM230 53l-218 164v11l218 162l3 -3l-119 -165l119 -166z" />
    <glyph glyph-name="logicalnot" unicode="&#xac;" horiz-adv-x="433" 
d="M406 307v-170h-12v158h-387l3 12h396z" />
    <glyph glyph-name="uni00AD" unicode="&#xad;" horiz-adv-x="280" 
d="M18 214l3 40h241l-3 -40h-241z" />
    <glyph glyph-name="registered" unicode="&#xae;" horiz-adv-x="704" 
d="M352 -14q-136 0 -231.5 95.5t-95.5 231.5t95.5 232t231.5 96t231.5 -96t95.5 -232t-95.5 -231.5t-231.5 -95.5zM352 -5q131 0 224 93.5t93 224.5t-93 225t-224 94t-224 -94t-93 -225t93 -224.5t224 -93.5zM166 126l2 6l28 2q29 4 29 10v340q0 6 -35 9l-21 2l-2 6h167
q161 0 161 -99q0 -32 -26 -58t-67 -34l80 -122q19 -32 34 -42t41 -13l7 -1l2 -6h-126l-4 9l-105 176q-30 7 -39 11v-180q0 -6 35 -8l22 -2l2 -6h-185zM340 320q39 0 61.5 22.5t22.5 63.5q0 44 -27.5 66t-78.5 19l-26 -1v-159q29 -10 48 -11z" />
    <glyph glyph-name="macron" unicode="&#xaf;" horiz-adv-x="369" 
d="M53 521l11 34h252l-11 -34h-252z" />
    <glyph glyph-name="degree" unicode="&#xb0;" horiz-adv-x="284" 
d="M142 387q-55 0 -89.5 36.5t-34.5 89.5t34 90.5t90 37.5t90 -37.5t34 -90.5t-33.5 -89.5t-90.5 -36.5zM142 397q51 0 82.5 33t31.5 83q0 49 -31.5 83.5t-82.5 34.5q-50 0 -81 -34t-31 -84t30.5 -83t81.5 -33z" />
    <glyph glyph-name="plusminus" unicode="&#xb1;" horiz-adv-x="433" 
d="M211 84v167h-204l2 12h202v173h12v-173h201l2 -12h-203v-167h-12zM416 37h-399l2 12h395z" />
    <glyph glyph-name="twosuperior" unicode="&#xb2;" horiz-adv-x="289" 
d="M11 253l-2 13q54 53 76 75.5t49 56t35.5 58t8.5 52.5q0 41 -21.5 63t-52.5 22q-55 0 -86 -63l-5 1q44 109 131 109q44 0 73.5 -26.5t29.5 -69.5q0 -24 -8 -46t-30.5 -48.5t-37 -41t-55 -51t-55.5 -50.5v-1h161q16 0 48 77l3 6l3 -1l-30 -135h-235z" />
    <glyph glyph-name="threesuperior" unicode="&#xb3;" horiz-adv-x="262" 
d="M93 232q-38 0 -61 13.5t-23 35.5q0 15 9.5 24.5t25.5 9.5q22 0 34 -20.5t4 -47.5q18 -5 30 -5q33 0 55 26.5t22 63.5q0 46 -23 73t-66 27q-29 0 -54 -10l-2 4q10 5 30 16.5t27 15.5t20.5 12.5t18.5 14t11.5 13.5t8.5 16.5t2 18.5q0 29 -16 45t-45 16q-59 0 -82 -56l-5 1
q18 46 50 73.5t72 27.5t66.5 -22.5t26.5 -55.5q0 -32 -23.5 -51.5t-67.5 -37.5v-2q54 3 85.5 -26.5t31.5 -75.5q0 -55 -49 -96t-113 -41z" />
    <glyph glyph-name="acute" unicode="&#xb4;" horiz-adv-x="385" 
d="M143 491l98 187h105l-198 -187h-5z" />
    <glyph glyph-name="mu" unicode="&#xb5;" horiz-adv-x="497" 
d="M223 -253h-225l3 6l18 1q14 1 20 1.5t12 2t8 4t2 6.5v637q0 4 -2 5.5t-13.5 3.5t-36.5 4l-14 1l-3 6h169l-1 -315q0 -24 15.5 -38.5t32.5 -17.5t38 -3q62 0 90 24v303q0 24 -9 31t-41 9l-14 1l-3 6h166v-340q0 -23 4 -30t17 -11l43 -8l-1 -5l-161 -47l1 77h-2
q-19 -39 -39 -56.5t-51 -17.5q-47 0 -84 65h-2v-284q0 -8 8.5 -10t33.5 -4l18 -1z" />
    <glyph glyph-name="mu" unicode="&#x3bc;" horiz-adv-x="497" 
d="M223 -253h-225l3 6l18 1q14 1 20 1.5t12 2t8 4t2 6.5v637q0 4 -2 5.5t-13.5 3.5t-36.5 4l-14 1l-3 6h169l-1 -315q0 -24 15.5 -38.5t32.5 -17.5t38 -3q62 0 90 24v303q0 24 -9 31t-41 9l-14 1l-3 6h166v-340q0 -23 4 -30t17 -11l43 -8l-1 -5l-161 -47l1 77h-2
q-19 -39 -39 -56.5t-51 -17.5q-47 0 -84 65h-2v-284q0 -8 8.5 -10t33.5 -4l18 -1z" />
    <glyph glyph-name="paragraph" unicode="&#xb6;" horiz-adv-x="432" 
d="M371 -32v285q-42 -4 -94 -4q-115 0 -183.5 49.5t-68.5 139.5q0 187 260 187h96v-657h-10z" />
    <glyph glyph-name="periodcentered" unicode="&#xb7;" horiz-adv-x="209" 
d="M104 165q-27 0 -46 19t-19 45q0 25 19 43.5t46 18.5q26 0 44.5 -18.5t18.5 -43.5q0 -26 -18 -45t-45 -19z" />
    <glyph glyph-name="cedilla" unicode="&#xb8;" horiz-adv-x="379" 
d="M95 -268l-2 5q77 16 114 35.5t37 55.5q0 56 -84 56q-39 0 -71 -12v7l106 117h10l-56 -62q65 12 112 -10.5t47 -64.5q0 -26 -14 -46t-32.5 -32.5t-51.5 -23t-55.5 -15t-59.5 -10.5z" />
    <glyph glyph-name="onesuperior" unicode="&#xb9;" horiz-adv-x="226" 
d="M35 253l2 4h15q30 0 30 10v338l-60 8l2 3l129 19v-369q0 -9 35 -9h14l2 -4h-169z" />
    <glyph glyph-name="ordmasculine" unicode="&#xba;" horiz-adv-x="399" 
d="M198 280q-82 0 -134.5 51t-52.5 124q0 75 54 128t135 53t133.5 -51.5t52.5 -124.5q0 -76 -52.5 -128t-135.5 -52zM198 288q42 0 65.5 49t23.5 118q0 113 -35 150q-23 23 -52 23q-46 0 -69 -49t-23 -119q0 -113 37 -150q22 -22 53 -22z" />
    <glyph glyph-name="guillemotright" unicode="&#xbb;" horiz-adv-x="441" 
d="M213 53l-3 3l118 166l-118 165l3 3l218 -162v-11zM17 43l-3 3l122 176l-122 175l3 4l221 -173v-11z" />
    <glyph glyph-name="onequarter" unicode="&#xbc;" horiz-adv-x="636" 
d="M492 -123v98h-158l-1 5l196 284h30v-242h73l-14 -47h-59v-98h-67zM372 22h120v173h-1zM35 253l2 4h15q30 0 30 10v338l-60 8l2 3l129 19v-369q0 -9 35 -9h14l2 -4h-169zM16 -123l600 755h14l-600 -755h-14z" />
    <glyph glyph-name="onehalf" unicode="&#xbd;" horiz-adv-x="639" 
d="M361 -123l-2 13q54 53 76 75.5t49 56t35.5 58t8.5 52.5q0 41 -21.5 63t-52.5 22q-55 0 -86 -63l-5 1q44 109 131 109q44 0 73.5 -26.5t29.5 -69.5q0 -24 -8 -46t-30.5 -48.5t-37 -41t-55 -51t-55.5 -50.5v-1h161q16 0 48 77l3 6l3 -1l-30 -135h-235zM35 253l2 4h15
q30 0 30 10v338l-60 8l2 3l129 19v-369q0 -9 35 -9h14l2 -4h-169zM1 -123l600 755h14l-600 -755h-14z" />
    <glyph glyph-name="threequarters" unicode="&#xbe;" horiz-adv-x="631" 
d="M487 -123v98h-158l-1 5l196 284h30v-242h73l-14 -47h-59v-98h-67zM367 22h120v173h-1zM93 232q-38 0 -61 13.5t-23 35.5q0 15 9.5 24.5t25.5 9.5q22 0 34 -20.5t4 -47.5q18 -5 30 -5q33 0 55 26.5t22 63.5q0 46 -23 73t-66 27q-29 0 -54 -10l-2 4q10 5 30 16.5t27 15.5
t20.5 12.5t18.5 14t11.5 13.5t8.5 16.5t2 18.5q0 29 -16 45t-45 16q-59 0 -82 -56l-5 1q18 46 50 73.5t72 27.5t66.5 -22.5t26.5 -55.5q0 -32 -23.5 -51.5t-67.5 -37.5v-2q54 3 85.5 -26.5t31.5 -75.5q0 -55 -49 -96t-113 -41zM12 -123l600 755h14l-600 -755h-14z" />
    <glyph glyph-name="questiondown" unicode="&#xbf;" horiz-adv-x="310" 
d="M163 516q-26 0 -44.5 18t-18.5 42q0 26 18 44.5t45 18.5t45.5 -18.5t18.5 -44.5q0 -24 -18.5 -42t-45.5 -18zM218 -14q-86 0 -137.5 62t-51.5 140q0 51 16.5 75t66.5 47q31 12 40 16t25 13t20.5 17t4.5 19q0 20 -10.5 35t-34.5 36l8 3q31 -26 57.5 -61t26.5 -58
q0 -38 -23 -56.5t-85 -43.5q-58 -23 -78.5 -37.5t-20.5 -34.5q0 -34 37 -59t113 -25q43 0 78 11q16 -18 18 -52q2 -47 -70 -47z" />
    <glyph glyph-name="Agrave" unicode="&#xc0;" horiz-adv-x="640" 
d="M349 271h-168l-37 -104q-13 -40 -19 -58.5t-9.5 -40t-1 -28.5t12.5 -15.5t24.5 -11t40.5 -5.5l20 -2l3 -6h-223l3 6l17 2q34 4 51 18.5t35 53t56 142.5l111 311l-12 31q50 17 76 77h14l168 -507q26 -79 43 -101.5t52 -24.5l28 -2l3 -6h-299l3 6l29 2q37 2 43 25t-11 72z
M185 281h161l-75 236h-2zM345 658l-198 187h105l98 -187h-5z" />
    <glyph glyph-name="Aacute" unicode="&#xc1;" horiz-adv-x="640" 
d="M349 271h-168l-37 -104q-13 -40 -19 -58.5t-9.5 -40t-1 -28.5t12.5 -15.5t24.5 -11t40.5 -5.5l20 -2l3 -6h-223l3 6l17 2q34 4 51 18.5t35 53t56 142.5l111 311l-12 31q50 17 76 77h14l168 -507q26 -79 43 -101.5t52 -24.5l28 -2l3 -6h-299l3 6l29 2q37 2 43 25t-11 72z
M185 281h161l-75 236h-2zM276 658l98 187h105l-198 -187h-5z" />
    <glyph glyph-name="Acircumflex" unicode="&#xc2;" horiz-adv-x="640" 
d="M349 271h-168l-37 -104q-13 -40 -19 -58.5t-9.5 -40t-1 -28.5t12.5 -15.5t24.5 -11t40.5 -5.5l20 -2l3 -6h-223l3 6l17 2q34 4 51 18.5t35 53t56 142.5l111 311l-12 31q50 17 76 77h14l168 -507q26 -79 43 -101.5t52 -24.5l28 -2l3 -6h-299l3 6l29 2q37 2 43 25t-11 72z
M185 281h161l-75 236h-2zM180 647l145 197h4l145 -197h-6l-140 104h-2l-141 -104h-5z" />
    <glyph glyph-name="Atilde" unicode="&#xc3;" horiz-adv-x="640" 
d="M349 271h-168l-37 -104q-13 -40 -19 -58.5t-9.5 -40t-1 -28.5t12.5 -15.5t24.5 -11t40.5 -5.5l20 -2l3 -6h-223l3 6l17 2q34 4 51 18.5t35 53t56 142.5l111 311l-12 31q50 17 76 77h14l168 -507q26 -79 43 -101.5t52 -24.5l28 -2l3 -6h-299l3 6l29 2q37 2 43 25t-11 72z
M185 281h161l-75 236h-2zM401 664q-33 0 -98 31t-84 31q-10 0 -16 -1t-13 -6t-11 -16t-5 -30h-6q6 65 22 89.5t54 24.5q32 0 97 -31t83 -31q22 0 33 9.5t14 44.5h6q-6 -64 -22 -89.5t-54 -25.5z" />
    <glyph glyph-name="Adieresis" unicode="&#xc4;" horiz-adv-x="640" 
d="M349 271h-168l-37 -104q-13 -40 -19 -58.5t-9.5 -40t-1 -28.5t12.5 -15.5t24.5 -11t40.5 -5.5l20 -2l3 -6h-223l3 6l17 2q34 4 51 18.5t35 53t56 142.5l111 311l-12 31q50 17 76 77h14l168 -507q26 -79 43 -101.5t52 -24.5l28 -2l3 -6h-299l3 6l29 2q37 2 43 25t-11 72z
M185 281h161l-75 236h-2zM415 674q-26 0 -41 17.5t-15 37.5q0 21 15 39.5t41 18.5q27 0 42 -18.5t15 -39.5q0 -20 -15 -37.5t-42 -17.5zM228 674q-26 0 -41.5 17.5t-15.5 37.5q0 21 15.5 39.5t41.5 18.5q27 0 42 -18.5t15 -39.5q0 -20 -15 -37.5t-42 -17.5z" />
    <glyph glyph-name="Aring" unicode="&#xc5;" horiz-adv-x="640" 
d="M350 269h-169l-37 -102q-13 -40 -19 -58.5t-9.5 -40t-1 -28.5t12.5 -15.5t24.5 -11t40.5 -5.5l20 -2l3 -6h-223l3 6l17 2q34 4 51 18.5t35.5 53.5t55.5 142l142 397q-31 8 -48 31.5t-17 53.5q0 37 24.5 63t64.5 26t64.5 -26t24.5 -63q0 -30 -16 -52.5t-43 -31.5l161 -486
q26 -79 43 -101.5t52 -24.5l28 -2l3 -6h-299l3 6l29 2q37 2 43 25t-11 72zM320 622q36 0 57.5 23.5t21.5 57.5t-21.5 57.5t-57.5 23.5t-57.5 -23.5t-21.5 -57.5t21.5 -57.5t57.5 -23.5zM185 281h161l-75 236h-2z" />
    <glyph glyph-name="AE" unicode="&#xc6;" horiz-adv-x="862" 
d="M-54 0l3 6l37 4q29 3 61.5 38t83.5 127l222 394q15 23 5 33t-61 13l-39 2l-3 8h523l12 -199l-7 -1l-4 13q-11 35 -18.5 55t-19.5 43.5t-25 35.5t-31.5 23t-43.5 15t-57 4h-86v-288l35 1q72 4 101.5 21.5t45.5 67.5l6 16l7 -1l-24 -225l-7 1l-1 15q-4 55 -29 71.5
t-107 21.5l-27 2v-302l93 -5q92 1 142 48.5t85 135.5l5 13l7 -1l-32 -206h-513l3 6l50 4q48 4 48 16v242h-190l-58 -104q-30 -55 -38 -87t4.5 -48t46.5 -20l25 -3l3 -6h-233zM204 281h182v320h-2z" />
    <glyph glyph-name="Ccedilla" unicode="&#xc7;" horiz-adv-x="684" 
d="M381 -14q-157 1 -255.5 91t-98.5 233q0 144 100 237t267 93q92 0 167 -41l62 25l5 -199h-6l-98 171q-42 33 -132 33q-114 0 -178 -89t-64 -223q0 -142 69.5 -231t171.5 -89q80 0 130.5 37t93.5 114l29 52h6l-35 -168l-33 -7q-29 -13 -86 -25.5t-105 -13.5l-47 -52
q65 12 112 -10.5t47 -64.5q0 -26 -14 -46t-32.5 -32.5t-51.5 -23t-55.5 -15t-59.5 -10.5l-2 5q77 16 114 35.5t37 55.5q0 56 -84 56q-39 0 -71 -12v7z" />
    <glyph glyph-name="Egrave" unicode="&#xc8;" horiz-adv-x="601" 
d="M20 0l3 6l34 4q50 6 50 16v576q0 5 -10 7.5t-47 6.5l-26 3l-3 6h496l12 -199l-7 -1l-4 13q-31 97 -74 137.5t-135 39.5h-89v-289l44 1q74 4 106.5 22t48.5 67l6 16l7 -1l-24 -225l-7 1l-1 15q-4 55 -32 71.5t-112 21.5l-36 2v-302l110 -5q92 1 142 48.5t85 135.5l5 13
l7 -1l-32 -206h-517zM339 658l-198 187h105l98 -187h-5z" />
    <glyph glyph-name="Eacute" unicode="&#xc9;" horiz-adv-x="601" 
d="M20 0l3 6l34 4q50 6 50 16v576q0 5 -10 7.5t-47 6.5l-26 3l-3 6h496l12 -199l-7 -1l-4 13q-31 97 -74 137.5t-135 39.5h-89v-289l44 1q74 4 106.5 22t48.5 67l6 16l7 -1l-24 -225l-7 1l-1 15q-4 55 -32 71.5t-112 21.5l-36 2v-302l110 -5q92 1 142 48.5t85 135.5l5 13
l7 -1l-32 -206h-517zM260 658l98 187h105l-198 -187h-5z" />
    <glyph glyph-name="Ecircumflex" unicode="&#xca;" horiz-adv-x="601" 
d="M20 0l3 6l34 4q50 6 50 16v576q0 5 -10 7.5t-47 6.5l-26 3l-3 6h496l12 -199l-7 -1l-4 13q-31 97 -74 137.5t-135 39.5h-89v-289l44 1q74 4 106.5 22t48.5 67l6 16l7 -1l-24 -225l-7 1l-1 15q-4 55 -32 71.5t-112 21.5l-36 2v-302l110 -5q92 1 142 48.5t85 135.5l5 13
l7 -1l-32 -206h-517zM157 647l145 197h4l145 -197h-6l-140 104h-2l-141 -104h-5z" />
    <glyph glyph-name="Edieresis" unicode="&#xcb;" horiz-adv-x="601" 
d="M20 0l3 6l34 4q50 6 50 16v576q0 5 -10 7.5t-47 6.5l-26 3l-3 6h496l12 -199l-7 -1l-4 13q-31 97 -74 137.5t-135 39.5h-89v-289l44 1q74 4 106.5 22t48.5 67l6 16l7 -1l-24 -225l-7 1l-1 15q-4 55 -32 71.5t-112 21.5l-36 2v-302l110 -5q92 1 142 48.5t85 135.5l5 13
l7 -1l-32 -206h-517zM394 674q-26 0 -41 17.5t-15 37.5q0 21 15 39.5t41 18.5q27 0 42 -18.5t15 -39.5q0 -20 -15 -37.5t-42 -17.5zM207 674q-26 0 -41.5 17.5t-15.5 37.5q0 21 15.5 39.5t41.5 18.5q27 0 42 -18.5t15 -39.5q0 -20 -15 -37.5t-42 -17.5z" />
    <glyph glyph-name="Igrave" unicode="&#xcc;" horiz-adv-x="349" 
d="M28 0l3 6l40 4q48 4 48 16v576q0 5 -10 7.5t-48 6.5l-29 3l-3 6h292l-3 -6l-40 -4q-48 -4 -48 -16v-576q0 -5 10 -7.5t48 -6.5l29 -3l3 -6h-292zM214 658l-198 187h105l98 -187h-5z" />
    <glyph glyph-name="Iacute" unicode="&#xcd;" horiz-adv-x="349" 
d="M28 0l3 6l40 4q48 4 48 16v576q0 5 -10 7.5t-48 6.5l-29 3l-3 6h292l-3 -6l-40 -4q-48 -4 -48 -16v-576q0 -5 10 -7.5t48 -6.5l29 -3l3 -6h-292zM127 658l98 187h105l-198 -187h-5z" />
    <glyph glyph-name="Icircumflex" unicode="&#xce;" horiz-adv-x="349" 
d="M28 0l3 6l40 4q48 4 48 16v576q0 5 -10 7.5t-48 6.5l-29 3l-3 6h292l-3 -6l-40 -4q-48 -4 -48 -16v-576q0 -5 10 -7.5t48 -6.5l29 -3l3 -6h-292zM28 647l145 197h4l145 -197h-6l-140 104h-2l-141 -104h-5z" />
    <glyph glyph-name="Idieresis" unicode="&#xcf;" horiz-adv-x="349" 
d="M28 0l3 6l40 4q48 4 48 16v576q0 5 -10 7.5t-48 6.5l-29 3l-3 6h292l-3 -6l-40 -4q-48 -4 -48 -16v-576q0 -5 10 -7.5t48 -6.5l29 -3l3 -6h-292zM270 674q-26 0 -41 17.5t-15 37.5q0 21 15 39.5t41 18.5q27 0 42 -18.5t15 -39.5q0 -20 -15 -37.5t-42 -17.5zM83 674
q-26 0 -41.5 17.5t-15.5 37.5q0 21 15.5 39.5t41.5 18.5q27 0 42 -18.5t15 -39.5q0 -20 -15 -37.5t-42 -17.5z" />
    <glyph glyph-name="Eth" unicode="&#xd0;" horiz-adv-x="677" 
d="M107 308h-92l3 12h89v282q0 8 -57 14l-36 3l-3 6h22q14 0 51.5 0.5t70.5 0.5t67 0.5t54 0.5t19 0q175 2 266 -80.5t91 -224.5q0 -138 -102 -230t-279 -92h-261l3 6l47 4q47 5 47 16v282zM220 320h140l3 -12h-143v-277l67 -20q59 1 106.5 25t77 64t45 91.5t15.5 109.5
q0 140 -63.5 227t-192.5 87h-55v-295z" />
    <glyph glyph-name="Ntilde" unicode="&#xd1;" horiz-adv-x="687" 
d="M573 -5l-450 547h-1l1 -497q0 -30 86 -38l19 -1l3 -6h-215l3 6l20 1q35 3 53 15t18 28l3 503q-49 58 -100 65l-12 2l-3 6h205l370 -455l1 1l-1 407q0 31 -87 39l-18 1l-3 6h215l-3 -6l-20 -1q-35 -3 -53.5 -15t-18.5 -28l-3 -580h-9zM445 664q-33 0 -98 31t-84 31
q-10 0 -16 -1t-13 -6t-11 -16t-5 -30h-6q6 65 22 89.5t54 24.5q32 0 97 -31t83 -31q22 0 33 9.5t14 44.5h6q-6 -64 -22 -89.5t-54 -25.5z" />
    <glyph glyph-name="Ograve" unicode="&#xd2;" horiz-adv-x="735" 
d="M362 -13q-146 0 -240.5 90.5t-94.5 233.5q0 129 102.5 228.5t242.5 99.5q146 0 241 -91.5t95 -235.5q0 -129 -102 -227t-244 -98zM370 -2q102 0 158 82t56 235q0 142 -60 227.5t-159 85.5q-102 0 -158.5 -83t-56.5 -235q0 -143 60 -227.5t160 -84.5zM401 658l-198 187
h105l98 -187h-5z" />
    <glyph glyph-name="Oacute" unicode="&#xd3;" horiz-adv-x="735" 
d="M362 -13q-146 0 -240.5 90.5t-94.5 233.5q0 129 102.5 228.5t242.5 99.5q146 0 241 -91.5t95 -235.5q0 -129 -102 -227t-244 -98zM370 -2q102 0 158 82t56 235q0 142 -60 227.5t-159 85.5q-102 0 -158.5 -83t-56.5 -235q0 -143 60 -227.5t160 -84.5zM329 658l98 187h105
l-198 -187h-5z" />
    <glyph glyph-name="Ocircumflex" unicode="&#xd4;" horiz-adv-x="735" 
d="M362 -13q-146 0 -240.5 90.5t-94.5 233.5q0 129 102.5 228.5t242.5 99.5q146 0 241 -91.5t95 -235.5q0 -129 -102 -227t-244 -98zM370 -2q102 0 158 82t56 235q0 142 -60 227.5t-159 85.5q-102 0 -158.5 -83t-56.5 -235q0 -143 60 -227.5t160 -84.5zM223 647l145 197h4
l145 -197h-6l-140 104h-2l-141 -104h-5z" />
    <glyph glyph-name="Otilde" unicode="&#xd5;" horiz-adv-x="735" 
d="M362 -13q-146 0 -240.5 90.5t-94.5 233.5q0 129 102.5 228.5t242.5 99.5q146 0 241 -91.5t95 -235.5q0 -129 -102 -227t-244 -98zM370 -2q102 0 158 82t56 235q0 142 -60 227.5t-159 85.5q-102 0 -158.5 -83t-56.5 -235q0 -143 60 -227.5t160 -84.5zM453 664
q-33 0 -98 31t-84 31q-10 0 -16 -1t-13 -6t-11 -16t-5 -30h-6q6 65 22 89.5t54 24.5q32 0 97 -31t83 -31q22 0 33 9.5t14 44.5h6q-6 -64 -22 -89.5t-54 -25.5z" />
    <glyph glyph-name="Odieresis" unicode="&#xd6;" horiz-adv-x="735" 
d="M362 -13q-146 0 -240.5 90.5t-94.5 233.5q0 129 102.5 228.5t242.5 99.5q146 0 241 -91.5t95 -235.5q0 -129 -102 -227t-244 -98zM370 -2q102 0 158 82t56 235q0 142 -60 227.5t-159 85.5q-102 0 -158.5 -83t-56.5 -235q0 -143 60 -227.5t160 -84.5zM463 674
q-26 0 -41 17.5t-15 37.5q0 21 15 39.5t41 18.5q27 0 42 -18.5t15 -39.5q0 -20 -15 -37.5t-42 -17.5zM276 674q-26 0 -41.5 17.5t-15.5 37.5q0 21 15.5 39.5t41.5 18.5q27 0 42 -18.5t15 -39.5q0 -20 -15 -37.5t-42 -17.5z" />
    <glyph glyph-name="multiply" unicode="&#xd7;" horiz-adv-x="433" 
d="M390 56l-173 173l-173 -173l-8 8l173 173l-173 173l8 8l173 -173l173 173l8 -8l-173 -173l173 -173z" />
    <glyph glyph-name="Oslash" unicode="&#xd8;" horiz-adv-x="735" 
d="M542 598q78 -40 122 -115t44 -171q0 -129 -102 -227t-244 -98q-85 0 -154 32l-54 -92h-11l56 96q-80 40 -126 115.5t-46 172.5q0 129 102.5 228.5t242.5 99.5q87 0 161 -36l50 86h11q-52 -90 -52 -91zM223 66l286 495q-58 67 -144 67q-102 0 -158.5 -83t-56.5 -235
q0 -158 73 -244zM516 553l-286 -495q55 -60 140 -60q102 0 158 82t56 235q0 151 -68 238z" />
    <glyph glyph-name="Ugrave" unicode="&#xd9;" horiz-adv-x="691" 
d="M359 -15q-136 0 -196 53t-60 174v391q0 10 -57 14l-36 3l-3 6h306l-3 -6l-47 -4q-47 -4 -47 -16v-363q0 -108 45 -160t138 -52q90 0 139 57t49 170l-1 327q0 32 -88 39l-18 2l-3 6h215l-3 -6l-20 -2q-35 -3 -53 -15t-18 -28l-2 -325q-2 -130 -57 -197.5t-180 -67.5z
M399 658l-198 187h105l98 -187h-5z" />
    <glyph glyph-name="Uacute" unicode="&#xda;" horiz-adv-x="691" 
d="M359 -15q-136 0 -196 53t-60 174v391q0 10 -57 14l-36 3l-3 6h306l-3 -6l-47 -4q-47 -4 -47 -16v-363q0 -108 45 -160t138 -52q90 0 139 57t49 170l-1 327q0 32 -88 39l-18 2l-3 6h215l-3 -6l-20 -2q-35 -3 -53 -15t-18 -28l-2 -325q-2 -130 -57 -197.5t-180 -67.5z
M325 658l98 187h105l-198 -187h-5z" />
    <glyph glyph-name="Ucircumflex" unicode="&#xdb;" horiz-adv-x="691" 
d="M359 -15q-136 0 -196 53t-60 174v391q0 10 -57 14l-36 3l-3 6h306l-3 -6l-47 -4q-47 -4 -47 -16v-363q0 -108 45 -160t138 -52q90 0 139 57t49 170l-1 327q0 32 -88 39l-18 2l-3 6h215l-3 -6l-20 -2q-35 -3 -53 -15t-18 -28l-2 -325q-2 -130 -57 -197.5t-180 -67.5z
M220 647l145 197h4l145 -197h-6l-140 104h-2l-141 -104h-5z" />
    <glyph glyph-name="Udieresis" unicode="&#xdc;" horiz-adv-x="691" 
d="M359 -15q-136 0 -196 53t-60 174v391q0 10 -57 14l-36 3l-3 6h306l-3 -6l-47 -4q-47 -4 -47 -16v-363q0 -108 45 -160t138 -52q90 0 139 57t49 170l-1 327q0 32 -88 39l-18 2l-3 6h215l-3 -6l-20 -2q-35 -3 -53 -15t-18 -28l-2 -325q-2 -130 -57 -197.5t-180 -67.5z
M294 674q-26 0 -41.5 17.5t-15.5 37.5q0 21 15.5 39.5t41.5 18.5q27 0 42 -18.5t15 -39.5q0 -20 -15 -37.5t-42 -17.5zM481 674q-26 0 -41 17.5t-15 37.5q0 21 15 39.5t41 18.5q27 0 42 -18.5t15 -39.5q0 -20 -15 -37.5t-42 -17.5z" />
    <glyph glyph-name="Yacute" unicode="&#xdd;" horiz-adv-x="636" 
d="M165 0l3 6l46 4q48 4 48 16v257l-140 250q-29 49 -46 65t-49 19l-25 2l-3 6h296l-3 -6l-20 -1q-45 -4 -51.5 -20t15.5 -53l129 -233h2l81 152q26 49 36.5 73.5t9.5 43t-15.5 25t-46.5 10.5l-22 3l-3 6h221l-3 -6l-28 -3q-35 -4 -61 -31.5t-74 -118.5l-88 -164v-279
q0 -5 10 -7.5t48 -6.5l36 -3l3 -6h-306zM308 658l98 187h105l-198 -187h-5z" />
    <glyph glyph-name="Thorn" unicode="&#xde;" horiz-adv-x="574" 
d="M13 0l3 7l46 4q48 4 48 16v574q0 5 -10 7.5t-48 6.5l-35 3l-3 7h305l-3 -7l-46 -4q-48 -4 -48 -16v-104l76 -1q125 0 187 -41.5t62 -117.5q0 -77 -71.5 -128t-185.5 -51q-36 0 -68 6v-137q0 -11 58 -14l46 -3l3 -7h-316zM288 168q62 0 101 42.5t39 112.5q0 160 -152 160
l-54 -2v-305q32 -8 66 -8z" />
    <glyph glyph-name="germandbls" unicode="&#xdf;" horiz-adv-x="535" 
d="M336 417q71 -36 124.5 -104.5t53.5 -140.5t-50.5 -127t-118.5 -55q-47 0 -77.5 21.5t-30.5 54.5q0 26 16 42.5t41 16.5q41 0 50 -36q7 -32 -17 -52q-12 -9 -28 -9q3 -11 17 -20.5t35 -9.5q36 0 57.5 27.5t21.5 77.5q0 79 -50.5 158t-144.5 134v5q66 14 96.5 45.5
t30.5 94.5q0 47 -25.5 79t-62.5 32q-50 0 -71 -34.5t-21 -119.5v-496h-161l3 7l18 1q14 1 20 1.5t12 2t8 4.5t2 7v356l-79 1l21 44l57 -1l3 41q7 91 62.5 145t134.5 54q82 0 128.5 -35t46.5 -93q0 -48 -33.5 -77.5t-88.5 -41.5z" />
    <glyph glyph-name="agrave" unicode="&#xe0;" horiz-adv-x="431" 
d="M336 -10q-66 0 -75 79l-1 2q-74 -80 -132 -80q-43 0 -73 28t-30 66q0 54 52.5 92t188.5 70l1 33q2 67 -24.5 100.5t-75.5 33.5q-26 0 -47 -9.5t-21 -18.5q0 -1 14 -21t14 -36q0 -19 -15 -33.5t-38 -14.5t-37.5 12.5t-14.5 32.5q0 42 71.5 77.5t137.5 35.5q78 0 109 -34
t27 -122l-10 -189q-3 -54 36 -54q17 0 42 27l6 -3q-17 -21 -26.5 -32t-33 -26.5t-45.5 -15.5zM186 46q39 0 74 35l6 156q-83 -19 -113 -47t-30 -70q0 -32 18.5 -53t44.5 -21zM263 491l-198 187h105l98 -187h-5z" />
    <glyph glyph-name="aacute" unicode="&#xe1;" horiz-adv-x="431" 
d="M336 -10q-66 0 -75 79l-1 2q-74 -80 -132 -80q-43 0 -73 28t-30 66q0 54 52.5 92t188.5 70l1 33q2 67 -24.5 100.5t-75.5 33.5q-26 0 -47 -9.5t-21 -18.5q0 -1 14 -21t14 -36q0 -19 -15 -33.5t-38 -14.5t-37.5 12.5t-14.5 32.5q0 42 71.5 77.5t137.5 35.5q78 0 109 -34
t27 -122l-10 -189q-3 -54 36 -54q17 0 42 27l6 -3q-17 -21 -26.5 -32t-33 -26.5t-45.5 -15.5zM186 46q39 0 74 35l6 156q-83 -19 -113 -47t-30 -70q0 -32 18.5 -53t44.5 -21zM174 491l98 187h105l-198 -187h-5z" />
    <glyph glyph-name="acircumflex" unicode="&#xe2;" horiz-adv-x="431" 
d="M336 -10q-66 0 -75 79l-1 2q-74 -80 -132 -80q-43 0 -73 28t-30 66q0 54 52.5 92t188.5 70l1 33q2 67 -24.5 100.5t-75.5 33.5q-26 0 -47 -9.5t-21 -18.5q0 -1 14 -21t14 -36q0 -19 -15 -33.5t-38 -14.5t-37.5 12.5t-14.5 32.5q0 42 71.5 77.5t137.5 35.5q78 0 109 -34
t27 -122l-10 -189q-3 -54 36 -54q17 0 42 27l6 -3q-17 -21 -26.5 -32t-33 -26.5t-45.5 -15.5zM186 46q39 0 74 35l6 156q-83 -19 -113 -47t-30 -70q0 -32 18.5 -53t44.5 -21zM63 480l145 197h4l145 -197h-6l-140 104h-2l-141 -104h-5z" />
    <glyph glyph-name="atilde" unicode="&#xe3;" horiz-adv-x="431" 
d="M336 -10q-66 0 -75 79l-1 2q-74 -80 -132 -80q-43 0 -73 28t-30 66q0 54 52.5 92t188.5 70l1 33q2 67 -24.5 100.5t-75.5 33.5q-26 0 -47 -9.5t-21 -18.5q0 -1 14 -21t14 -36q0 -19 -15 -33.5t-38 -14.5t-37.5 12.5t-14.5 32.5q0 42 71.5 77.5t137.5 35.5q78 0 109 -34
t27 -122l-10 -189q-3 -54 36 -54q17 0 42 27l6 -3q-17 -21 -26.5 -32t-33 -26.5t-45.5 -15.5zM186 46q39 0 74 35l6 156q-83 -19 -113 -47t-30 -70q0 -32 18.5 -53t44.5 -21zM290 497q-33 0 -98 31t-84 31q-10 0 -16 -1t-13 -6t-11 -16t-5 -30h-6q6 65 22 89.5t54 24.5
q32 0 97 -31t83 -31q22 0 33 9.5t14 44.5h6q-6 -64 -22 -89.5t-54 -25.5z" />
    <glyph glyph-name="adieresis" unicode="&#xe4;" horiz-adv-x="431" 
d="M336 -10q-66 0 -75 79l-1 2q-74 -80 -132 -80q-43 0 -73 28t-30 66q0 54 52.5 92t188.5 70l1 33q2 67 -24.5 100.5t-75.5 33.5q-26 0 -47 -9.5t-21 -18.5q0 -1 14 -21t14 -36q0 -19 -15 -33.5t-38 -14.5t-37.5 12.5t-14.5 32.5q0 42 71.5 77.5t137.5 35.5q78 0 109 -34
t27 -122l-10 -189q-3 -54 36 -54q17 0 42 27l6 -3q-17 -21 -26.5 -32t-33 -26.5t-45.5 -15.5zM186 46q39 0 74 35l6 156q-83 -19 -113 -47t-30 -70q0 -32 18.5 -53t44.5 -21zM296 507q-26 0 -41 17.5t-15 37.5q0 21 15 39.5t41 18.5q27 0 42 -18.5t15 -39.5q0 -20 -15 -37.5
t-42 -17.5zM109 507q-26 0 -41.5 17.5t-15.5 37.5q0 21 15.5 39.5t41.5 18.5q27 0 42 -18.5t15 -39.5q0 -20 -15 -37.5t-42 -17.5z" />
    <glyph glyph-name="aring" unicode="&#xe5;" horiz-adv-x="431" 
d="M206 498q-40 0 -64.5 26t-24.5 64q0 37 24.5 63.5t64.5 26.5t64.5 -26.5t24.5 -63.5q0 -38 -24.5 -64t-64.5 -26zM336 -10q-66 0 -75 79l-1 2q-74 -80 -132 -80q-43 0 -73 28t-30 66q0 54 52.5 92t188.5 70l1 33q2 67 -24.5 100.5t-75.5 33.5q-26 0 -47 -9.5t-21 -18.5
q0 -1 14 -21t14 -36q0 -19 -15 -33.5t-38 -14.5t-37.5 12.5t-14.5 32.5q0 42 71.5 77.5t137.5 35.5q78 0 109 -34t27 -122l-10 -189q-3 -54 36 -54q17 0 42 27l6 -3q-17 -21 -26.5 -32t-33 -26.5t-45.5 -15.5zM206 507q36 0 57.5 23.5t21.5 57.5t-21.5 57.5t-57.5 23.5
t-57.5 -23.5t-21.5 -57.5t21.5 -57.5t57.5 -23.5zM186 46q39 0 74 35l6 156q-83 -19 -113 -47t-30 -70q0 -32 18.5 -53t44.5 -21z" />
    <glyph glyph-name="ae" unicode="&#xe6;" horiz-adv-x="676" 
d="M127 -12q-42 0 -72 28.5t-30 67.5q0 54 52 93t189 70l1 33q2 67 -24.5 100.5t-75.5 33.5q-26 0 -47 -9.5t-21 -18.5q0 -1 14 -21t14 -36q0 -19 -15 -33.5t-38 -14.5t-37.5 12.5t-14.5 32.5q0 43 71 78t143 35q77 0 103 -54q57 55 145 55q79 0 123 -39.5t44 -99.5
q0 -2 -2 -16q-262 2 -280 3q-2 -14 -2 -52q0 -83 43 -133.5t110 -50.5q45 0 76.5 17.5t56.5 60.5l6 -3q-70 -139 -195 -139q-60 0 -107 29.5t-69 77.5q-54 -57 -89.5 -82t-71.5 -25zM371 297l179 2q0 54 -18 92t-57 38q-37 0 -66.5 -38.5t-37.5 -93.5zM183 43q24 0 44.5 13
t54.5 49q-18 42 -18 109q0 15 1 22q-84 -21 -113 -49t-29 -71q0 -30 18.5 -51.5t41.5 -21.5z" />
    <glyph glyph-name="ccedilla" unicode="&#xe7;" horiz-adv-x="418" 
d="M235 -14h-12q-88 0 -146 61.5t-58 154.5q0 100 64 168.5t166 68.5q65 0 110 -26t45 -68q0 -23 -16.5 -40t-38.5 -17q-23 0 -39 16t-16 37q0 19 11 37.5t11 19.5q0 11 -19 21.5t-42 10.5q-56 0 -92.5 -53.5t-36.5 -138.5q0 -87 42 -137.5t109 -50.5q44 0 73 17.5t54 61.5
l8 -4q-64 -126 -166 -138l-48 -53q65 12 112 -10.5t47 -64.5q0 -26 -14 -46t-32.5 -32.5t-51.5 -23t-55.5 -15t-59.5 -10.5l-2 5q77 16 114 35.5t37 55.5q0 56 -84 56q-39 0 -71 -12v7z" />
    <glyph glyph-name="egrave" unicode="&#xe8;" horiz-adv-x="434" 
d="M224 -14q-89 0 -147 62t-58 155q0 100 63.5 168.5t160.5 68.5q79 0 122.5 -39.5t43.5 -99.5q0 -2 -2 -16q-265 2 -279 3q-3 -21 -3 -52q0 -83 43 -134.5t110 -51.5q45 0 76.5 18t56.5 61l7 -4q-73 -139 -194 -139zM129 297l179 2q0 54 -17.5 92t-56.5 38q-37 0 -67 -38.5
t-38 -93.5zM275 491l-198 187h105l98 -187h-5z" />
    <glyph glyph-name="eacute" unicode="&#xe9;" horiz-adv-x="434" 
d="M224 -14q-89 0 -147 62t-58 155q0 100 63.5 168.5t160.5 68.5q79 0 122.5 -39.5t43.5 -99.5q0 -2 -2 -16q-265 2 -279 3q-3 -21 -3 -52q0 -83 43 -134.5t110 -51.5q45 0 76.5 18t56.5 61l7 -4q-73 -139 -194 -139zM129 297l179 2q0 54 -17.5 92t-56.5 38q-37 0 -67 -38.5
t-38 -93.5zM191 491l98 187h105l-198 -187h-5z" />
    <glyph glyph-name="ecircumflex" unicode="&#xea;" horiz-adv-x="434" 
d="M224 -14q-89 0 -147 62t-58 155q0 100 63.5 168.5t160.5 68.5q79 0 122.5 -39.5t43.5 -99.5q0 -2 -2 -16q-265 2 -279 3q-3 -21 -3 -52q0 -83 43 -134.5t110 -51.5q45 0 76.5 18t56.5 61l7 -4q-73 -139 -194 -139zM129 297l179 2q0 54 -17.5 92t-56.5 38q-37 0 -67 -38.5
t-38 -93.5zM88 480l145 197h4l145 -197h-6l-140 104h-2l-141 -104h-5z" />
    <glyph glyph-name="edieresis" unicode="&#xeb;" horiz-adv-x="434" 
d="M224 -14q-89 0 -147 62t-58 155q0 100 63.5 168.5t160.5 68.5q79 0 122.5 -39.5t43.5 -99.5q0 -2 -2 -16q-265 2 -279 3q-3 -21 -3 -52q0 -83 43 -134.5t110 -51.5q45 0 76.5 18t56.5 61l7 -4q-73 -139 -194 -139zM129 297l179 2q0 54 -17.5 92t-56.5 38q-37 0 -67 -38.5
t-38 -93.5zM322 507q-26 0 -41 17.5t-15 37.5q0 21 15 39.5t41 18.5q27 0 42 -18.5t15 -39.5q0 -20 -15 -37.5t-42 -17.5zM135 507q-26 0 -41.5 17.5t-15.5 37.5q0 21 15.5 39.5t41.5 18.5q27 0 42 -18.5t15 -39.5q0 -20 -15 -37.5t-42 -17.5z" />
    <glyph glyph-name="igrave" unicode="&#xec;" horiz-adv-x="248" 
d="M15 0l3 6l16 1q14 1 20 1.5t12 2t8 4.5t2 7v284q0 45 -7.5 58.5t-33.5 19.5l-23 5l1 4l162 44v-417q0 -6 8 -8t42 -5l13 -1l3 -6h-226zM168 491l-198 187h105l98 -187h-5z" />
    <glyph glyph-name="iacute" unicode="&#xed;" horiz-adv-x="248" 
d="M15 0l3 6l16 1q14 1 20 1.5t12 2t8 4.5t2 7v284q0 45 -7.5 58.5t-33.5 19.5l-23 5l1 4l162 44v-417q0 -6 8 -8t42 -5l13 -1l3 -6h-226zM82 491l98 187h105l-198 -187h-5z" />
    <glyph glyph-name="icircumflex" unicode="&#xee;" horiz-adv-x="248" 
d="M-2 480l130 197h4l130 -197h-6l-125 103h-2l-125 -103h-6zM15 0l3 6l16 1q14 1 20 1.5t12 2t8 4.5t2 7v284q0 45 -7.5 58.5t-33.5 19.5l-23 5l1 4l162 44v-417q0 -6 8 -8t42 -5l13 -1l3 -6h-226z" />
    <glyph glyph-name="idieresis" unicode="&#xef;" horiz-adv-x="248" 
d="M15 0l3 6l16 1q14 1 20 1.5t12 2t8 4.5t2 7v284q0 45 -7.5 58.5t-33.5 19.5l-23 5l1 4l162 44v-417q0 -6 8 -8t42 -5l13 -1l3 -6h-226zM225 507q-26 0 -41 17.5t-15 37.5q0 21 15 39.5t41 18.5q27 0 42 -18.5t15 -39.5q0 -20 -15 -37.5t-42 -17.5zM38 507
q-26 0 -41.5 17.5t-15.5 37.5q0 21 15.5 39.5t41.5 18.5q27 0 42 -18.5t15 -39.5q0 -20 -15 -37.5t-42 -17.5z" />
    <glyph glyph-name="eth" unicode="&#xf0;" horiz-adv-x="494" 
d="M206 553l-130 -42l2 12l116 38q-63 39 -142 52l1 7q101 -9 183 -45l121 39l2 -12l-107 -34q107 -53 165 -142t58 -184q0 -112 -63.5 -183t-165.5 -71q-101 0 -164 63.5t-63 160.5q0 98 64.5 163.5t163.5 65.5q32 0 64 -5q-42 72 -105 117zM247 -4q55 0 85 54.5t30 157.5
t-31.5 164t-85.5 61q-53 0 -82.5 -56t-29.5 -153q0 -228 114 -228z" />
    <glyph glyph-name="ntilde" unicode="&#xf1;" horiz-adv-x="521" 
d="M15 0l3 6l16 1q14 1 20 1.5t12 2t8 4.5t2 7v283q0 46 -7.5 59.5t-33.5 19.5l-23 5l1 4l163 44l-3 -85l3 -1q32 27 49 40.5t53 30.5t68 17q48 0 78 -31q31 -30 31 -105v-282q0 -4 2.5 -5.5t14 -4t35.5 -4.5l12 -1l3 -6h-225l3 6l18 1q24 1 31 4.5t7 10.5v267q0 85 -85 85
q-55 0 -96 -36v-318q0 -6 8 -8.5t38 -4.5l15 -1l2 -6h-223zM346 497q-33 0 -98 31t-84 31q-10 0 -16 -1t-13 -6t-11 -16t-5 -30h-6q6 65 22 89.5t54 24.5q32 0 97 -31t83 -31q22 0 33 9.5t14 44.5h6q-6 -64 -22 -89.5t-54 -25.5z" />
    <glyph glyph-name="ograve" unicode="&#xf2;" horiz-adv-x="507" 
d="M253 -13q-103 0 -168.5 64.5t-65.5 160.5t67 161.5t169 65.5t167.5 -64t65.5 -160q0 -97 -66.5 -162.5t-168.5 -65.5zM254 -5q55 0 87.5 62t32.5 150q0 141 -53 194q-30 30 -68 30q-59 0 -89.5 -60.5t-30.5 -147.5q0 -147 51 -198q30 -30 70 -30zM286 491l-198 187h105
l98 -187h-5z" />
    <glyph glyph-name="oacute" unicode="&#xf3;" horiz-adv-x="507" 
d="M253 -13q-103 0 -168.5 64.5t-65.5 160.5t67 161.5t169 65.5t167.5 -64t65.5 -160q0 -97 -66.5 -162.5t-168.5 -65.5zM254 -5q55 0 87.5 62t32.5 150q0 141 -53 194q-30 30 -68 30q-59 0 -89.5 -60.5t-30.5 -147.5q0 -147 51 -198q30 -30 70 -30zM217 491l98 187h105
l-198 -187h-5z" />
    <glyph glyph-name="ocircumflex" unicode="&#xf4;" horiz-adv-x="507" 
d="M253 -13q-103 0 -168.5 64.5t-65.5 160.5t67 161.5t169 65.5t167.5 -64t65.5 -160q0 -97 -66.5 -162.5t-168.5 -65.5zM254 -5q55 0 87.5 62t32.5 150q0 141 -53 194q-30 30 -68 30q-59 0 -89.5 -60.5t-30.5 -147.5q0 -147 51 -198q30 -30 70 -30zM106 480l145 197h4
l145 -197h-6l-140 104h-2l-141 -104h-5z" />
    <glyph glyph-name="otilde" unicode="&#xf5;" horiz-adv-x="507" 
d="M253 -13q-103 0 -168.5 64.5t-65.5 160.5t67 161.5t169 65.5t167.5 -64t65.5 -160q0 -97 -66.5 -162.5t-168.5 -65.5zM254 -5q55 0 87.5 62t32.5 150q0 141 -53 194q-30 30 -68 30q-59 0 -89.5 -60.5t-30.5 -147.5q0 -147 51 -198q30 -30 70 -30zM333 497q-33 0 -98 31
t-84 31q-10 0 -16 -1t-13 -6t-11 -16t-5 -30h-6q6 65 22 89.5t54 24.5q32 0 97 -31t83 -31q22 0 33 9.5t14 44.5h6q-6 -64 -22 -89.5t-54 -25.5z" />
    <glyph glyph-name="odieresis" unicode="&#xf6;" horiz-adv-x="507" 
d="M253 -13q-103 0 -168.5 64.5t-65.5 160.5t67 161.5t169 65.5t167.5 -64t65.5 -160q0 -97 -66.5 -162.5t-168.5 -65.5zM254 -5q55 0 87.5 62t32.5 150q0 141 -53 194q-30 30 -68 30q-59 0 -89.5 -60.5t-30.5 -147.5q0 -147 51 -198q30 -30 70 -30zM347 507q-26 0 -41 17.5
t-15 37.5q0 21 15 39.5t41 18.5q27 0 42 -18.5t15 -39.5q0 -20 -15 -37.5t-42 -17.5zM160 507q-26 0 -41.5 17.5t-15.5 37.5q0 21 15.5 39.5t41.5 18.5q27 0 42 -18.5t15 -39.5q0 -20 -15 -37.5t-42 -17.5z" />
    <glyph glyph-name="divide" unicode="&#xf7;" horiz-adv-x="433" 
d="M264 378q0 -19 -14 -34t-34 -15t-34.5 15t-14.5 34q0 18 14 32t35 14q20 0 34 -14t14 -32zM416 231h-399l2 12h395zM264 95q0 -19 -14 -33.5t-34 -14.5q-21 0 -35 14.5t-14 33.5q0 18 14 32t35 14q20 0 34 -13.5t14 -32.5z" />
    <glyph glyph-name="oslash" unicode="&#xf8;" horiz-adv-x="507" 
d="M129 18q-51 30 -80.5 81t-29.5 113q0 96 67 161.5t169 65.5q56 0 105 -22l94 161h11l-96 -165q56 -29 87.5 -81.5t31.5 -116.5q0 -97 -66.5 -162.5t-168.5 -65.5q-65 0 -115 26l-82 -141h-11zM157 66l181 313q-8 13 -17 22q-30 30 -68 30q-59 0 -89.5 -60.5t-30.5 -147.5
q0 -100 24 -157zM344 369q-182 -313 -182 -314q8 -16 22 -30q30 -30 70 -30q55 0 87.5 62t32.5 150q0 102 -30 162z" />
    <glyph glyph-name="ugrave" unicode="&#xf9;" horiz-adv-x="497" 
d="M340 -16l1 90h-1q-94 -87 -169 -87q-45 0 -76 31q-33 31 -31 105l1 282q0 4 -2 5.5t-13.5 3.5t-36.5 4l-14 1l-3 6h168l-1 -290q-1 -44 20.5 -64t65.5 -20q51 0 90 34v293q0 24 -9 31t-41 9l-14 1l-3 6h166v-340q0 -23 4 -30t17 -11l43 -8l-1 -5zM285 491l-198 187h105
l98 -187h-5z" />
    <glyph glyph-name="uacute" unicode="&#xfa;" horiz-adv-x="497" 
d="M340 -16l1 90h-1q-94 -87 -169 -87q-45 0 -76 31q-33 31 -31 105l1 282q0 4 -2 5.5t-13.5 3.5t-36.5 4l-14 1l-3 6h168l-1 -290q-1 -44 20.5 -64t65.5 -20q51 0 90 34v293q0 24 -9 31t-41 9l-14 1l-3 6h166v-340q0 -23 4 -30t17 -11l43 -8l-1 -5zM206 491l98 187h105
l-198 -187h-5z" />
    <glyph glyph-name="ucircumflex" unicode="&#xfb;" horiz-adv-x="497" 
d="M340 -16l1 90h-1q-94 -87 -169 -87q-45 0 -76 31q-33 31 -31 105l1 282q0 4 -2 5.5t-13.5 3.5t-36.5 4l-14 1l-3 6h168l-1 -290q-1 -44 20.5 -64t65.5 -20q51 0 90 34v293q0 24 -9 31t-41 9l-14 1l-3 6h166v-340q0 -23 4 -30t17 -11l43 -8l-1 -5zM101 480l145 197h4
l145 -197h-6l-140 104h-2l-141 -104h-5z" />
    <glyph glyph-name="udieresis" unicode="&#xfc;" horiz-adv-x="497" 
d="M340 -16l1 90h-1q-94 -87 -169 -87q-45 0 -76 31q-33 31 -31 105l1 282q0 4 -2 5.5t-13.5 3.5t-36.5 4l-14 1l-3 6h168l-1 -290q-1 -44 20.5 -64t65.5 -20q51 0 90 34v293q0 24 -9 31t-41 9l-14 1l-3 6h166v-340q0 -23 4 -30t17 -11l43 -8l-1 -5zM165 507
q-26 0 -41.5 17.5t-15.5 37.5q0 21 15.5 39.5t41.5 18.5q27 0 42 -18.5t15 -39.5q0 -20 -15 -37.5t-42 -17.5zM352 507q-26 0 -41 17.5t-15 37.5q0 21 15 39.5t41 18.5q27 0 42 -18.5t15 -39.5q0 -20 -15 -37.5t-42 -17.5z" />
    <glyph glyph-name="yacute" unicode="&#xfd;" horiz-adv-x="470" 
d="M93 -256q-25 0 -44.5 15.5t-19.5 40.5q0 22 16 37.5t38 15.5q51 0 63 -52q18 4 30.5 24t27.5 62l35 105h-7l-163 366q-17 38 -26 48t-32 11l-18 1l-3 6h236l-3 -6l-17 -1q-29 -1 -35 -12t6 -37l107 -252l67 184q25 73 18 92.5t-59 24.5l-14 1l-3 6h175l-3 -6l-16 -1
q-33 -3 -46 -22t-44 -106l-107 -289l-40 -122q-22 -69 -49.5 -101.5t-69.5 -32.5zM205 466l93 178h99l-188 -178h-4z" />
    <glyph glyph-name="thorn" unicode="&#xfe;" horiz-adv-x="499" 
d="M-17 -253l3 7l18 1q14 1 20 1.5t12 2t8 4.5t2 7v799q0 26 -7.5 35.5t-33.5 16.5l-23 6l1 4l161 41v-325l2 -2q75 89 157 89q75 0 126 -59.5t51 -150.5q0 -77 -37.5 -133t-88.5 -80t-106 -24q-59 0 -102 19h-2v-239q0 -11 51 -12l34 -1l3 -7h-249zM264 -2q50 0 78.5 56.5
t28.5 140.5q0 77 -35 128.5t-93 51.5q-53 0 -99 -46v-231q18 -42 51.5 -71t68.5 -29z" />
    <glyph glyph-name="ydieresis" unicode="&#xff;" horiz-adv-x="470" 
d="M93 -256q-25 0 -44.5 15.5t-19.5 40.5q0 22 16 37.5t38 15.5q51 0 63 -52q18 4 30.5 24t27.5 62l35 105h-7l-163 366q-17 38 -26 48t-32 11l-18 1l-3 6h236l-3 -6l-17 -1q-29 -1 -35 -12t6 -37l107 -252l67 184q25 73 18 92.5t-59 24.5l-14 1l-3 6h175l-3 -6l-16 -1
q-33 -3 -46 -22t-44 -106l-107 -289l-40 -122q-22 -69 -49.5 -101.5t-69.5 -32.5zM335 507q-26 0 -41 17.5t-15 37.5q0 21 15 39.5t41 18.5q27 0 42 -18.5t15 -39.5q0 -20 -15 -37.5t-42 -17.5zM148 507q-26 0 -41.5 17.5t-15.5 37.5q0 21 15.5 39.5t41.5 18.5
q27 0 42 -18.5t15 -39.5q0 -20 -15 -37.5t-42 -17.5z" />
    <glyph glyph-name="Amacron" unicode="&#x100;" horiz-adv-x="641" 
d="M349 271h-168l-37 -104q-13 -40 -19 -58.5t-9.5 -40t-1 -28.5t12.5 -15.5t24.5 -11t40.5 -5.5l20 -2l3 -6h-223l3 6l17 2q34 4 51 18.5t35 53t56 142.5l111 311l-12 31q50 17 76 77h14l168 -507q26 -79 43 -101.5t52 -24.5l28 -2l3 -6h-299l3 6l29 2q37 2 43 25t-11 72z
M185 281h161l-75 236h-2zM182 721l11 34h252l-11 -34h-252z" />
    <glyph glyph-name="amacron" unicode="&#x101;" horiz-adv-x="432" 
d="M336 -10q-66 0 -75 79l-1 2q-74 -80 -132 -80q-43 0 -73 28t-30 66q0 54 52.5 92t188.5 70l1 33q2 67 -24.5 100.5t-75.5 33.5q-26 0 -47 -9.5t-21 -18.5q0 -1 14 -21t14 -36q0 -19 -15 -33.5t-38 -14.5t-37.5 12.5t-14.5 32.5q0 42 71.5 77.5t137.5 35.5q78 0 109 -34
t27 -122l-10 -189q-3 -54 36 -54q17 0 42 27l6 -3q-17 -21 -26.5 -32t-33 -26.5t-45.5 -15.5zM186 46q39 0 74 35l6 156q-83 -19 -113 -47t-30 -70q0 -32 18.5 -53t44.5 -21zM82 521l11 34h252l-11 -34h-252z" />
    <glyph glyph-name="Abreve" unicode="&#x102;" horiz-adv-x="641" 
d="M349 271h-168l-37 -104q-13 -40 -19 -58.5t-9.5 -40t-1 -28.5t12.5 -15.5t24.5 -11t40.5 -5.5l20 -2l3 -6h-223l3 6l17 2q34 4 51 18.5t35 53t56 142.5l111 311l-12 31q50 17 76 77h14l168 -507q26 -79 43 -101.5t52 -24.5l28 -2l3 -6h-299l3 6l29 2q37 2 43 25t-11 72z
M185 281h161l-75 236h-2zM307 686q-56 0 -84.5 47.5t-47.5 134.5h6q39 -116 128 -116t128 116h6q-18 -87 -47.5 -134.5t-88.5 -47.5z" />
    <glyph glyph-name="abreve" unicode="&#x103;" horiz-adv-x="432" 
d="M336 -10q-66 0 -75 79l-1 2q-74 -80 -132 -80q-43 0 -73 28t-30 66q0 54 52.5 92t188.5 70l1 33q2 67 -24.5 100.5t-75.5 33.5q-26 0 -47 -9.5t-21 -18.5q0 -1 14 -21t14 -36q0 -19 -15 -33.5t-38 -14.5t-37.5 12.5t-14.5 32.5q0 42 71.5 77.5t137.5 35.5q78 0 109 -34
t27 -122l-10 -189q-3 -54 36 -54q17 0 42 27l6 -3q-17 -21 -26.5 -32t-33 -26.5t-45.5 -15.5zM186 46q39 0 74 35l6 156q-83 -19 -113 -47t-30 -70q0 -32 18.5 -53t44.5 -21zM212 486q-56 0 -84.5 47.5t-47.5 134.5h6q39 -116 128 -116t128 116h6q-18 -87 -47.5 -134.5
t-88.5 -47.5z" />
    <glyph glyph-name="Aogonek" unicode="&#x104;" horiz-adv-x="641" 
d="M534 -240q-40 0 -67 24t-27 64q0 52 51.5 97.5t105.5 54.5h-259l3 6l29 2q37 2 43 25t-11 72l-53 166h-168l-37 -104q-13 -40 -19 -58.5t-9.5 -40t-1 -28.5t12.5 -15.5t24.5 -11t40.5 -5.5l20 -2l3 -6h-223l3 6l17 2q34 4 51 18.5t35 53t56 142.5l111 311l-12 31
q49 15 76 77h14l169 -507q26 -79 43 -101.5t52 -24.5l28 -2l2 -6q-139 -25 -139 -126q0 -69 75 -69q32 0 61 31l3 -4q-12 -25 -40.5 -48.5t-62.5 -23.5zM185 281h161l-75 236h-2z" />
    <glyph glyph-name="aogonek" unicode="&#x105;" horiz-adv-x="421" 
d="M324 -243q-40 0 -65.5 26.5t-25.5 64.5q0 82 99 142q-65 0 -74 76v1q-68 -76 -126 -76q-43 0 -74 28t-31 68q0 52 50.5 90.5t186.5 67.5l1 24q3 142 -101 142q-23 0 -46.5 -9.5t-23.5 -16.5q0 -1 13 -21.5t13 -36.5q0 -18 -14 -31.5t-36 -13.5t-36.5 12t-14.5 30
q0 40 71.5 76.5t136.5 36.5q78 0 107.5 -34t24.5 -130l-10 -178q-3 -57 36 -57q14 0 40 24l5 -3q-31 -44 -61 -60q-81 -46 -81 -125q0 -35 20.5 -54.5t55.5 -19.5q29 0 53 24l4 -4q-9 -19 -39 -41t-58 -22zM181 43q43 0 77 35l6 157q-84 -17 -115 -46t-31 -71
q0 -31 20.5 -53t42.5 -22z" />
    <glyph glyph-name="Cacute" unicode="&#x106;" horiz-adv-x="684" 
d="M319 691l98 187h105l-198 -187h-5zM385 -14q-159 0 -258.5 90.5t-99.5 233.5q0 144 100 237t267 93q92 0 167 -41l62 25l5 -199h-6l-98 171q-42 33 -132 33q-114 0 -178 -89t-64 -223q0 -142 69.5 -231t171.5 -89q80 0 130.5 37t93.5 114l29 52h6l-35 -168l-33 -7
q-31 -14 -89.5 -26.5t-107.5 -12.5z" />
    <glyph glyph-name="cacute" unicode="&#x107;" horiz-adv-x="418" 
d="M181 491l98 187h105l-198 -187h-5zM223 -14q-88 0 -146 61.5t-58 154.5q0 100 64 168.5t166 68.5q65 0 110 -26t45 -68q0 -23 -16.5 -40t-38.5 -17q-23 0 -39 16t-16 37q0 19 11 37.5t11 19.5q0 11 -19 21.5t-42 10.5q-56 0 -92.5 -53.5t-36.5 -138.5q0 -87 42 -137.5
t109 -50.5q44 0 73 17.5t54 61.5l8 -4q-71 -139 -189 -139z" />
    <glyph glyph-name="Ccircumflex" unicode="&#x108;" horiz-adv-x="684" 
d="M231 680l145 197h4l145 -197h-6l-140 104h-2l-141 -104h-5zM385 -14q-159 0 -258.5 90.5t-99.5 233.5q0 144 100 237t267 93q92 0 167 -41l62 25l5 -199h-6l-98 171q-42 33 -132 33q-114 0 -178 -89t-64 -223q0 -142 69.5 -231t171.5 -89q80 0 130.5 37t93.5 114l29 52h6
l-35 -168l-33 -7q-31 -14 -89.5 -26.5t-107.5 -12.5z" />
    <glyph glyph-name="ccircumflex" unicode="&#x109;" horiz-adv-x="418" 
d="M90 480l145 197h4l145 -197h-6l-140 104h-2l-141 -104h-5zM223 -14q-88 0 -146 61.5t-58 154.5q0 100 64 168.5t166 68.5q65 0 110 -26t45 -68q0 -23 -16.5 -40t-38.5 -17q-23 0 -39 16t-16 37q0 19 11 37.5t11 19.5q0 11 -19 21.5t-42 10.5q-56 0 -92.5 -53.5
t-36.5 -138.5q0 -87 42 -137.5t109 -50.5q44 0 73 17.5t54 61.5l8 -4q-71 -139 -189 -139z" />
    <glyph glyph-name="Cdotaccent" unicode="&#x10a;" horiz-adv-x="684" 
d="M385 -14q-159 0 -258.5 90.5t-99.5 233.5q0 144 100 237t267 93q92 0 167 -41l62 25l5 -199h-6l-98 171q-42 33 -132 33q-114 0 -178 -89t-64 -223q0 -142 69.5 -231t171.5 -89q80 0 130.5 37t93.5 114l29 52h6l-35 -168l-33 -7q-31 -14 -89.5 -26.5t-107.5 -12.5z
M385 721q-28 0 -44 19t-16 40q0 23 16 42.5t44 19.5t44 -19.5t16 -42.5q0 -22 -16 -40.5t-44 -18.5z" />
    <glyph glyph-name="cdotaccent" unicode="&#x10b;" horiz-adv-x="418" 
d="M223 -14q-88 0 -146 61.5t-58 154.5q0 100 64 168.5t166 68.5q65 0 110 -26t45 -68q0 -23 -16.5 -40t-38.5 -17q-23 0 -39 16t-16 37q0 19 11 37.5t11 19.5q0 11 -19 21.5t-42 10.5q-56 0 -92.5 -53.5t-36.5 -138.5q0 -87 42 -137.5t109 -50.5q44 0 73 17.5t54 61.5l8 -4
q-71 -139 -189 -139zM236 521q-28 0 -44 19t-16 40q0 23 16 42.5t44 19.5t44 -19.5t16 -42.5q0 -22 -16 -40.5t-44 -18.5z" />
    <glyph glyph-name="Ccaron" unicode="&#x10c;" horiz-adv-x="684" 
d="M379 680l-145 197h5l141 -104h2l141 104h5l-145 -197h-4zM385 -14q-159 0 -258.5 90.5t-99.5 233.5q0 144 100 237t267 93q92 0 167 -41l62 25l5 -199h-6l-98 171q-42 33 -132 33q-114 0 -178 -89t-64 -223q0 -142 69.5 -231t171.5 -89q80 0 130.5 37t93.5 114l29 52h6
l-35 -168l-33 -7q-31 -14 -89.5 -26.5t-107.5 -12.5z" />
    <glyph glyph-name="ccaron" unicode="&#x10d;" horiz-adv-x="418" 
d="M234 480l-145 197h5l141 -104h2l141 104h5l-145 -197h-4zM223 -14q-88 0 -146 61.5t-58 154.5q0 100 64 168.5t166 68.5q65 0 110 -26t45 -68q0 -23 -16.5 -40t-38.5 -17q-23 0 -39 16t-16 37q0 19 11 37.5t11 19.5q0 11 -19 21.5t-42 10.5q-56 0 -92.5 -53.5
t-36.5 -138.5q0 -87 42 -137.5t109 -50.5q44 0 73 17.5t54 61.5l8 -4q-71 -139 -189 -139z" />
    <glyph glyph-name="Dcaron" unicode="&#x10e;" horiz-adv-x="677" 
d="M289 680l-145 197h5l141 -104h2l141 104h5l-145 -197h-4zM20 0l3 6l37 4q47 5 47 16v576q0 5 -10 7.5t-47 6.5l-26 3l-3 6h21q14 0 50 0.5t68 0.5t65 0.5t52 0.5t18 0q175 2 266 -80.5t91 -224.5q0 -138 -102 -230t-279 -92h-251zM287 11q59 1 106.5 25t77 64t45 91.5
t15.5 109.5q0 140 -63.5 227t-192.5 87h-55v-584z" />
    <glyph glyph-name="dcaron" unicode="&#x10f;" horiz-adv-x="700" 
d="M355 -16v92l-2 2q-73 -91 -157 -91q-75 0 -126 59.5t-51 150.5q0 77 37.5 133t88.5 80t106 24q64 0 102 -19h2v155q0 27 -8 38t-32 15l-33 6l1 4l170 41v-603q0 -23 4 -30t18 -11l42 -9l-1 -4zM257 46q55 0 98 48v231q-17 42 -50.5 69.5t-66.5 27.5q-52 0 -81 -56
t-29 -141q0 -76 35 -127.5t94 -51.5zM534 426l-4 4q39 20 61.5 49.5t22.5 62.5q0 19 -9 33t-21.5 20.5t-25 9.5t-21.5 5l-9 1q0 23 17 43t47 20q39 0 62.5 -26.5t23.5 -65.5q0 -47 -38 -89.5t-106 -66.5z" />
    <glyph glyph-name="Dcroat" unicode="&#x110;" horiz-adv-x="677" 
d="M107 308h-92l3 12h89v282q0 8 -57 14l-36 3l-3 6h22q14 0 51.5 0.5t70.5 0.5t67 0.5t54 0.5t19 0q175 2 266 -80.5t91 -224.5q0 -138 -102 -230t-279 -92h-261l3 6l47 4q47 5 47 16v282zM220 320h140l3 -12h-143v-277l67 -20q59 1 106.5 25t77 64t45 91.5t15.5 109.5
q0 140 -63.5 227t-192.5 87h-55v-295z" />
    <glyph glyph-name="dcroat" unicode="&#x111;" horiz-adv-x="511" 
d="M255 521l11 34h89v15q0 27 -8 38t-32 15l-33 6l1 4l170 41v-119h65l-11 -34h-54v-450q0 -23 4 -30t18 -11l42 -9l-1 -4l-161 -33v92l-2 2q-73 -91 -157 -91q-75 0 -126 59.5t-51 150.5q0 77 37.5 133t88.5 80t106 24q64 0 102 -19h2v106h-100zM257 46q55 0 98 48v231
q-17 42 -50.5 69.5t-66.5 27.5q-52 0 -81 -56t-29 -141q0 -76 35 -127.5t94 -51.5z" />
    <glyph glyph-name="Emacron" unicode="&#x112;" horiz-adv-x="601" 
d="M20 0l3 6l34 4q50 6 50 16v576q0 5 -10 7.5t-47 6.5l-26 3l-3 6h496l12 -199l-7 -1l-4 13q-31 97 -74 137.5t-135 39.5h-89v-289l44 1q74 4 106.5 22t48.5 67l6 16l7 -1l-24 -225l-7 1l-1 15q-4 55 -32 71.5t-112 21.5l-36 2v-302l110 -5q92 1 142 48.5t85 135.5l5 13
l7 -1l-32 -206h-517zM163 721l11 34h252l-11 -34h-252z" />
    <glyph glyph-name="emacron" unicode="&#x113;" horiz-adv-x="434" 
d="M224 -14q-89 0 -147 62t-58 155q0 100 63.5 168.5t160.5 68.5q79 0 122.5 -39.5t43.5 -99.5q0 -2 -2 -16q-265 2 -279 3q-3 -21 -3 -52q0 -83 43 -134.5t110 -51.5q45 0 76.5 18t56.5 61l7 -4q-73 -139 -194 -139zM129 297l179 2q0 54 -17.5 92t-56.5 38q-37 0 -67 -38.5
t-38 -93.5zM108 521l11 34h252l-11 -34h-252z" />
    <glyph glyph-name="Ebreve" unicode="&#x114;" horiz-adv-x="601" 
d="M20 0l3 6l34 4q50 6 50 16v576q0 5 -10 7.5t-47 6.5l-26 3l-3 6h496l12 -199l-7 -1l-4 13q-31 97 -74 137.5t-135 39.5h-89v-289l44 1q74 4 106.5 22t48.5 67l6 16l7 -1l-24 -225l-7 1l-1 15q-4 55 -32 71.5t-112 21.5l-36 2v-302l110 -5q92 1 142 48.5t85 135.5l5 13
l7 -1l-32 -206h-517zM291 686q-56 0 -84.5 47.5t-47.5 134.5h6q39 -116 128 -116t128 116h6q-18 -87 -47.5 -134.5t-88.5 -47.5z" />
    <glyph glyph-name="ebreve" unicode="&#x115;" horiz-adv-x="434" 
d="M224 -14q-89 0 -147 62t-58 155q0 100 63.5 168.5t160.5 68.5q79 0 122.5 -39.5t43.5 -99.5q0 -2 -2 -16q-265 2 -279 3q-3 -21 -3 -52q0 -83 43 -134.5t110 -51.5q45 0 76.5 18t56.5 61l7 -4q-73 -139 -194 -139zM129 297l179 2q0 54 -17.5 92t-56.5 38q-37 0 -67 -38.5
t-38 -93.5zM234 486q-56 0 -84.5 47.5t-47.5 134.5h6q39 -116 128 -116t128 116h6q-18 -87 -47.5 -134.5t-88.5 -47.5z" />
    <glyph glyph-name="Edotaccent" unicode="&#x116;" horiz-adv-x="601" 
d="M20 0l3 6l34 4q50 6 50 16v576q0 5 -10 7.5t-47 6.5l-26 3l-3 6h496l12 -199l-7 -1l-4 13q-31 97 -74 137.5t-135 39.5h-89v-289l44 1q74 4 106.5 22t48.5 67l6 16l7 -1l-24 -225l-7 1l-1 15q-4 55 -32 71.5t-112 21.5l-36 2v-302l110 -5q92 1 142 48.5t85 135.5l5 13
l7 -1l-32 -206h-517zM298 721q-28 0 -44 19t-16 40q0 23 16 42.5t44 19.5t44 -19.5t16 -42.5q0 -22 -16 -40.5t-44 -18.5z" />
    <glyph glyph-name="edotaccent" unicode="&#x117;" horiz-adv-x="434" 
d="M224 -14q-89 0 -147 62t-58 155q0 100 63.5 168.5t160.5 68.5q79 0 122.5 -39.5t43.5 -99.5q0 -2 -2 -16q-265 2 -279 3q-3 -21 -3 -52q0 -83 43 -134.5t110 -51.5q45 0 76.5 18t56.5 61l7 -4q-73 -139 -194 -139zM129 297l179 2q0 54 -17.5 92t-56.5 38q-37 0 -67 -38.5
t-38 -93.5zM237 521q-28 0 -44 19t-16 40q0 23 16 42.5t44 19.5t44 -19.5t16 -42.5q0 -22 -16 -40.5t-44 -18.5z" />
    <glyph glyph-name="Eogonek" unicode="&#x118;" horiz-adv-x="601" 
d="M434 -240q-40 0 -66 26t-26 65q0 87 122 149h-444l3 6l34 4q50 6 50 16v576q0 5 -10 7.5t-47 6.5l-26 3l-3 6h496l12 -199l-6 -1l-5 13q-30 96 -73.5 137t-135.5 40h-89v-289l44 1q74 4 106.5 22t48.5 67l6 16l7 -1l-24 -226l-7 1l-1 16q-4 55 -32 71.5t-112 21.5l-36 2
v-302l110 -5q92 1 142.5 48.5t84.5 135.5l6 13l6 -1l-32 -206h-55q-82 -49 -82 -122q0 -35 19 -54t54 -19q32 0 61 31l3 -4q-12 -25 -40.5 -48.5t-62.5 -23.5z" />
    <glyph glyph-name="eogonek" unicode="&#x119;" horiz-adv-x="434" 
d="M246 -240q-39 0 -65.5 26t-26.5 65q0 79 107 138q-15 -3 -37 -3q-89 0 -147 62t-58 155q0 100 63.5 168.5t160.5 68.5q79 0 123 -39.5t44 -99.5q0 -2 -2 -16q-265 2 -280 3q-2 -14 -2 -52q0 -83 43 -134.5t110 -51.5q45 0 76 18t56 61l7 -4q-25 -48 -52 -77t-66 -48
q-41 -20 -64 -53.5t-23 -68.5t19 -54t53 -19q32 0 61 31l4 -4q-13 -26 -41.5 -49t-62.5 -23zM130 297l178 2q0 54 -17.5 92t-56.5 38q-37 0 -66.5 -38.5t-37.5 -93.5z" />
    <glyph glyph-name="Ecaron" unicode="&#x11a;" horiz-adv-x="601" 
d="M291 680l-145 197h5l141 -104h2l141 104h5l-145 -197h-4zM20 0l3 6l34 4q50 6 50 16v576q0 5 -10 7.5t-47 6.5l-26 3l-3 6h496l12 -199l-7 -1l-4 13q-31 97 -74 137.5t-135 39.5h-89v-289l44 1q74 4 106.5 22t48.5 67l6 16l7 -1l-24 -225l-7 1l-1 15q-4 55 -32 71.5
t-112 21.5l-36 2v-302l110 -5q92 1 142 48.5t85 135.5l5 13l7 -1l-32 -206h-517z" />
    <glyph glyph-name="ecaron" unicode="&#x11b;" horiz-adv-x="434" 
d="M237 480l-145 197h5l141 -104h2l141 104h5l-145 -197h-4zM224 -14q-89 0 -147 62t-58 155q0 100 63.5 168.5t160.5 68.5q79 0 122.5 -39.5t43.5 -99.5q0 -2 -2 -16q-265 2 -279 3q-3 -21 -3 -52q0 -83 43 -134.5t110 -51.5q45 0 76.5 18t56.5 61l7 -4q-73 -139 -194 -139
zM129 297l179 2q0 54 -17.5 92t-56.5 38q-37 0 -67 -38.5t-38 -93.5z" />
    <glyph glyph-name="Gcircumflex" unicode="&#x11c;" horiz-adv-x="709" 
d="M228 680l145 197h4l145 -197h-6l-140 104h-2l-141 -104h-5zM377 -15q-156 0 -253 90.5t-97 234.5t99 237t267 93q47 0 95.5 -11.5t73.5 -26.5l58 22l4 -199h-6l-93 170q-44 34 -134 34q-114 0 -177.5 -89t-63.5 -223q0 -145 70.5 -233t167.5 -88q75 0 119 34v219
q0 10 -64 14l-37 3l-3 6h299l-3 -6l-39 -4q-45 -4 -45 -15v-199l52 7l1 -4q-63 -26 -146.5 -46t-144.5 -20z" />
    <glyph glyph-name="gcircumflex" unicode="&#x11d;" horiz-adv-x="465" 
d="M74 480l145 197h4l145 -197h-6l-140 104h-2l-141 -104h-5zM180 -242q-83 0 -126.5 26.5t-43.5 75.5q0 38 37 68t87 48v1q-50 4 -82.5 27.5t-32.5 55.5q0 38 34.5 65.5t80.5 37.5v2q-40 14 -65.5 47t-25.5 77q0 63 50.5 106t123.5 43q62 0 117 -37l127 23l-10 -51l-98 14
l-1 -2q40 -37 40 -88q0 -61 -51.5 -103t-126.5 -42q-31 0 -64 7q-58 -12 -58 -51q0 -22 20 -30.5t63 -8.5q13 0 56.5 1.5t62.5 1.5q71 0 109.5 -30.5t38.5 -86.5q0 -84 -73 -140.5t-189 -56.5zM217 160q36 0 58 34t22 93q0 142 -81 142q-35 0 -54.5 -35t-19.5 -97
q0 -65 19.5 -101t55.5 -36zM234 -223q64 0 106 35t42 85q0 79 -131 83q-45 2 -104 -6q-26 -10 -43 -35t-17 -55q0 -47 41 -77t106 -30z" />
    <glyph glyph-name="Gbreve" unicode="&#x11e;" horiz-adv-x="709" 
d="M377 -15q-156 0 -253 90.5t-97 234.5t99 237t267 93q47 0 95.5 -11.5t73.5 -26.5l58 22l4 -199h-6l-93 170q-44 34 -134 34q-114 0 -177.5 -89t-63.5 -223q0 -145 70.5 -233t167.5 -88q75 0 119 34v219q0 10 -64 14l-37 3l-3 6h299l-3 -6l-39 -4q-45 -4 -45 -15v-199
l52 7l1 -4q-63 -26 -146.5 -46t-144.5 -20zM375 686q-56 0 -84.5 47.5t-47.5 134.5h6q39 -116 128 -116t128 116h6q-18 -87 -47.5 -134.5t-88.5 -47.5z" />
    <glyph glyph-name="gbreve" unicode="&#x11f;" horiz-adv-x="465" 
d="M180 -242q-83 0 -126.5 26.5t-43.5 75.5q0 38 37 68t87 48v1q-50 4 -82.5 27.5t-32.5 55.5q0 38 34.5 65.5t80.5 37.5v2q-40 14 -65.5 47t-25.5 77q0 63 50.5 106t123.5 43q62 0 117 -37l127 23l-10 -51l-98 14l-1 -2q40 -37 40 -88q0 -61 -51.5 -103t-126.5 -42
q-31 0 -64 7q-58 -12 -58 -51q0 -22 20 -30.5t63 -8.5q13 0 56.5 1.5t62.5 1.5q71 0 109.5 -30.5t38.5 -86.5q0 -84 -73 -140.5t-189 -56.5zM217 160q36 0 58 34t22 93q0 142 -81 142q-35 0 -54.5 -35t-19.5 -97q0 -65 19.5 -101t55.5 -36zM234 -223q64 0 106 35t42 85
q0 79 -131 83q-45 2 -104 -6q-26 -10 -43 -35t-17 -55q0 -47 41 -77t106 -30zM210 486q-56 0 -84.5 47.5t-47.5 134.5h6q39 -116 128 -116t128 116h6q-18 -87 -47.5 -134.5t-88.5 -47.5z" />
    <glyph glyph-name="Gdotaccent" unicode="&#x120;" horiz-adv-x="709" 
d="M377 -15q-156 0 -253 90.5t-97 234.5t99 237t267 93q47 0 95.5 -11.5t73.5 -26.5l58 22l4 -199h-6l-93 170q-44 34 -134 34q-114 0 -177.5 -89t-63.5 -223q0 -145 70.5 -233t167.5 -88q75 0 119 34v219q0 10 -64 14l-37 3l-3 6h299l-3 -6l-39 -4q-45 -4 -45 -15v-199
l52 7l1 -4q-63 -26 -146.5 -46t-144.5 -20zM379 721q-28 0 -44 19t-16 40q0 23 16 42.5t44 19.5t44 -19.5t16 -42.5q0 -22 -16 -40.5t-44 -18.5z" />
    <glyph glyph-name="gdotaccent" unicode="&#x121;" horiz-adv-x="465" 
d="M180 -242q-83 0 -126.5 26.5t-43.5 75.5q0 38 37 68t87 48v1q-50 4 -82.5 27.5t-32.5 55.5q0 38 34.5 65.5t80.5 37.5v2q-40 14 -65.5 47t-25.5 77q0 63 50.5 106t123.5 43q62 0 117 -37l127 23l-10 -51l-98 14l-1 -2q40 -37 40 -88q0 -61 -51.5 -103t-126.5 -42
q-31 0 -64 7q-58 -12 -58 -51q0 -22 20 -30.5t63 -8.5q13 0 56.5 1.5t62.5 1.5q71 0 109.5 -30.5t38.5 -86.5q0 -84 -73 -140.5t-189 -56.5zM217 160q36 0 58 34t22 93q0 142 -81 142q-35 0 -54.5 -35t-19.5 -97q0 -65 19.5 -101t55.5 -36zM234 -223q64 0 106 35t42 85
q0 79 -131 83q-45 2 -104 -6q-26 -10 -43 -35t-17 -55q0 -47 41 -77t106 -30zM220 521q-28 0 -44 19t-16 40q0 23 16 42.5t44 19.5t44 -19.5t16 -42.5q0 -22 -16 -40.5t-44 -18.5z" />
    <glyph glyph-name="Gcommaaccent" unicode="&#x122;" horiz-adv-x="709" 
d="M319 -278l-2 4q38 9 60 34t22 55q0 35 -29 49t-55 -4q-11 26 6 52t56 26q38 0 61 -22.5t23 -59.5q0 -42 -41.5 -83t-100.5 -51zM377 -15q-156 0 -253 90.5t-97 234.5t99 237t267 93q47 0 95.5 -11.5t73.5 -26.5l58 22l4 -199h-6l-93 170q-44 34 -134 34
q-114 0 -177.5 -89t-63.5 -223q0 -145 70.5 -233t167.5 -88q75 0 119 34v219q0 10 -64 14l-37 3l-3 6h299l-3 -6l-39 -4q-45 -4 -45 -15v-199l52 7l1 -4q-63 -26 -146.5 -46t-144.5 -20z" />
    <glyph glyph-name="gcommaaccent" unicode="&#x123;" horiz-adv-x="465" 
d="M290 702l2 -4q-38 -9 -60 -34t-22 -55q0 -35 29 -49t55 4q11 -26 -6 -52t-56 -26q-38 0 -61 22.5t-23 59.5q0 42 41.5 83t100.5 51zM180 -242q-83 0 -126.5 26.5t-43.5 75.5q0 38 37 68t87 48v1q-50 4 -82.5 27.5t-32.5 55.5q0 38 34.5 65.5t80.5 37.5v2q-40 14 -65.5 47
t-25.5 77q0 63 50.5 106t123.5 43q62 0 117 -37l127 23l-10 -51l-98 14l-1 -2q40 -37 40 -88q0 -61 -51.5 -103t-126.5 -42q-31 0 -64 7q-58 -12 -58 -51q0 -22 20 -30.5t63 -8.5q13 0 56.5 1.5t62.5 1.5q71 0 109.5 -30.5t38.5 -86.5q0 -84 -73 -140.5t-189 -56.5zM217 160
q36 0 58 34t22 93q0 142 -81 142q-35 0 -54.5 -35t-19.5 -97q0 -65 19.5 -101t55.5 -36zM234 -223q64 0 106 35t42 85q0 79 -131 83q-45 2 -104 -6q-26 -10 -43 -35t-17 -55q0 -47 41 -77t106 -30z" />
    <glyph glyph-name="Hcircumflex" unicode="&#x124;" horiz-adv-x="741" 
d="M223 680l145 197h4l145 -197h-6l-140 104h-2l-141 -104h-5zM20 0l3 6l37 4q47 6 47 16v576q0 5 -10 7.5t-47 6.5l-26 3l-3 6h288l-3 -6l-39 -4q-48 -5 -48 -16v-276h303v279q0 5 -10 7.5t-48 6.5l-28 3l-3 6h288l-3 -6l-37 -4q-47 -6 -47 -16v-576q0 -5 10 -7.5t47 -6.5
l26 -3l3 -6h-288l3 6l39 4q48 5 48 16v287h-303v-290q0 -5 10 -7.5t48 -6.5l28 -3l3 -6h-288z" />
    <glyph glyph-name="hcircumflex" unicode="&#x125;" horiz-adv-x="511" 
d="M6 0l3 6l15 1q14 1 20 1.5t12 2t8 4.5t2 7v547q0 26 -7.5 35.5t-32.5 16.5l-23 6l1 4l161 41v-319l2 -2q22 19 27.5 23.5t28.5 21.5t36.5 23t35 13t41.5 7q47 0 78 -31q32 -32 32 -104v-283q0 -4 2 -5.5t13.5 -4t35.5 -4.5l12 -1l3 -6h-225l3 6l18 1q39 2 39 15v268
q0 84 -85 84q-56 0 -97 -36v-318q0 -6 8 -8.5t40 -4.5l14 -1l3 -6h-224zM-36 680l145 197h4l145 -197h-6l-140 104h-2l-141 -104h-5z" />
    <glyph glyph-name="Hbar" unicode="&#x126;" horiz-adv-x="741" 
d="M20 445l10 31h77v126q0 5 -10 7.5t-47 6.5l-26 3l-3 6h288l-3 -6l-39 -4q-47 -6 -47 -16v-123h302v126q0 5 -10 7.5t-48 6.5l-28 3l-3 6h288l-3 -6l-37 -4q-47 -6 -47 -16v-123h93l-10 -31h-83v-422q0 -5 10 -7.5t47 -6.5l26 -3l3 -6h-288l3 6l39 4q48 5 48 16v287h-302
v-290q0 -5 10 -7.5t47 -6.5l28 -3l3 -6h-288l3 6l37 4q47 6 47 16v419h-87zM220 323h302v122h-302v-122z" />
    <glyph glyph-name="hbar" unicode="&#x127;" horiz-adv-x="511" 
d="M4 521l11 34h51v14q0 26 -7.5 35.5t-32.5 16.5l-23 6l1 4l161 41v-117h102l-11 -34h-91v-168l2 -2q22 19 27.5 23.5t28.5 21.5t36.5 23t35 13t41.5 7q47 0 78 -31q32 -32 32 -104v-283q0 -4 2 -5.5t13.5 -4t35.5 -4.5l12 -1l3 -6h-225l3 6l18 1q39 2 39 15v268
q0 84 -85 84q-56 0 -97 -36v-318q0 -6 8 -8.5t40 -4.5l14 -1l3 -6h-224l3 6l15 1q14 1 20 1.5t12 2t8 4.5t2 7v499h-62z" />
    <glyph glyph-name="Imacron" unicode="&#x12a;" horiz-adv-x="349" 
d="M28 0l3 6l40 4q48 4 48 16v576q0 5 -10 7.5t-48 6.5l-29 3l-3 6h292l-3 -6l-40 -4q-48 -4 -48 -16v-576q0 -5 10 -7.5t48 -6.5l29 -3l3 -6h-292zM44 721l11 34h252l-11 -34h-252z" />
    <glyph glyph-name="imacron" unicode="&#x12b;" horiz-adv-x="248" 
d="M15 0l3 6l16 1q14 1 20 1.5t12 2t8 4.5t2 7v284q0 45 -7.5 58.5t-33.5 19.5l-23 5l1 4l162 44v-417q0 -6 8 -8t42 -5l13 -1l3 -6h-226zM-10 521l11 34h252l-11 -34h-252z" />
    <glyph glyph-name="Ibreve" unicode="&#x12c;" horiz-adv-x="349" 
d="M28 0l3 6l40 4q48 4 48 16v576q0 5 -10 7.5t-48 6.5l-29 3l-3 6h292l-3 -6l-40 -4q-48 -4 -48 -16v-576q0 -5 10 -7.5t48 -6.5l29 -3l3 -6h-292zM180 686q-56 0 -84.5 47.5t-47.5 134.5h6q39 -116 128 -116t128 116h6q-18 -87 -47.5 -134.5t-88.5 -47.5z" />
    <glyph glyph-name="ibreve" unicode="&#x12d;" horiz-adv-x="248" 
d="M15 0l3 6l16 1q14 1 20 1.5t12 2t8 4.5t2 7v284q0 45 -7.5 58.5t-33.5 19.5l-23 5l1 4l162 44v-417q0 -6 8 -8t42 -5l13 -1l3 -6h-226zM121 486q-56 0 -84.5 47.5t-47.5 134.5h6q39 -116 128 -116t128 116h6q-18 -87 -47.5 -134.5t-88.5 -47.5z" />
    <glyph glyph-name="Iogonek" unicode="&#x12e;" horiz-adv-x="349" 
d="M217 -240q-41 0 -68 23.5t-27 64.5q0 52 50 96t110 56h-254l3 6l40 4q48 4 48 16v576q0 5 -10 7.5t-48 6.5l-29 3l-3 6h292l-3 -6l-39 -4q-48 -4 -48 -16v-576q0 -5 10 -7.5t48 -6.5l28 -3l3 -6q-68 -16 -104 -49t-36 -77q0 -69 76 -69q32 0 61 31l3 -4
q-12 -25 -40.5 -48.5t-62.5 -23.5z" />
    <glyph glyph-name="iogonek" unicode="&#x12f;" horiz-adv-x="248" 
d="M138 -240q-42 0 -68.5 21.5t-26.5 63.5q0 55 44 97.5t109 57.5h-181l3 6l16 1q14 1 20 1.5t12 2t8 4.5t2 7v284q0 45 -7.5 58.5t-33.5 19.5l-23 5l1 4l162 44v-417q0 -6 8 -8t43 -5l12 -1l3 -6q-139 -31 -139 -128q0 -67 75 -67q32 0 61 31l3 -4q-12 -25 -40.5 -48.5
t-62.5 -23.5zM118 513q-30 0 -47 19.5t-17 42.5q0 24 17 44t47 20t47 -20t17 -44q0 -22 -17 -42t-47 -20z" />
    <glyph glyph-name="Idotaccent" unicode="&#x130;" horiz-adv-x="349" 
d="M28 0l3 6l40 4q48 4 48 16v576q0 5 -10 7.5t-48 6.5l-29 3l-3 6h292l-3 -6l-40 -4q-48 -4 -48 -16v-576q0 -5 10 -7.5t48 -6.5l29 -3l3 -6h-292zM178 721q-28 0 -44 19t-16 40q0 23 16 42.5t44 19.5t44 -19.5t16 -42.5q0 -22 -16 -40.5t-44 -18.5z" />
    <glyph glyph-name="dotlessi" unicode="&#x131;" horiz-adv-x="248" 
d="M15 0l3 6l16 1q14 1 20 1.5t12 2t8 4.5t2 7v284q0 45 -7.5 58.5t-33.5 19.5l-23 5l1 4l162 44v-417q0 -6 8 -8t42 -5l13 -1l3 -6h-226z" />
    <glyph glyph-name="Jcircumflex" unicode="&#x134;" horiz-adv-x="334" 
d="M24 680l145 197h4l145 -197h-6l-140 104h-2l-141 -104h-5zM8 -170q-38 0 -62.5 19t-24.5 48q0 25 18 43t46 18q45 0 58 -41.5t-21 -71.5q43 -4 66 47.5t23 144.5v565q0 10 -57 14l-29 3l-3 6h291l-3 -6l-39 -4q-48 -5 -48 -16v-572q0 -27 -32.5 -73.5t-85 -85
t-97.5 -38.5z" />
    <glyph glyph-name="jcircumflex" unicode="&#x135;" horiz-adv-x="238" 
d="M-17 -251q-36 0 -56.5 16.5t-20.5 41.5q0 22 15.5 37t37.5 15q30 0 48 -26t16 -59q50 8 50 148v384q0 45 -7.5 58.5t-33.5 19.5l-23 5l1 4l162 44v-466q0 -71 -63 -146.5t-126 -75.5zM-31 480l145 197h4l145 -197h-6l-140 104h-2l-141 -104h-5z" />
    <glyph glyph-name="Kcommaaccent" unicode="&#x136;" horiz-adv-x="685" 
d="M290 -278l-2 4q38 9 60 34t22 55q0 35 -29 49t-55 -4q-11 26 6 52t56 26q38 0 61 -22.5t23 -59.5q0 -42 -41.5 -83t-100.5 -51zM20 0l3 6l40 4q44 5 44 16v576q0 3 -1 4.5t-7 3t-16 3t-30 3.5l-29 3l-3 6h296l-3 -6l-47 -4q-48 -4 -48 -16v-326l153 156q119 121 122 155
q3 19 -26 27q-13 3 -37 5l-35 3l-2 6h259l-3 -6l-17 -2q-12 -1 -22 -3t-18.5 -4t-18.5 -7.5t-17 -9t-19 -14.5t-20.5 -18t-26 -24.5t-29.5 -30t-37 -38.5t-44 -45l-5 -6l192 -320q35 -59 50.5 -73t47.5 -16l20 -2l3 -6h-287l2 6l24 2q20 2 28.5 7t8 18.5t-10.5 35t-32 59.5
l-123 211l-80 -80v-236q0 -5 10 -7.5t48 -6.5l36 -3l3 -6h-296z" />
    <glyph glyph-name="kcommaaccent" unicode="&#x137;" horiz-adv-x="493" 
d="M181 -278l-2 4q38 9 60 34t22 55q0 35 -29 49t-55 -4q-11 26 6 52t56 26q38 0 61 -22.5t23 -59.5q0 -42 -41.5 -83t-100.5 -51zM7 0l3 6l15 1q2 0 7 1q31 3 33 10q1 2 1 4v547q0 26 -7.5 35.5t-32.5 16.5l-23 6l1 4l161 41v-473l87 83q81 76 81 105q0 26 -59 31l-13 1
l-3 6h208l-3 -6l-18 -2q-34 -4 -60.5 -24t-94.5 -88q-17 -15 -17 -16l123 -210q27 -45 40.5 -57.5t41.5 -14.5l12 -1l3 -6h-169l-6 14l-117 206l-36 -33v-167q0 -6 8.5 -8.5t41.5 -4.5l15 -1l2 -6h-225z" />
    <glyph glyph-name="Lacute" unicode="&#x139;" horiz-adv-x="566" 
d="M126 691l98 187h105l-198 -187h-5zM20 0l3 6l40 4q44 5 44 16v576q0 3 -1 4.5t-7 3t-16 3t-30 3.5l-29 3l-3 6h306l-3 -6l-57 -4q-48 -4 -48 -16v-585l86 -5q88 0 131 44.5t91 154.5l6 13h6l-32 -221h-487z" />
    <glyph glyph-name="lacute" unicode="&#x13a;" horiz-adv-x="242" 
d="M49 686l98 187h105l-198 -187h-5zM12 0l3 6l16 1q25 2 32.5 4t7.5 11v522q0 44 -7.5 57t-33.5 20l-22 6l1 4l161 41v-652q0 -6 8.5 -8.5t39.5 -4.5l13 -1l3 -6h-222z" />
    <glyph glyph-name="Lcommaaccent" unicode="&#x13b;" horiz-adv-x="566" 
d="M221 -278l-2 4q38 9 60 34t22 55q0 35 -29 49t-55 -4q-11 26 6 52t56 26q38 0 61 -22.5t23 -59.5q0 -42 -41.5 -83t-100.5 -51zM20 0l3 6l40 4q44 5 44 16v576q0 3 -1 4.5t-7 3t-16 3t-30 3.5l-29 3l-3 6h306l-3 -6l-57 -4q-48 -4 -48 -16v-585l86 -5q88 0 131 44.5
t91 154.5l6 13h6l-32 -221h-487z" />
    <glyph glyph-name="lcommaaccent" unicode="&#x13c;" horiz-adv-x="242" 
d="M56 -278l-2 4q38 9 60 34t22 55q0 35 -29 49t-55 -4q-11 26 6 52t56 26q38 0 61 -22.5t23 -59.5q0 -42 -41.5 -83t-100.5 -51zM12 0l3 6l16 1q25 2 32.5 4t7.5 11v522q0 44 -7.5 57t-33.5 20l-22 6l1 4l161 41v-652q0 -6 8.5 -8.5t39.5 -4.5l13 -1l3 -6h-222z" />
    <glyph glyph-name="Lcaron" unicode="&#x13d;" horiz-adv-x="661" 
d="M506 386l-4 4q39 20 61.5 49.5t22.5 62.5q0 19 -9 33t-21.5 20.5t-25 9.5t-21.5 5l-9 1q0 23 17 43t47 20q39 0 62.5 -26.5t23.5 -65.5q0 -47 -38 -89.5t-106 -66.5zM20 0l3 6l40 4q44 5 44 16v576q0 3 -1 4.5t-7 3t-16 3t-30 3.5l-29 3l-3 6h306l-3 -6l-57 -4
q-48 -4 -48 -16v-585l86 -5q88 0 131 44.5t91 154.5l6 13h6l-32 -221h-487z" />
    <glyph glyph-name="lcaron" unicode="&#x13e;" horiz-adv-x="416" 
d="M250 427l-4 4q39 20 61.5 49.5t22.5 62.5q0 19 -9 33t-21.5 20.5t-25 9.5t-21.5 4l-9 2q0 23 17 43t47 20q39 0 62.5 -26.5t23.5 -65.5q0 -47 -38 -89.5t-106 -66.5zM12 0l3 6l16 1q25 2 32.5 4t7.5 11v522q0 44 -7.5 57t-33.5 20l-22 6l1 4l161 41v-652q0 -6 8.5 -8.5
t39.5 -4.5l13 -1l3 -6h-222z" />
    <glyph glyph-name="Ldot" unicode="&#x13f;" horiz-adv-x="643" 
d="M20 0l3 6l40 4q44 5 44 16v576q0 3 -1 4.5t-7 3t-16 3t-30 3.5l-29 3l-3 6h306l-3 -6l-57 -4q-48 -4 -48 -16v-585l86 -5q88 0 131 44.5t91 154.5l6 13h6l-32 -221h-487zM647 249q-27 0 -46 18.5t-19 45.5q0 25 19 43.5t46 18.5q26 0 44.5 -18.5t18.5 -43.5
q0 -27 -18 -45.5t-45 -18.5z" />
    <glyph glyph-name="ldotaccent" unicode="&#x140;" horiz-adv-x="412" 
d="M12 0l3 6l16 1q25 2 32.5 4t7.5 11v522q0 44 -7.5 57t-33.5 20l-22 6l1 4l161 41v-652q0 -6 8.5 -8.5t39.5 -4.5l13 -1l3 -6h-222zM337 219q-27 0 -46 18.5t-19 45.5q0 25 19 43.5t46 18.5q26 0 44.5 -18.5t18.5 -43.5q0 -27 -18 -45.5t-45 -18.5z" />
    <glyph glyph-name="Lslash" unicode="&#x141;" horiz-adv-x="568" 
d="M108 283l-100 -32l2 12l98 32v306q0 5 -10 7.5t-47 6.5l-35 3l-3 7h315l-3 -7l-57 -4q-47 -5 -47 -16v-267l101 33l2 -12l-103 -33v-305l86 -5q37 0 66 9.5t49 23t39.5 42.5t32.5 53.5t33 70.5l6 13h8l-32 -221h-497l3 7l46 4q47 4 47 16v256z" />
    <glyph glyph-name="lslash" unicode="&#x142;" horiz-adv-x="242" 
d="M71 259l-70 -22l2 11l68 22v273q0 45 -7.5 58t-33.5 20l-22 6l1 4l161 42v-371l69 23l2 -11l-71 -23v-270q0 -6 7 -7.5t43 -5.5l12 -1l3 -7h-223l3 7l14 1q14 1 20 1.5t12 2t8 4.5t2 7v236z" />
    <glyph glyph-name="Nacute" unicode="&#x143;" horiz-adv-x="687" 
d="M330 691l98 187h105l-198 -187h-5zM573 -5l-450 547h-1l1 -497q0 -30 86 -38l19 -1l3 -6h-215l3 6l20 1q35 3 53 15t18 28l3 503q-49 58 -100 65l-12 2l-3 6h205l370 -455l1 1l-1 407q0 31 -87 39l-18 1l-3 6h215l-3 -6l-20 -1q-35 -3 -53.5 -15t-18.5 -28l-3 -580h-9z
" />
    <glyph glyph-name="nacute" unicode="&#x144;" horiz-adv-x="521" 
d="M204 491l98 187h105l-198 -187h-5zM15 0l3 6l16 1q14 1 20 1.5t12 2t8 4.5t2 7v283q0 46 -7.5 59.5t-33.5 19.5l-23 5l1 4l163 44l-3 -85l3 -1q32 27 49 40.5t53 30.5t68 17q48 0 78 -31q31 -30 31 -105v-282q0 -4 2.5 -5.5t14 -4t35.5 -4.5l12 -1l3 -6h-225l3 6l18 1
q24 1 31 4.5t7 10.5v267q0 85 -85 85q-55 0 -96 -36v-318q0 -6 8 -8.5t38 -4.5l15 -1l2 -6h-223z" />
    <glyph glyph-name="Ncommaaccent" unicode="&#x145;" horiz-adv-x="687" 
d="M265 -278l-2 4q38 9 60 34t22 55q0 35 -29 49t-55 -4q-11 26 6 52t56 26q38 0 61 -22.5t23 -59.5q0 -42 -41.5 -83t-100.5 -51zM573 -5l-450 547h-1l1 -497q0 -30 86 -38l19 -1l3 -6h-215l3 6l20 1q35 3 53 15t18 28l3 503q-49 58 -100 65l-12 2l-3 6h205l370 -455l1 1
l-1 407q0 31 -87 39l-18 1l-3 6h215l-3 -6l-20 -1q-35 -3 -53.5 -15t-18.5 -28l-3 -580h-9z" />
    <glyph glyph-name="ncommaaccent" unicode="&#x146;" horiz-adv-x="521" 
d="M15 0l3 6l16 1q14 1 20 1.5t12 2t8 4.5t2 7v283q0 46 -7.5 59.5t-33.5 19.5l-23 5l1 4l163 44l-3 -85l3 -1q32 27 49 40.5t53 30.5t68 17q48 0 78 -31q31 -30 31 -105v-282q0 -4 2.5 -5.5t14 -4t35.5 -4.5l12 -1l3 -6h-225l3 6l18 1q24 1 31 4.5t7 10.5v267q0 85 -85 85
q-55 0 -96 -36v-318q0 -6 8 -8.5t38 -4.5l15 -1l2 -6h-223zM200 -278l-2 4q38 9 60 34t22 55q0 35 -29 49t-55 -4q-11 26 6 52t56 26q38 0 61 -22.5t23 -59.5q0 -42 -41.5 -83t-100.5 -51z" />
    <glyph glyph-name="Ncaron" unicode="&#x147;" horiz-adv-x="687" 
d="M364 680l-145 197h5l141 -104h2l141 104h5l-145 -197h-4zM573 -5l-450 547h-1l1 -497q0 -30 86 -38l19 -1l3 -6h-215l3 6l20 1q35 3 53 15t18 28l3 503q-49 58 -100 65l-12 2l-3 6h205l370 -455l1 1l-1 407q0 31 -87 39l-18 1l-3 6h215l-3 -6l-20 -1q-35 -3 -53.5 -15
t-18.5 -28l-3 -580h-9z" />
    <glyph glyph-name="ncaron" unicode="&#x148;" horiz-adv-x="521" 
d="M251 480l-145 197h5l141 -104h2l141 104h5l-145 -197h-4zM15 0l3 6l16 1q14 1 20 1.5t12 2t8 4.5t2 7v283q0 46 -7.5 59.5t-33.5 19.5l-23 5l1 4l163 44l-3 -85l3 -1q32 27 49 40.5t53 30.5t68 17q48 0 78 -31q31 -30 31 -105v-282q0 -4 2.5 -5.5t14 -4t35.5 -4.5l12 -1
l3 -6h-225l3 6l18 1q24 1 31 4.5t7 10.5v267q0 85 -85 85q-55 0 -96 -36v-318q0 -6 8 -8.5t38 -4.5l15 -1l2 -6h-223z" />
    <glyph glyph-name="Omacron" unicode="&#x14c;" horiz-adv-x="735" 
d="M256 721l11 34h252l-11 -34h-252zM362 -13q-146 0 -240.5 90.5t-94.5 233.5q0 129 102.5 228.5t242.5 99.5q146 0 241 -91.5t95 -235.5q0 -129 -102 -227t-244 -98zM370 -2q102 0 158 82t56 235q0 142 -60 227.5t-159 85.5q-102 0 -158.5 -83t-56.5 -235
q0 -143 60 -227.5t160 -84.5z" />
    <glyph glyph-name="omacron" unicode="&#x14d;" horiz-adv-x="507" 
d="M117 521l11 34h252l-11 -34h-252zM253 -13q-103 0 -168.5 64.5t-65.5 160.5t67 161.5t169 65.5t167.5 -64t65.5 -160q0 -97 -66.5 -162.5t-168.5 -65.5zM254 -5q55 0 87.5 62t32.5 150q0 141 -53 194q-30 30 -68 30q-59 0 -89.5 -60.5t-30.5 -147.5q0 -147 51 -198
q30 -30 70 -30z" />
    <glyph glyph-name="Obreve" unicode="&#x14e;" horiz-adv-x="735" 
d="M362 -13q-146 0 -240.5 90.5t-94.5 233.5q0 129 102.5 228.5t242.5 99.5q146 0 241 -91.5t95 -235.5q0 -129 -102 -227t-244 -98zM370 -2q102 0 158 82t56 235q0 142 -60 227.5t-159 85.5q-102 0 -158.5 -83t-56.5 -235q0 -143 60 -227.5t160 -84.5zM385 686
q-56 0 -84.5 47.5t-47.5 134.5h6q39 -116 128 -116t128 116h6q-18 -87 -47.5 -134.5t-88.5 -47.5z" />
    <glyph glyph-name="obreve" unicode="&#x14f;" horiz-adv-x="507" 
d="M253 -13q-103 0 -168.5 64.5t-65.5 160.5t67 161.5t169 65.5t167.5 -64t65.5 -160q0 -97 -66.5 -162.5t-168.5 -65.5zM254 -5q55 0 87.5 62t32.5 150q0 141 -53 194q-30 30 -68 30q-59 0 -89.5 -60.5t-30.5 -147.5q0 -147 51 -198q30 -30 70 -30zM250 486
q-56 0 -84.5 47.5t-47.5 134.5h6q39 -116 128 -116t128 116h6q-18 -87 -47.5 -134.5t-88.5 -47.5z" />
    <glyph glyph-name="Ohungarumlaut" unicode="&#x150;" horiz-adv-x="735" 
d="M419 691l96 187h100l-188 -187h-8zM255 691l97 187h99l-187 -187h-9zM362 -13q-146 0 -240.5 90.5t-94.5 233.5q0 129 102.5 228.5t242.5 99.5q146 0 241 -91.5t95 -235.5q0 -129 -102 -227t-244 -98zM370 -2q102 0 158 82t56 235q0 142 -60 227.5t-159 85.5
q-102 0 -158.5 -83t-56.5 -235q0 -143 60 -227.5t160 -84.5z" />
    <glyph glyph-name="ohungarumlaut" unicode="&#x151;" horiz-adv-x="507" 
d="M291 491l96 187h100l-188 -187h-8zM127 491l97 187h99l-187 -187h-9zM253 -13q-103 0 -168.5 64.5t-65.5 160.5t67 161.5t169 65.5t167.5 -64t65.5 -160q0 -97 -66.5 -162.5t-168.5 -65.5zM254 -5q55 0 87.5 62t32.5 150q0 141 -53 194q-30 30 -68 30q-59 0 -89.5 -60.5
t-30.5 -147.5q0 -147 51 -198q30 -30 70 -30z" />
    <glyph glyph-name="OE" unicode="&#x152;" horiz-adv-x="943" 
d="M384 0q-175 -1 -266 81t-91 224q0 137 102.5 228.5t278.5 91.5h451l12 -199l-7 -1l-4 13q-31 96 -75 136.5t-137 39.5h-76v-288l34 1q74 4 106.5 22t48.5 67l6 16l7 -1l-24 -225l-7 1l-1 15q-4 55 -32 71.5t-112 21.5l-26 2v-302l100 -5q92 1 142 48.5t85 135.5l5 13
l7 -1l-32 -206h-495zM404 12l55 1v585l-67 16q-59 -1 -106.5 -24.5t-77 -63.5t-45 -91t-15.5 -109q0 -140 63.5 -227t192.5 -87z" />
    <glyph glyph-name="oe" unicode="&#x153;" horiz-adv-x="789" 
d="M253 -14q-104 0 -169 64t-65 160q0 97 67 163.5t169 66.5q111 0 177 -77q64 77 167 77q78 0 122 -39.5t44 -99.5q0 -2 -2 -16q-261 2 -280 3q-2 -14 -2 -52q0 -83 43 -134.5t110 -51.5q45 0 76.5 18t56.5 61l6 -4q-71 -139 -195 -139q-87 0 -151 74q-67 -74 -174 -74z
M485 297l179 2q0 54 -18 92t-57 38q-37 0 -66.5 -38.5t-37.5 -93.5zM254 -6q55 0 87 61.5t32 151.5q0 138 -50 193q-31 31 -70 31q-58 0 -89 -60.5t-31 -151.5q0 -138 51 -194q28 -31 70 -31z" />
    <glyph glyph-name="Racute" unicode="&#x154;" horiz-adv-x="665" 
d="M242 691l98 187h105l-198 -187h-5zM10 0l3 6l47 4q47 6 47 16v576q0 5 -10 7.5t-47 6.5l-36 3l-3 6l284 1q255 0 255 -163q0 -55 -42.5 -97t-111.5 -55l135 -208q35 -55 58 -73.5t62 -22.5l12 -1l4 -6h-203l-8 15l-175 296q-29 7 -61 20v-308q0 -8 57 -14l38 -3l3 -6
h-308zM285 328q70 0 108.5 36t38.5 104q0 71 -44 110t-127 37l-41 -2v-273q41 -12 65 -12z" />
    <glyph glyph-name="racute" unicode="&#x155;" horiz-adv-x="383" 
d="M15 0l3 6l16 1q14 1 20 1.5t12 2t8 4.5t2 7v283q0 46 -7.5 59.5t-33.5 19.5l-23 5l1 4l163 44l-3 -158h2q44 160 135 160q28 0 48 -18t20 -43q0 -24 -16.5 -41.5t-41.5 -17.5t-43 17t-21 47q-26 -5 -43.5 -37.5t-37.5 -104.5v-220q0 -12 52 -14l26 -1l3 -6h-241zM148 491
l98 187h105l-198 -187h-5z" />
    <glyph glyph-name="Rcommaaccent" unicode="&#x156;" horiz-adv-x="665" 
d="M294 -278l-2 4q38 9 60 34t22 55q0 35 -29 49t-55 -4q-11 26 6 52t56 26q38 0 61 -22.5t23 -59.5q0 -42 -41.5 -83t-100.5 -51zM10 0l3 6l47 4q47 6 47 16v576q0 5 -10 7.5t-47 6.5l-36 3l-3 6l284 1q255 0 255 -163q0 -55 -42.5 -97t-111.5 -55l135 -208
q35 -55 58 -73.5t62 -22.5l12 -1l4 -6h-203l-8 15l-175 296q-29 7 -61 20v-308q0 -8 57 -14l38 -3l3 -6h-308zM285 328q70 0 108.5 36t38.5 104q0 71 -44 110t-127 37l-41 -2v-273q41 -12 65 -12z" />
    <glyph glyph-name="rcommaaccent" unicode="&#x157;" horiz-adv-x="383" 
d="M69 -278l-2 4q38 9 60 34t22 55q0 35 -29 49t-55 -4q-11 26 6 52t56 26q38 0 61 -22.5t23 -59.5q0 -42 -41.5 -83t-100.5 -51zM15 0l3 6l16 1q14 1 20 1.5t12 2t8 4.5t2 7v283q0 46 -7.5 59.5t-33.5 19.5l-23 5l1 4l163 44l-3 -158h2q44 160 135 160q28 0 48 -18t20 -43
q0 -24 -16.5 -41.5t-41.5 -17.5t-43 17t-21 47q-26 -5 -43.5 -37.5t-37.5 -104.5v-220q0 -12 52 -14l26 -1l3 -6h-241z" />
    <glyph glyph-name="Rcaron" unicode="&#x158;" horiz-adv-x="665" 
d="M287 680l-145 197h5l141 -104h2l141 104h5l-145 -197h-4zM10 0l3 6l47 4q47 6 47 16v576q0 5 -10 7.5t-47 6.5l-36 3l-3 6l284 1q255 0 255 -163q0 -55 -42.5 -97t-111.5 -55l135 -208q35 -55 58 -73.5t62 -22.5l12 -1l4 -6h-203l-8 15l-175 296q-29 7 -61 20v-308
q0 -8 57 -14l38 -3l3 -6h-308zM285 328q70 0 108.5 36t38.5 104q0 71 -44 110t-127 37l-41 -2v-273q41 -12 65 -12z" />
    <glyph glyph-name="rcaron" unicode="&#x159;" horiz-adv-x="383" 
d="M15 0l3 6l16 1q14 1 20 1.5t12 2t8 4.5t2 7v283q0 46 -7.5 59.5t-33.5 19.5l-23 5l1 4l163 44l-3 -158h2q44 160 135 160q28 0 48 -18t20 -43q0 -24 -16.5 -41.5t-41.5 -17.5t-43 17t-21 47q-26 -5 -43.5 -37.5t-37.5 -104.5v-220q0 -12 52 -14l26 -1l3 -6h-241zM199 480
l-145 197h5l141 -104h2l141 104h5l-145 -197h-4z" />
    <glyph glyph-name="Sacute" unicode="&#x15a;" horiz-adv-x="504" 
d="M200 691l98 187h105l-198 -187h-5zM241 -13q-96 0 -197 35l-8 155h6l33 -68q55 -112 168 -112q62 0 99.5 38t37.5 98q0 57 -37 89.5t-112 58.5q-85 30 -130 70.5t-45 109.5q0 72 56 125t146 53q58 0 139 -24l38 13l2 -169h-5l-74 136q-45 34 -101 34q-49 0 -82.5 -31
t-33.5 -78q0 -51 36.5 -80t107.5 -54q92 -32 138.5 -76.5t46.5 -121.5q0 -78 -65 -139.5t-164 -61.5z" />
    <glyph glyph-name="sacute" unicode="&#x15b;" horiz-adv-x="366" 
d="M127 491l98 187h105l-198 -187h-5zM168 -13q-75 0 -138 24l-7 125h5l23 -44q46 -96 123 -96q41 0 65 23t24 58t-26.5 57.5t-78.5 41.5q-60 22 -92 50t-32 82q0 59 43 94.5t110 35.5q53 0 93 -17l35 11l5 -125l-5 -1l-65 97q-30 26 -65 26q-37 0 -57 -20t-20 -54
q0 -18 6.5 -31t22.5 -23.5t31 -17.5t43 -17q31 -12 50.5 -22t40 -26t30.5 -38.5t10 -51.5q0 -58 -46 -99.5t-128 -41.5z" />
    <glyph glyph-name="Scircumflex" unicode="&#x15c;" horiz-adv-x="504" 
d="M110 680l145 197h4l145 -197h-6l-140 104h-2l-141 -104h-5zM241 -13q-96 0 -197 35l-8 155h6l33 -68q55 -112 168 -112q62 0 99.5 38t37.5 98q0 57 -37 89.5t-112 58.5q-85 30 -130 70.5t-45 109.5q0 72 56 125t146 53q58 0 139 -24l38 13l2 -169h-5l-74 136
q-45 34 -101 34q-49 0 -82.5 -31t-33.5 -78q0 -51 36.5 -80t107.5 -54q92 -32 138.5 -76.5t46.5 -121.5q0 -78 -65 -139.5t-164 -61.5z" />
    <glyph glyph-name="scircumflex" unicode="&#x15d;" horiz-adv-x="366" 
d="M39 480l145 197h4l145 -197h-6l-140 104h-2l-141 -104h-5zM168 -13q-75 0 -138 24l-7 125h5l23 -44q46 -96 123 -96q41 0 65 23t24 58t-26.5 57.5t-78.5 41.5q-60 22 -92 50t-32 82q0 59 43 94.5t110 35.5q53 0 93 -17l35 11l5 -125l-5 -1l-65 97q-30 26 -65 26
q-37 0 -57 -20t-20 -54q0 -18 6.5 -31t22.5 -23.5t31 -17.5t43 -17q31 -12 50.5 -22t40 -26t30.5 -38.5t10 -51.5q0 -58 -46 -99.5t-128 -41.5z" />
    <glyph glyph-name="Scedilla" unicode="&#x15e;" horiz-adv-x="504" 
d="M241 -13q-96 0 -197 35l-8 155h6l33 -68q55 -112 168 -112q62 0 99.5 38t37.5 98q0 57 -37 89.5t-112 58.5q-85 30 -130 70.5t-45 109.5q0 72 56 125t146 53q58 0 139 -24l38 13l2 -169h-5l-74 136q-45 34 -101 34q-49 0 -82.5 -31t-33.5 -78q0 -51 36.5 -80t107.5 -54
q92 -32 138.5 -76.5t46.5 -121.5q0 -74 -59.5 -133.5t-151.5 -66.5l-48 -54q65 12 112 -10.5t47 -64.5q0 -26 -14 -46t-32.5 -32.5t-51.5 -23t-55.5 -15t-59.5 -10.5l-2 5q77 16 114 35.5t37 55.5q0 56 -84 56q-40 0 -71 -12v7l98 108h-8z" />
    <glyph glyph-name="scedilla" unicode="&#x15f;" horiz-adv-x="366" 
d="M168 -13q-75 0 -138 24l-7 125h5l23 -44q46 -96 123 -96q41 0 65 23t24 58t-26.5 57.5t-78.5 41.5q-60 22 -92 50t-32 82q0 59 43 94.5t110 35.5q53 0 93 -17l35 11l5 -125l-5 -1l-65 97q-30 26 -65 26q-37 0 -57 -20t-20 -54q0 -18 6.5 -31t22.5 -23.5t31 -17.5t43 -17
q31 -12 50.5 -22t40 -26t30.5 -38.5t10 -51.5q0 -55 -41.5 -95.5t-115.5 -44.5l-48 -54q65 12 112 -10.5t47 -64.5q0 -26 -14 -46t-32.5 -32.5t-51.5 -23t-55.5 -15t-59.5 -10.5l-2 5q77 16 114 35.5t37 55.5q0 56 -84 56q-40 0 -71 -12v7l98 108h-7z" />
    <glyph glyph-name="Scaron" unicode="&#x160;" horiz-adv-x="504" 
d="M241 -13q-96 0 -197 35l-8 155h6l33 -68q55 -112 168 -112q62 0 99.5 38t37.5 98q0 57 -37 89.5t-112 58.5q-85 30 -130 70.5t-45 109.5q0 72 56 125t146 53q58 0 139 -24l38 13l2 -169h-5l-74 136q-45 34 -101 34q-49 0 -82.5 -31t-33.5 -78q0 -51 36.5 -80t107.5 -54
q92 -32 138.5 -76.5t46.5 -121.5q0 -78 -65 -139.5t-164 -61.5zM260 665l-145 197h5l141 -104h2l141 104h5l-145 -197h-4z" />
    <glyph glyph-name="scaron" unicode="&#x161;" horiz-adv-x="366" 
d="M168 -13q-75 0 -138 24l-7 125h5l23 -44q46 -96 123 -96q41 0 65 23t24 58t-26.5 57.5t-78.5 41.5q-60 22 -92 50t-32 82q0 59 43 94.5t110 35.5q53 0 93 -17l35 11l5 -125l-5 -1l-65 97q-30 26 -65 26q-37 0 -57 -20t-20 -54q0 -18 6.5 -31t22.5 -23.5t31 -17.5t43 -17
q31 -12 50.5 -22t40 -26t30.5 -38.5t10 -51.5q0 -58 -46 -99.5t-128 -41.5zM180 462l-145 197h5l141 -104h2l141 104h5l-145 -197h-4z" />
    <glyph glyph-name="Tcommaaccent" unicode="&#x162;" horiz-adv-x="665" 
d="M268 -278l-2 4q38 9 60 34t22 55q0 35 -29 49t-55 -4q-11 26 6 52t56 26q38 0 61 -22.5t23 -59.5q0 -42 -41.5 -83t-100.5 -51zM179 0l3 6l47 4q48 4 48 16v590h-38q-64 -4 -112.5 -51t-81.5 -110l-7 -13h-7l33 183h545l23 -183h-6l-6 13q-71 157 -192 161h-39v-593
q0 -5 10 -7.5t48 -6.5l36 -3l3 -6h-307z" />
    <glyph glyph-name="tcommaaccent" unicode="&#x163;" horiz-adv-x="335" 
d="M127 -278l-2 4q38 9 60 34t22 55q0 35 -29 49t-55 -4q-11 26 6 52t56 26q38 0 61 -22.5t23 -59.5q0 -42 -41.5 -83t-100.5 -51zM187 -12q-111 0 -110 114l5 276l-80 1l12 22l163 123h4l-1 -98l150 -1l-17 -43h-134l-6 -271q0 -71 71 -71q50 0 84 32l5 -4
q-80 -80 -146 -80z" />
    <glyph glyph-name="Tcaron" unicode="&#x164;" horiz-adv-x="665" 
d="M331 680l-145 197h5l141 -104h2l141 104h5l-145 -197h-4zM179 0l3 6l47 4q48 4 48 16v590h-38q-64 -4 -112.5 -51t-81.5 -110l-7 -13h-7l33 183h545l23 -183h-6l-6 13q-71 157 -192 161h-39v-593q0 -5 10 -7.5t48 -6.5l36 -3l3 -6h-307z" />
    <glyph glyph-name="tcaron" unicode="&#x165;" horiz-adv-x="351" 
d="M234 454l-3 3q67 34 67 89q0 16 -7 27t-17 16t-20.5 8t-17.5 3.5t-7 1.5q0 18 13.5 34t37.5 16q31 0 50 -21.5t19 -52.5q0 -37 -30.5 -71t-84.5 -53zM187 -12q-111 0 -110 114l5 276l-80 1l12 22l163 123h4l-1 -98l150 -1l-17 -43h-134l-6 -271q0 -71 71 -71q50 0 84 32
l5 -4q-80 -80 -146 -80z" />
    <glyph glyph-name="Umacron" unicode="&#x16a;" horiz-adv-x="691" 
d="M359 -15q-136 0 -196 53t-60 174v391q0 10 -57 14l-36 3l-3 6h306l-3 -6l-47 -4q-47 -4 -47 -16v-363q0 -108 45 -160t138 -52q90 0 139 57t49 170l-1 327q0 32 -88 39l-18 2l-3 6h215l-3 -6l-20 -2q-35 -3 -53 -15t-18 -28l-2 -325q-2 -130 -57 -197.5t-180 -67.5z
M252 721l11 34h252l-11 -34h-252z" />
    <glyph glyph-name="umacron" unicode="&#x16b;" horiz-adv-x="497" 
d="M340 -16l1 90h-1q-94 -87 -169 -87q-45 0 -76 31q-33 31 -31 105l1 282q0 4 -2 5.5t-13.5 3.5t-36.5 4l-14 1l-3 6h168l-1 -290q-1 -44 20.5 -64t65.5 -20q51 0 90 34v293q0 24 -9 31t-41 9l-14 1l-3 6h166v-340q0 -23 4 -30t17 -11l43 -8l-1 -5zM108 521l11 34h252
l-11 -34h-252z" />
    <glyph glyph-name="Ubreve" unicode="&#x16c;" horiz-adv-x="691" 
d="M359 -15q-136 0 -196 53t-60 174v391q0 10 -57 14l-36 3l-3 6h306l-3 -6l-47 -4q-47 -4 -47 -16v-363q0 -108 45 -160t138 -52q90 0 139 57t49 170l-1 327q0 32 -88 39l-18 2l-3 6h215l-3 -6l-20 -2q-35 -3 -53 -15t-18 -28l-2 -325q-2 -130 -57 -197.5t-180 -67.5z
M388 686q-56 0 -84.5 47.5t-47.5 134.5h6q39 -116 128 -116t128 116h6q-18 -87 -47.5 -134.5t-88.5 -47.5z" />
    <glyph glyph-name="ubreve" unicode="&#x16d;" horiz-adv-x="497" 
d="M340 -16l1 90h-1q-94 -87 -169 -87q-45 0 -76 31q-33 31 -31 105l1 282q0 4 -2 5.5t-13.5 3.5t-36.5 4l-14 1l-3 6h168l-1 -290q-1 -44 20.5 -64t65.5 -20q51 0 90 34v293q0 24 -9 31t-41 9l-14 1l-3 6h166v-340q0 -23 4 -30t17 -11l43 -8l-1 -5zM245 486
q-56 0 -84.5 47.5t-47.5 134.5h6q39 -116 128 -116t128 116h6q-18 -87 -47.5 -134.5t-88.5 -47.5z" />
    <glyph glyph-name="Uring" unicode="&#x16e;" horiz-adv-x="691" 
d="M359 -15q-136 0 -196 53t-60 174v391q0 10 -57 14l-36 3l-3 6h306l-3 -6l-47 -4q-47 -4 -47 -16v-363q0 -108 45 -160t138 -52q90 0 139 57t49 170l-1 327q0 32 -88 39l-18 2l-3 6h215l-3 -6l-20 -2q-35 -3 -53 -15t-18 -28l-2 -325q-2 -130 -57 -197.5t-180 -67.5z
M386 698q-40 0 -64.5 26t-24.5 64q0 37 24.5 63.5t64.5 26.5t64.5 -26.5t24.5 -63.5q0 -38 -24.5 -64t-64.5 -26zM386 707q36 0 57.5 23.5t21.5 57.5t-21.5 57.5t-57.5 23.5t-57.5 -23.5t-21.5 -57.5t21.5 -57.5t57.5 -23.5z" />
    <glyph glyph-name="uring" unicode="&#x16f;" horiz-adv-x="497" 
d="M340 -16l1 90h-1q-94 -87 -169 -87q-45 0 -76 31q-33 31 -31 105l1 282q0 4 -2 5.5t-13.5 3.5t-36.5 4l-14 1l-3 6h168l-1 -290q-1 -44 20.5 -64t65.5 -20q51 0 90 34v293q0 24 -9 31t-41 9l-14 1l-3 6h166v-340q0 -23 4 -30t17 -11l43 -8l-1 -5zM238 498q-40 0 -64.5 26
t-24.5 64q0 37 24.5 63.5t64.5 26.5t64.5 -26.5t24.5 -63.5q0 -38 -24.5 -64t-64.5 -26zM238 507q36 0 57.5 23.5t21.5 57.5t-21.5 57.5t-57.5 23.5t-57.5 -23.5t-21.5 -57.5t21.5 -57.5t57.5 -23.5z" />
    <glyph glyph-name="Uhungarumlaut" unicode="&#x170;" horiz-adv-x="691" 
d="M359 -15q-136 0 -196 53t-60 174v391q0 10 -57 14l-36 3l-3 6h306l-3 -6l-47 -4q-47 -4 -47 -16v-363q0 -108 45 -160t138 -52q90 0 139 57t49 170l-1 327q0 32 -88 39l-18 2l-3 6h215l-3 -6l-20 -2q-35 -3 -53 -15t-18 -28l-2 -325q-2 -130 -57 -197.5t-180 -67.5z
M266 691l97 187h99l-187 -187h-9zM430 691l96 187h100l-188 -187h-8z" />
    <glyph glyph-name="uhungarumlaut" unicode="&#x171;" horiz-adv-x="497" 
d="M340 -16l1 90h-1q-94 -87 -169 -87q-45 0 -76 31q-33 31 -31 105l1 282q0 4 -2 5.5t-13.5 3.5t-36.5 4l-14 1l-3 6h168l-1 -290q-1 -44 20.5 -64t65.5 -20q51 0 90 34v293q0 24 -9 31t-41 9l-14 1l-3 6h166v-340q0 -23 4 -30t17 -11l43 -8l-1 -5zM122 491l97 187h99
l-187 -187h-9zM286 491l96 187h100l-188 -187h-8z" />
    <glyph glyph-name="Uogonek" unicode="&#x172;" horiz-adv-x="691" 
d="M428 -240q-41 0 -67 22t-26 60q0 44 29 86t72 65q-40 -8 -77 -8q-136 0 -196 53t-60 173v392q0 10 -57 14l-36 3l-3 6h306l-3 -6l-46 -4q-48 -4 -48 -16v-363q0 -108 45 -159.5t138 -51.5q90 0 139 56.5t49 169.5l-1 327q0 32 -88 39l-18 2l-3 6h215l-3 -6l-20 -2
q-35 -3 -53 -15t-18 -28l-2 -325q-2 -97 -30.5 -156.5t-94.5 -91.5q-78 -38 -78 -126q0 -34 19.5 -52.5t53.5 -18.5q32 0 61 31l4 -4q-12 -25 -41 -48.5t-62 -23.5z" />
    <glyph glyph-name="uogonek" unicode="&#x173;" horiz-adv-x="497" 
d="M397 -240q-40 0 -66.5 25t-26.5 65q0 49 38 91t89 69l-91 -26l1 90h-1q-94 -87 -169 -87q-45 0 -76 31q-33 31 -31 105l1 282q0 4 -2 5.5t-13.5 3.5t-36.5 4l-14 1l-3 6h169l-2 -289q0 -45 21.5 -64.5t64.5 -19.5q52 0 90 33v293q0 24 -9 31t-41 9l-14 1l-3 6h167v-339
q0 -23 4 -30.5t17 -11.5l43 -8l-1 -5q-139 -50 -139 -155q0 -34 19.5 -52.5t53.5 -18.5q32 0 61 31l4 -4q-12 -25 -41 -48.5t-63 -23.5z" />
    <glyph glyph-name="Wcircumflex" unicode="&#x174;" horiz-adv-x="993" 
d="M367 680l145 197h4l145 -197h-6l-140 104h-2l-141 -104h-5zM314 -15l-196 510q-30 80 -45 99.5t-52 22.5l-27 2l-3 6h295l-3 -6l-32 -1q-40 -1 -46 -13.5t10 -58.5l153 -416h2l129 324l-15 41q-30 79 -45 99.5t-52 22.5l-29 2l-3 6h296l-3 -6l-30 -1q-42 -1 -48 -14
t12 -60l149 -410h2l118 321q14 38 20 57t10 40t1 29.5t-12 17.5t-25 12t-42 6l-21 2l-3 6h224l-3 -6l-16 -2q-44 -4 -63 -30.5t-59 -135.5l-174 -466h-11l-171 457h-1l-180 -457h-11z" />
    <glyph glyph-name="wcircumflex" unicode="&#x175;" horiz-adv-x="733" 
d="M234 480l145 197h4l145 -197h-6l-140 104h-2l-141 -104h-5zM217 -10l-143 355q-18 47 -28.5 59t-35.5 13l-17 1l-2 6h233l-2 -6l-17 -1q-29 -2 -35.5 -10t3.5 -34l103 -263l85 201l-22 53q-13 32 -24 41.5t-35 11.5l-14 1l-4 6h231l-2 -6l-17 -1q-28 -1 -33.5 -11
t4.5 -33l108 -261l65 179q25 70 17 95.5t-59 30.5l-14 1l-3 6h174l-3 -6l-14 -1q-34 -3 -46 -22t-43 -109l-107 -296h-21l-132 310l-129 -310h-21z" />
    <glyph glyph-name="Ycircumflex" unicode="&#x176;" horiz-adv-x="636" 
d="M165 0l3 6l46 4q48 4 48 16v257l-140 250q-29 49 -46 65t-49 19l-25 2l-3 6h296l-3 -6l-20 -1q-45 -4 -51.5 -20t15.5 -53l129 -233h2l81 152q26 49 36.5 73.5t9.5 43t-15.5 25t-46.5 10.5l-22 3l-3 6h221l-3 -6l-28 -3q-35 -4 -61 -31.5t-74 -118.5l-88 -164v-279
q0 -5 10 -7.5t48 -6.5l36 -3l3 -6h-306zM199 680l145 197h4l145 -197h-6l-140 104h-2l-141 -104h-5z" />
    <glyph glyph-name="ycircumflex" unicode="&#x177;" horiz-adv-x="470" 
d="M93 -256q-25 0 -44.5 15.5t-19.5 40.5q0 22 16 37.5t38 15.5q51 0 63 -52q18 4 30.5 24t27.5 62l35 105h-7l-163 366q-17 38 -26 48t-32 11l-18 1l-3 6h236l-3 -6l-17 -1q-29 -1 -35 -12t6 -37l107 -252l67 184q25 73 18 92.5t-59 24.5l-14 1l-3 6h175l-3 -6l-16 -1
q-33 -3 -46 -22t-44 -106l-107 -289l-40 -122q-22 -69 -49.5 -101.5t-69.5 -32.5zM100 480l145 197h4l145 -197h-6l-140 104h-2l-141 -104h-5z" />
    <glyph glyph-name="Ydieresis" unicode="&#x178;" horiz-adv-x="636" 
d="M165 0l3 6l46 4q48 4 48 16v257l-140 250q-29 49 -46 65t-49 19l-25 2l-3 6h296l-3 -6l-20 -1q-45 -4 -51.5 -20t15.5 -53l129 -233h2l81 152q26 49 36.5 73.5t9.5 43t-15.5 25t-46.5 10.5l-22 3l-3 6h221l-3 -6l-28 -3q-35 -4 -61 -31.5t-74 -118.5l-88 -164v-279
q0 -5 10 -7.5t48 -6.5l36 -3l3 -6h-306zM414 674q-26 0 -41 17.5t-15 37.5q0 21 15 39.5t41 18.5q27 0 42 -18.5t15 -39.5q0 -20 -15 -37.5t-42 -17.5zM227 674q-26 0 -41.5 17.5t-15.5 37.5q0 21 15.5 39.5t41.5 18.5q27 0 42 -18.5t15 -39.5q0 -20 -15 -37.5t-42 -17.5z
" />
    <glyph glyph-name="Zacute" unicode="&#x179;" horiz-adv-x="590" 
d="M249 691l98 187h105l-198 -187h-5zM30 0v4l385 608v2h-97q-114 0 -170.5 -43t-85.5 -124l-4 -10h-6l15 188h481v-5l-387 -606v-2l108 -1q64 -1 108.5 10t76 38t52 59.5t43.5 87.5l6 13h8l-32 -219h-501z" />
    <glyph glyph-name="zacute" unicode="&#x17a;" horiz-adv-x="428" 
d="M180 491l98 187h105l-198 -187h-5zM19 0v4l260 410l-50 1q-74 -1 -108 -28t-61 -91l-15 -31h-5v159h357v-4l-263 -410h49q76 1 122.5 33.5t79.5 91.5l14 25h5l-30 -160h-355z" />
    <glyph glyph-name="Zdotaccent" unicode="&#x17b;" horiz-adv-x="590" 
d="M30 0v4l385 608v2h-97q-114 0 -170.5 -43t-85.5 -124l-4 -10h-6l15 188h481v-5l-387 -606v-2l108 -1q64 -1 108.5 10t76 38t52 59.5t43.5 87.5l6 13h8l-32 -219h-501zM304 721q-28 0 -44 19t-16 40q0 23 16 42.5t44 19.5t44 -19.5t16 -42.5q0 -22 -16 -40.5t-44 -18.5z
" />
    <glyph glyph-name="zdotaccent" unicode="&#x17c;" horiz-adv-x="428" 
d="M19 0v4l260 410l-50 1q-74 -1 -108 -28t-61 -91l-15 -31h-5v159h357v-4l-263 -410h49q76 1 122.5 33.5t79.5 91.5l14 25h5l-30 -160h-355zM216 521q-28 0 -44 19t-16 40q0 23 16 42.5t44 19.5t44 -19.5t16 -42.5q0 -22 -16 -40.5t-44 -18.5z" />
    <glyph glyph-name="Zcaron" unicode="&#x17d;" horiz-adv-x="590" 
d="M30 0v4l385 608v2h-97q-114 0 -170.5 -43t-85.5 -124l-4 -10h-6l15 188h481v-5l-387 -606v-2l108 -1q64 -1 108.5 10t76 38t52 59.5t43.5 87.5l6 13h8l-32 -219h-501zM300 655l-145 197h5l141 -104h2l141 104h5l-145 -197h-4z" />
    <glyph glyph-name="zcaron" unicode="&#x17e;" horiz-adv-x="428" 
d="M19 0v4l260 410l-50 1q-74 -1 -108 -28t-61 -91l-15 -31h-5v159h357v-4l-263 -410h49q76 1 122.5 33.5t79.5 91.5l14 25h5l-30 -160h-355zM214 460l-145 197h5l141 -104h2l141 104h5l-145 -197h-4z" />
    <glyph glyph-name="florin" unicode="&#x192;" horiz-adv-x="525" 
d="M89 -71q-41 0 -67.5 18t-26.5 46q0 20 15.5 36.5t40.5 16.5q32 0 47.5 -30.5t-9.5 -64.5q17 -10 29 -10q30 0 51 59.5t59 245.5l22 117l-112 2l18 41h106q33 131 87 185q50 48 128 48q43 0 68.5 -18t25.5 -48q0 -21 -17.5 -37.5t-38.5 -16.5q-41 0 -49.5 35.5t29.5 61.5
q-17 14 -33 14q-36 0 -56.5 -53.5t-44.5 -170.5l121 -1l-4 -41h-126l-31 -130q-45 -186 -119 -262q-42 -43 -113 -43z" />
    <glyph glyph-name="Aringacute" unicode="&#x1fa;" horiz-adv-x="641" 
d="M244 788l98 187h105l-198 -187h-5zM350 269h-169l-37 -102q-13 -40 -19 -58.5t-9.5 -40t-1 -28.5t12.5 -15.5t24.5 -11t40.5 -5.5l20 -2l3 -6h-223l3 6l17 2q34 4 51 18.5t35.5 53.5t55.5 142l142 397q-31 8 -48 31.5t-17 53.5q0 37 24.5 63t64.5 26t64.5 -26t24.5 -63
q0 -30 -16 -52.5t-43 -31.5l161 -486q26 -79 43 -101.5t52 -24.5l28 -2l3 -6h-299l3 6l29 2q37 2 43 25t-11 72zM320 622q36 0 57.5 23.5t21.5 57.5t-21.5 57.5t-57.5 23.5t-57.5 -23.5t-21.5 -57.5t21.5 -57.5t57.5 -23.5zM185 281h161l-75 236h-2z" />
    <glyph glyph-name="aringacute" unicode="&#x1fb;" horiz-adv-x="432" 
d="M106 666l98 187h105l-198 -187h-5zM206 498q-40 0 -64.5 26t-24.5 64q0 37 24.5 63.5t64.5 26.5t64.5 -26.5t24.5 -63.5q0 -38 -24.5 -64t-64.5 -26zM336 -10q-66 0 -75 79l-1 2q-74 -80 -132 -80q-43 0 -73 28t-30 66q0 54 52.5 92t188.5 70l1 33q2 67 -24.5 100.5
t-75.5 33.5q-26 0 -47 -9.5t-21 -18.5q0 -1 14 -21t14 -36q0 -19 -15 -33.5t-38 -14.5t-37.5 12.5t-14.5 32.5q0 42 71.5 77.5t137.5 35.5q78 0 109 -34t27 -122l-10 -189q-3 -54 36 -54q17 0 42 27l6 -3q-17 -21 -26.5 -32t-33 -26.5t-45.5 -15.5zM206 507q36 0 57.5 23.5
t21.5 57.5t-21.5 57.5t-57.5 23.5t-57.5 -23.5t-21.5 -57.5t21.5 -57.5t57.5 -23.5zM186 46q39 0 74 35l6 156q-83 -19 -113 -47t-30 -70q0 -32 18.5 -53t44.5 -21z" />
    <glyph glyph-name="AEacute" unicode="&#x1fc;" horiz-adv-x="862" 
d="M-54 0l3 6l37 4q29 3 61.5 38t83.5 127l222 394q15 23 5 33t-61 13l-39 2l-3 8h523l12 -199l-7 -1l-4 13q-11 35 -18.5 55t-19.5 43.5t-25 35.5t-31.5 23t-43.5 15t-57 4h-86v-288l35 1q72 4 101.5 21.5t45.5 67.5l6 16l7 -1l-24 -225l-7 1l-1 15q-4 55 -29 71.5
t-107 21.5l-27 2v-302l93 -5q92 1 142 48.5t85 135.5l5 13l7 -1l-32 -206h-513l3 6l50 4q48 4 48 16v242h-190l-58 -104q-30 -55 -38 -87t4.5 -48t46.5 -20l25 -3l3 -6h-233zM204 281h182v320h-2zM469 691l98 187h105l-198 -187h-5z" />
    <glyph glyph-name="aeacute" unicode="&#x1fd;" horiz-adv-x="676" 
d="M298 491l98 187h105l-198 -187h-5zM127 -12q-42 0 -72 28.5t-30 67.5q0 54 52 93t189 70l1 33q2 67 -24.5 100.5t-75.5 33.5q-26 0 -47 -9.5t-21 -18.5q0 -1 14 -21t14 -36q0 -19 -15 -33.5t-38 -14.5t-37.5 12.5t-14.5 32.5q0 43 71 78t143 35q77 0 103 -54
q57 55 145 55q79 0 123 -39.5t44 -99.5q0 -2 -2 -16q-262 2 -280 3q-2 -14 -2 -52q0 -83 43 -133.5t110 -50.5q45 0 76.5 17.5t56.5 60.5l6 -3q-70 -139 -195 -139q-60 0 -107 29.5t-69 77.5q-54 -57 -89.5 -82t-71.5 -25zM371 297l179 2q0 54 -18 92t-57 38
q-37 0 -66.5 -38.5t-37.5 -93.5zM183 43q24 0 44.5 13t54.5 49q-18 42 -18 109q0 15 1 22q-84 -21 -113 -49t-29 -71q0 -30 18.5 -51.5t41.5 -21.5z" />
    <glyph glyph-name="Oslashacute" unicode="&#x1fe;" horiz-adv-x="735" 
d="M542 598q78 -40 122 -115t44 -171q0 -129 -102 -227t-244 -98q-85 0 -154 32l-54 -92h-11l56 96q-80 40 -126 115.5t-46 172.5q0 129 102.5 228.5t242.5 99.5q87 0 161 -36l50 86h11q-52 -90 -52 -91zM223 66l286 495q-58 67 -144 67q-102 0 -158.5 -83t-56.5 -235
q0 -158 73 -244zM516 553l-286 -495q55 -60 140 -60q102 0 158 82t56 235q0 151 -68 238zM375 684l98 187h105l-198 -187h-5z" />
    <glyph glyph-name="oslashacute" unicode="&#x1ff;" horiz-adv-x="507" 
d="M129 18q-51 30 -80.5 81t-29.5 113q0 96 67 161.5t169 65.5q56 0 105 -22l94 161h11l-96 -165q56 -29 87.5 -81.5t31.5 -116.5q0 -97 -66.5 -162.5t-168.5 -65.5q-65 0 -115 26l-82 -141h-11zM157 66l181 313q-8 13 -17 22q-30 30 -68 30q-59 0 -89.5 -60.5t-30.5 -147.5
q0 -100 24 -157zM344 369q-182 -313 -182 -314q8 -16 22 -30q30 -30 70 -30q55 0 87.5 62t32.5 150q0 102 -30 162zM239 476l98 187h105l-198 -187h-5z" />
    <glyph glyph-name="Scommaaccent" unicode="&#x218;" horiz-adv-x="504" 
d="M187 -278l-2 4q38 9 60 34t22 55q0 35 -29 49t-55 -4q-11 26 6 52t56 26q38 0 61 -22.5t23 -59.5q0 -42 -41.5 -83t-100.5 -51zM241 -13q-96 0 -197 35l-8 155h6l33 -68q55 -112 168 -112q62 0 99.5 38t37.5 98q0 57 -37 89.5t-112 58.5q-85 30 -130 70.5t-45 109.5
q0 72 56 125t146 53q58 0 139 -24l38 13l2 -169h-5l-74 136q-45 34 -101 34q-49 0 -82.5 -31t-33.5 -78q0 -51 36.5 -80t107.5 -54q92 -32 138.5 -76.5t46.5 -121.5q0 -78 -65 -139.5t-164 -61.5z" />
    <glyph glyph-name="scommaaccent" unicode="&#x219;" horiz-adv-x="366" 
d="M119 -278l-2 4q38 9 60 34t22 55q0 35 -29 49t-55 -4q-11 26 6 52t56 26q38 0 61 -22.5t23 -59.5q0 -42 -41.5 -83t-100.5 -51zM168 -13q-75 0 -138 24l-7 125h5l23 -44q46 -96 123 -96q41 0 65 23t24 58t-26.5 57.5t-78.5 41.5q-60 22 -92 50t-32 82q0 59 43 94.5
t110 35.5q53 0 93 -17l35 11l5 -125l-5 -1l-65 97q-30 26 -65 26q-37 0 -57 -20t-20 -54q0 -18 6.5 -31t22.5 -23.5t31 -17.5t43 -17q31 -12 50.5 -22t40 -26t30.5 -38.5t10 -51.5q0 -58 -46 -99.5t-128 -41.5z" />
    <glyph glyph-name="uni021A" unicode="&#x21a;" horiz-adv-x="665" 
d="M268 -278l-2 4q38 9 60 34t22 55q0 35 -29 49t-55 -4q-11 26 6 52t56 26q38 0 61 -22.5t23 -59.5q0 -42 -41.5 -83t-100.5 -51zM179 0l3 6l47 4q48 4 48 16v590h-38q-64 -4 -112.5 -51t-81.5 -110l-7 -13h-7l33 183h545l23 -183h-6l-6 13q-71 157 -192 161h-39v-593
q0 -5 10 -7.5t48 -6.5l36 -3l3 -6h-307z" />
    <glyph glyph-name="uni021B" unicode="&#x21b;" horiz-adv-x="335" 
d="M127 -278l-2 4q38 9 60 34t22 55q0 35 -29 49t-55 -4q-11 26 6 52t56 26q38 0 61 -22.5t23 -59.5q0 -42 -41.5 -83t-100.5 -51zM187 -12q-111 0 -110 114l5 276l-80 1l12 22l163 123h4l-1 -98l150 -1l-17 -43h-134l-6 -271q0 -71 71 -71q50 0 84 32l5 -4
q-80 -80 -146 -80z" />
    <glyph glyph-name="dotlessj" unicode="&#x237;" horiz-adv-x="238" 
d="M-17 -251q-36 0 -56.5 16.5t-20.5 41.5q0 22 15.5 37t37.5 15q30 0 48 -26t16 -59q50 8 50 148v384q0 45 -7.5 58.5t-33.5 19.5l-23 5l1 4l162 44v-466q0 -71 -63 -146.5t-126 -75.5z" />
    <glyph glyph-name="circumflex" unicode="&#x2c6;" horiz-adv-x="370" 
d="M38 480l145 197h4l145 -197h-6l-140 104h-2l-141 -104h-5z" />
    <glyph glyph-name="caron" unicode="&#x2c7;" horiz-adv-x="370" 
d="M183 480l-145 197h5l141 -104h2l141 104h5l-145 -197h-4z" />
    <glyph glyph-name="breve" unicode="&#x2d8;" horiz-adv-x="380" 
d="M190 486q-56 0 -84.5 47.5t-47.5 134.5h6q39 -116 128 -116t128 116h6q-18 -87 -47.5 -134.5t-88.5 -47.5z" />
    <glyph glyph-name="dotaccent" unicode="&#x2d9;" horiz-adv-x="384" 
d="M192 521q-28 0 -44 19t-16 40q0 23 16 42.5t44 19.5t44 -19.5t16 -42.5q0 -22 -16 -40.5t-44 -18.5z" />
    <glyph glyph-name="ring" unicode="&#x2da;" horiz-adv-x="370" 
d="M185 498q-40 0 -64.5 26t-24.5 64q0 37 24.5 63.5t64.5 26.5t64.5 -26.5t24.5 -63.5q0 -38 -24.5 -64t-64.5 -26zM185 507q36 0 57.5 23.5t21.5 57.5t-21.5 57.5t-57.5 23.5t-57.5 -23.5t-21.5 -57.5t21.5 -57.5t57.5 -23.5z" />
    <glyph glyph-name="ogonek" unicode="&#x2db;" horiz-adv-x="383" 
d="M201 -240q-39 0 -65.5 26t-26.5 65q0 57 48.5 99t111.5 67h13q-114 -51 -114 -139q0 -35 18.5 -54t53.5 -19q32 0 60 31l4 -4q-12 -25 -40.5 -48.5t-62.5 -23.5z" />
    <glyph glyph-name="tilde" unicode="&#x2dc;" horiz-adv-x="380" 
d="M269 497q-33 0 -98 31t-84 31q-10 0 -16 -1t-13 -6t-11 -16t-5 -30h-6q6 65 22 89.5t54 24.5q32 0 97 -31t83 -31q22 0 33 9.5t14 44.5h6q-6 -64 -22 -89.5t-54 -25.5z" />
    <glyph glyph-name="hungarumlaut" unicode="&#x2dd;" horiz-adv-x="399" 
d="M230 491l96 187h100l-188 -187h-8zM66 491l97 187h99l-187 -187h-9z" />
    <glyph glyph-name="Wgrave" unicode="&#x1e80;" horiz-adv-x="993" 
d="M314 -15l-196 510q-30 80 -45 99.5t-52 22.5l-27 2l-3 6h295l-3 -6l-32 -1q-40 -1 -46 -13.5t10 -58.5l153 -416h2l129 324l-15 41q-30 79 -45 99.5t-52 22.5l-29 2l-3 6h296l-3 -6l-30 -1q-42 -1 -48 -14t12 -60l149 -410h2l118 321q14 38 20 57t10 40t1 29.5t-12 17.5
t-25 12t-42 6l-21 2l-3 6h224l-3 -6l-16 -2q-44 -4 -63 -30.5t-59 -135.5l-174 -466h-11l-171 457h-1l-180 -457h-11zM564 691l-198 187h105l98 -187h-5z" />
    <glyph glyph-name="wgrave" unicode="&#x1e81;" horiz-adv-x="733" 
d="M217 -10l-143 355q-18 47 -28.5 59t-35.5 13l-17 1l-2 6h233l-2 -6l-17 -1q-29 -2 -35.5 -10t3.5 -34l103 -263l85 201l-22 53q-13 32 -24 41.5t-35 11.5l-14 1l-4 6h231l-2 -6l-17 -1q-28 -1 -33.5 -11t4.5 -33l108 -261l65 179q25 70 17 95.5t-59 30.5l-14 1l-3 6h174
l-3 -6l-14 -1q-34 -3 -46 -22t-43 -109l-107 -296h-21l-132 310l-129 -310h-21zM429 491l-198 187h105l98 -187h-5z" />
    <glyph glyph-name="Wacute" unicode="&#x1e82;" horiz-adv-x="993" 
d="M449 691l98 187h105l-198 -187h-5zM314 -15l-196 510q-30 80 -45 99.5t-52 22.5l-27 2l-3 6h295l-3 -6l-32 -1q-40 -1 -46 -13.5t10 -58.5l153 -416h2l129 324l-15 41q-30 79 -45 99.5t-52 22.5l-29 2l-3 6h296l-3 -6l-30 -1q-42 -1 -48 -14t12 -60l149 -410h2l118 321
q14 38 20 57t10 40t1 29.5t-12 17.5t-25 12t-42 6l-21 2l-3 6h224l-3 -6l-16 -2q-44 -4 -63 -30.5t-59 -135.5l-174 -466h-11l-171 457h-1l-180 -457h-11z" />
    <glyph glyph-name="wacute" unicode="&#x1e83;" horiz-adv-x="733" 
d="M316 491l98 187h105l-198 -187h-5zM217 -10l-143 355q-18 47 -28.5 59t-35.5 13l-17 1l-2 6h233l-2 -6l-17 -1q-29 -2 -35.5 -10t3.5 -34l103 -263l85 201l-22 53q-13 32 -24 41.5t-35 11.5l-14 1l-4 6h231l-2 -6l-17 -1q-28 -1 -33.5 -11t4.5 -33l108 -261l65 179
q25 70 17 95.5t-59 30.5l-14 1l-3 6h174l-3 -6l-14 -1q-34 -3 -46 -22t-43 -109l-107 -296h-21l-132 310l-129 -310h-21z" />
    <glyph glyph-name="Wdieresis" unicode="&#x1e84;" horiz-adv-x="993" 
d="M609 707q-26 0 -41 17.5t-15 37.5q0 21 15 39.5t41 18.5q27 0 42 -18.5t15 -39.5q0 -20 -15 -37.5t-42 -17.5zM422 707q-26 0 -41.5 17.5t-15.5 37.5q0 21 15.5 39.5t41.5 18.5q27 0 42 -18.5t15 -39.5q0 -20 -15 -37.5t-42 -17.5zM314 -15l-196 510q-30 80 -45 99.5
t-52 22.5l-27 2l-3 6h295l-3 -6l-32 -1q-40 -1 -46 -13.5t10 -58.5l153 -416h2l129 324l-15 41q-30 79 -45 99.5t-52 22.5l-29 2l-3 6h296l-3 -6l-30 -1q-42 -1 -48 -14t12 -60l149 -410h2l118 321q14 38 20 57t10 40t1 29.5t-12 17.5t-25 12t-42 6l-21 2l-3 6h224l-3 -6
l-16 -2q-44 -4 -63 -30.5t-59 -135.5l-174 -466h-11l-171 457h-1l-180 -457h-11z" />
    <glyph glyph-name="wdieresis" unicode="&#x1e85;" horiz-adv-x="733" 
d="M472 507q-26 0 -41 17.5t-15 37.5q0 21 15 39.5t41 18.5q27 0 42 -18.5t15 -39.5q0 -20 -15 -37.5t-42 -17.5zM285 507q-26 0 -41.5 17.5t-15.5 37.5q0 21 15.5 39.5t41.5 18.5q27 0 42 -18.5t15 -39.5q0 -20 -15 -37.5t-42 -17.5zM217 -10l-143 355q-18 47 -28.5 59
t-35.5 13l-17 1l-2 6h233l-2 -6l-17 -1q-29 -2 -35.5 -10t3.5 -34l103 -263l85 201l-22 53q-13 32 -24 41.5t-35 11.5l-14 1l-4 6h231l-2 -6l-17 -1q-28 -1 -33.5 -11t4.5 -33l108 -261l65 179q25 70 17 95.5t-59 30.5l-14 1l-3 6h174l-3 -6l-14 -1q-34 -3 -46 -22t-43 -109
l-107 -296h-21l-132 310l-129 -310h-21z" />
    <glyph glyph-name="thinspace" unicode="&#x2009;" horiz-adv-x="60" 
 />
    <glyph glyph-name="endash" unicode="&#x2013;" horiz-adv-x="426" 
d="M4 216l3 36h413l-1 -36h-415z" />
    <glyph glyph-name="emdash" unicode="&#x2014;" horiz-adv-x="896" 
d="M4 216l3 36h884l-1 -36h-886z" />
    <glyph glyph-name="quoteleft" unicode="&#x2018;" horiz-adv-x="188" 
d="M105 400q-39 0 -62.5 26t-23.5 65q0 47 38.5 89.5t106.5 67.5l4 -5q-39 -20 -61.5 -49.5t-22.5 -61.5q0 -20 9 -34t21 -20.5t24.5 -9.5t21.5 -4l9 -2q0 -23 -16.5 -42.5t-47.5 -19.5z" />
    <glyph glyph-name="quoteright" unicode="&#x2019;" horiz-adv-x="188" 
d="M25 402l-4 4q39 20 61.5 49.5t22.5 62.5q0 19 -9 33t-21.5 20.5t-25 9.5t-21.5 5l-9 1q0 23 17 43t47 20q39 0 62.5 -26.5t23.5 -65.5q0 -47 -38 -89.5t-106 -66.5z" />
    <glyph glyph-name="quotesinglbase" unicode="&#x201a;" horiz-adv-x="188" 
d="M25 -121l-4 4q39 20 61.5 49.5t22.5 62.5q0 19 -9 33t-21.5 20.5t-25 9.5t-21.5 4l-9 2q0 23 17 43t47 20q39 0 62.5 -26.5t23.5 -65.5q0 -47 -38 -89.5t-106 -66.5z" />
    <glyph glyph-name="quotedblleft" unicode="&#x201c;" horiz-adv-x="369" 
d="M286 400q-38 0 -61.5 26t-23.5 65q0 47 38 89.5t106 67.5l4 -5q-39 -20 -61.5 -49.5t-22.5 -61.5q0 -20 9 -34t21.5 -20.5t24.5 -9.5t21 -4l9 -2q0 -23 -16.5 -42.5t-47.5 -19.5zM105 400q-39 0 -62.5 26t-23.5 65q0 47 38.5 89.5t106.5 67.5l4 -5q-39 -20 -61.5 -49.5
t-22.5 -61.5q0 -20 9 -34t21 -20.5t24.5 -9.5t21.5 -4l9 -2q0 -23 -16.5 -42.5t-47.5 -19.5z" />
    <glyph glyph-name="quotedblright" unicode="&#x201d;" horiz-adv-x="369" 
d="M206 402l-4 4q39 20 61.5 49.5t22.5 62.5q0 19 -9 33t-21.5 20.5t-25 9.5t-21.5 5l-9 1q0 23 17 43t47 20q39 0 62.5 -26.5t23.5 -65.5q0 -47 -38 -89.5t-106 -66.5zM25 402l-4 4q39 20 61.5 49.5t22.5 62.5q0 19 -9 33t-21.5 20.5t-25 9.5t-21.5 5l-9 1q0 23 17 43
t47 20q39 0 62.5 -26.5t23.5 -65.5q0 -47 -38 -89.5t-106 -66.5z" />
    <glyph glyph-name="quotedblbase" unicode="&#x201e;" horiz-adv-x="369" 
d="M206 -121l-4 4q39 20 61.5 49.5t22.5 62.5q0 19 -9 33t-21.5 20.5t-25 9.5t-21.5 4l-9 2q0 23 17 43t47 20q39 0 62.5 -26.5t23.5 -65.5q0 -47 -38 -89.5t-106 -66.5zM25 -121l-4 4q39 20 61.5 49.5t22.5 62.5q0 19 -9 33t-21.5 20.5t-25 9.5t-21.5 4l-9 2q0 23 17 43
t47 20q39 0 62.5 -26.5t23.5 -65.5q0 -47 -38 -89.5t-106 -66.5z" />
    <glyph glyph-name="dagger" unicode="&#x2020;" horiz-adv-x="433" 
d="M211 -156v570h-202l-1 10h203v201h11v-201h203l-1 -10h-202v-570h-11z" />
    <glyph glyph-name="daggerdbl" unicode="&#x2021;" horiz-adv-x="433" 
d="M211 -156v192h-203l1 10h202v376h-202l-1 10h203v193h11v-193h203l-1 -10h-202v-376h202l1 -10h-203v-192h-11z" />
    <glyph glyph-name="bullet" unicode="&#x2022;" horiz-adv-x="425" 
d="M212 39q-21 0 -71 21t-64 36q-15 16 -36 65.5t-21 70.5q0 22 21 71.5t36 64.5t65 35.5t71 20.5q22 0 71.5 -20.5t64.5 -35.5t35.5 -64.5t20.5 -71.5t-20 -71t-36 -65q-15 -16 -65 -36.5t-72 -20.5z" />
    <glyph glyph-name="ellipsis" unicode="&#x2026;" horiz-adv-x="622" 
d="M526 -12q-27 0 -45.5 19t-18.5 45q0 25 18.5 43.5t45.5 18.5t45.5 -18.5t18.5 -43.5q0 -26 -18.5 -45t-45.5 -19zM312 -12q-27 0 -46 19t-19 45q0 25 19 43.5t46 18.5q26 0 44.5 -18.5t18.5 -43.5q0 -26 -18 -45t-45 -19zM97 -12q-27 0 -45.5 19t-18.5 45q0 25 18.5 43.5
t45.5 18.5q26 0 44.5 -18.5t18.5 -43.5q0 -26 -18 -45t-45 -19z" />
    <glyph glyph-name="perthousand" unicode="&#x2030;" horiz-adv-x="817" 
d="M132 386q-56 0 -90 36.5t-34 89.5t34 90.5t90 37.5q57 0 91 -37.5t34 -90.5t-34 -89.5t-91 -36.5zM43 -14l428 654h12l-428 -654h-12zM684 -13q-56 0 -90 36.5t-34 88.5q0 54 34 91.5t90 37.5q57 0 91 -37.5t34 -91.5q0 -52 -34 -88.5t-91 -36.5zM396 -13q-56 0 -90 36.5
t-34 88.5q0 54 34 91.5t90 37.5q57 0 91 -37.5t34 -91.5q0 -52 -34 -88.5t-91 -36.5zM132 395q51 0 82 33.5t31 83.5t-31.5 84.5t-81.5 34.5t-81 -34.5t-31 -84.5t30.5 -83.5t81.5 -33.5zM684 -4q51 0 82 33t31 83t-31.5 85t-81.5 35t-81 -35t-31 -85t30.5 -83t81.5 -33z
M396 -4q51 0 82 33t31 83t-31.5 85t-81.5 35t-81 -35t-31 -85t30.5 -83t81.5 -33z" />
    <glyph glyph-name="guilsinglleft" unicode="&#x2039;" horiz-adv-x="261" 
d="M238 43l-226 174v11l226 173l3 -4l-124 -175l124 -176z" />
    <glyph glyph-name="guilsinglright" unicode="&#x203a;" horiz-adv-x="261" 
d="M22 43l-3 4l124 175l-124 176l3 3l226 -173v-11z" />
    <glyph glyph-name="fraction" unicode="&#x2044;" horiz-adv-x="459" 
d="M-12 -13l469 654h14l-469 -654h-14z" />
    <glyph glyph-name="zerosuperior" unicode="&#x2070;" horiz-adv-x="335" 
d="M165 246q-65 0 -105.5 55t-40.5 140q0 83 42.5 139.5t108.5 56.5q65 0 105.5 -55.5t40.5 -138.5q0 -86 -42 -141.5t-109 -55.5zM167 251q34 0 53.5 49t19.5 137q0 104 -17 149t-56 45q-35 0 -54 -47t-19 -134q0 -107 17.5 -153t55.5 -46z" />
    <glyph glyph-name="foursuperior" unicode="&#x2074;" horiz-adv-x="308" 
d="M164 253v98h-158l-1 5l196 284h30v-242h73l-14 -47h-59v-98h-67zM44 398h120v173h-1z" />
    <glyph glyph-name="fivesuperior" unicode="&#x2075;" horiz-adv-x="255" 
d="M86 232q-83 0 -83 51q0 14 10 24t25 10q23 0 34.5 -22t4.5 -45q13 -8 32 -8q30 0 54 25.5t24 64.5q0 48 -45 77.5t-117 34.5l47 187h168l-13 -63h-163l-15 -63q96 -7 143.5 -43.5t47.5 -91.5q0 -57 -47 -97.5t-107 -40.5z" />
    <glyph glyph-name="sixsuperior" unicode="&#x2076;" horiz-adv-x="319" 
d="M164 245q-65 0 -105.5 42.5t-40.5 109.5q0 104 78.5 174.5t202.5 80.5l1 -5q-81 -14 -132 -65t-71 -126l1 -1q47 37 94 37t79 -31t32 -82q0 -58 -40 -96t-99 -38zM167 252q30 0 49 28.5t19 80.5q0 47 -24 76.5t-59 29.5q-36 0 -56 -21q-8 -16 -8 -54q0 -65 20 -102.5
t59 -37.5z" />
    <glyph glyph-name="sevensuperior" unicode="&#x2077;" horiz-adv-x="276" 
d="M48 253l194 315l-1 2h-109q-61 0 -80 -9t-29 -42l-2 -6h-5l14 118h243l1 -3l-167 -375h-59z" />
    <glyph glyph-name="eightsuperior" unicode="&#x2078;" horiz-adv-x="301" 
d="M150 244q-59 0 -96 27t-37 70q0 33 26 56.5t66 32.5v1q-40 21 -61 43.5t-21 55.5q0 43 34.5 76.5t89.5 33.5q56 0 90 -25.5t34 -67.5q0 -27 -24 -47.5t-62 -31.5v-1q46 -23 70 -47t24 -63q0 -47 -38 -80t-95 -33zM182 471q32 32 32 71q0 36 -18.5 64t-49.5 28
q-28 0 -44 -20t-16 -48q0 -33 25 -54t71 -41zM156 251q33 0 51.5 20.5t18.5 50.5q0 25 -18 46t-37.5 32t-54.5 26q-40 -30 -40 -81q0 -39 22 -66.5t58 -27.5z" />
    <glyph glyph-name="ninesuperior" unicode="&#x2079;" horiz-adv-x="319" 
d="M20 233v5q80 14 131 65t71 124l-1 1q-47 -37 -94 -37t-79 31.5t-32 82.5q0 59 40 97t99 38q64 0 105 -43t41 -111q0 -102 -78.5 -172t-202.5 -81zM168 416q34 0 55 20q8 16 8 55q0 143 -79 143q-30 0 -49 -29.5t-19 -80.5q0 -47 24.5 -77.5t59.5 -30.5z" />
    <glyph glyph-name="plussuperior" unicode="&#x207a;" horiz-adv-x="335" 
d="M163 278v161h-158l2 8h156v158h9v-158h156l2 -8h-157l-1 -161h-9z" />
    <glyph glyph-name="minussuperior" unicode="&#x207b;" horiz-adv-x="335" 
d="M306 438h-277l1 7h275z" />
    <glyph glyph-name="zeroinferior" unicode="&#x2080;" horiz-adv-x="335" 
d="M165 -130q-65 0 -105.5 55t-40.5 140q0 83 42.5 139.5t108.5 56.5q65 0 105.5 -55.5t40.5 -138.5q0 -86 -42 -141.5t-109 -55.5zM167 -125q34 0 53.5 49t19.5 137q0 104 -17 149t-56 45q-35 0 -54 -47t-19 -134q0 -107 17.5 -153t55.5 -46z" />
    <glyph glyph-name="oneinferior" unicode="&#x2081;" horiz-adv-x="226" 
d="M35 -123l2 4h15q30 0 30 10v338l-60 8l2 3l129 19v-369q0 -9 35 -9h14l2 -4h-169z" />
    <glyph glyph-name="twoinferior" unicode="&#x2082;" horiz-adv-x="289" 
d="M11 -123l-2 13q54 53 76 75.5t49 56t35.5 58t8.5 52.5q0 41 -21.5 63t-52.5 22q-55 0 -86 -63l-5 1q44 109 131 109q44 0 73.5 -26.5t29.5 -69.5q0 -24 -8 -46t-30.5 -48.5t-37 -41t-55 -51t-55.5 -50.5v-1h161q16 0 48 77l3 6l3 -1l-30 -135h-235z" />
    <glyph glyph-name="threeinferior" unicode="&#x2083;" horiz-adv-x="262" 
d="M93 -144q-38 0 -61 13.5t-23 35.5q0 15 9.5 24.5t25.5 9.5q22 0 34 -20.5t4 -47.5q18 -5 30 -5q33 0 55 26.5t22 63.5q0 46 -23 73t-66 27q-29 0 -54 -10l-2 4q10 5 30 16.5t27 15.5t20.5 12.5t18.5 14t11.5 13.5t8.5 16.5t2 18.5q0 29 -16 45t-45 16q-59 0 -82 -56l-5 1
q18 46 50 73.5t72 27.5t66.5 -22.5t26.5 -55.5q0 -32 -23.5 -51.5t-67.5 -37.5v-2q54 3 85.5 -26.5t31.5 -75.5q0 -55 -49 -96t-113 -41z" />
    <glyph glyph-name="fourinferior" unicode="&#x2084;" horiz-adv-x="308" 
d="M164 -123v98h-158l-1 5l196 284h30v-242h73l-14 -47h-59v-98h-67zM44 22h120v173h-1z" />
    <glyph glyph-name="fiveinferior" unicode="&#x2085;" horiz-adv-x="255" 
d="M86 -144q-83 0 -83 51q0 14 10 24t25 10q23 0 34.5 -22t4.5 -45q13 -8 32 -8q30 0 54 25.5t24 64.5q0 48 -45 77.5t-117 34.5l47 187h168l-13 -63h-163l-15 -63q96 -7 143.5 -43.5t47.5 -91.5q0 -57 -47 -97.5t-107 -40.5z" />
    <glyph glyph-name="sixinferior" unicode="&#x2086;" horiz-adv-x="319" 
d="M164 -131q-65 0 -105.5 42.5t-40.5 109.5q0 104 78.5 174.5t202.5 80.5l1 -5q-81 -14 -132 -65t-71 -126l1 -1q47 37 94 37t79 -31t32 -82q0 -58 -40 -96t-99 -38zM167 -124q30 0 49 28.5t19 80.5q0 47 -24 76.5t-59 29.5q-36 0 -56 -21q-8 -16 -8 -54q0 -65 20 -102.5
t59 -37.5z" />
    <glyph glyph-name="seveninferior" unicode="&#x2087;" horiz-adv-x="276" 
d="M48 -123l194 315l-1 2h-109q-61 0 -80 -9t-29 -42l-2 -6h-5l14 118h243l1 -3l-167 -375h-59z" />
    <glyph glyph-name="eightinferior" unicode="&#x2088;" horiz-adv-x="301" 
d="M150 -132q-59 0 -96 27t-37 70q0 33 26 56.5t66 32.5v1q-40 21 -61 43.5t-21 55.5q0 43 34.5 76.5t89.5 33.5q56 0 90 -25.5t34 -67.5q0 -27 -24 -47.5t-62 -31.5v-1q46 -23 70 -47t24 -63q0 -47 -38 -80t-95 -33zM182 95q32 32 32 71q0 36 -18.5 64t-49.5 28
q-28 0 -44 -20t-16 -48q0 -33 25 -54t71 -41zM156 -125q33 0 51.5 20.5t18.5 50.5q0 25 -18 46t-37.5 32t-54.5 26q-40 -30 -40 -81q0 -39 22 -66.5t58 -27.5z" />
    <glyph glyph-name="nineinferior" unicode="&#x2089;" horiz-adv-x="319" 
d="M20 -143v5q80 14 131 65t71 124l-1 1q-47 -37 -94 -37t-79 31.5t-32 82.5q0 59 40 97t99 38q64 0 105 -43t41 -111q0 -102 -78.5 -172t-202.5 -81zM168 40q34 0 55 20q8 16 8 55q0 143 -79 143q-30 0 -49 -29.5t-19 -80.5q0 -47 24.5 -77.5t59.5 -30.5z" />
    <glyph glyph-name="Euro" unicode="&#x20ac;" horiz-adv-x="502" 
d="M301 -13q-87 0 -154 65t-84 174h-64l3 10h59q-3 34 -3 59q0 36 4 61h-63l3 10h62q23 121 105 193t179 72q66 0 103.5 -21t37.5 -60q0 -21 -17 -37.5t-41 -16.5q-40 0 -54 38t10 65q-24 20 -48 20q-69 0 -116.5 -70.5t-56.5 -182.5h194l3 -10h-197q-1 -12 -1 -39
q0 -37 6 -81h189l3 -10h-188q17 -80 66.5 -126.5t112.5 -46.5q49 0 83 19t62 65l8 -5q-78 -145 -206 -145z" />
    <glyph glyph-name="trademark" unicode="&#x2122;" horiz-adv-x="409" 
d="M188 468l1 3h5q13 0 16 3.5t3 17.5l3 117q-6 10 -18 12l-8 1l-1 3h61l40 -108h1l41 108h62l-1 -3l-12 -1q-12 -1 -12 -4l4 -142q0 -1 14 -3l8 -1l1 -3h-83v3l12 1q10 1 10 4l-2 137h-1l-55 -145h-4l-53 137q0 -1 -1 0l-2 -116q0 -12 4 -15t19 -3h5l1 -3h-58zM57 468v3
l11 1q12 1 12 4v146h-8q-26 0 -49 -45l-2 -4h-3l7 52h148l5 -52h-2l-2 4q-20 45 -47 45h-10v-147q0 -1 14 -3l8 -1v-3h-82z" />
    <glyph glyph-name="minus" unicode="&#x2212;" horiz-adv-x="433" 
d="M396 231h-359l2 12h355z" />
    <glyph glyph-name="uni2215" unicode="&#x2215;" horiz-adv-x="459" 
d="M-12 -13l469 654h14l-469 -654h-14z" />
    <glyph glyph-name="approxequal" unicode="&#x2248;" horiz-adv-x="433" 
d="M118 345q-72 0 -89 -77h-12q16 89 101 89q32 0 99.5 -33.5t97.5 -33.5q72 0 89 77h12q-16 -89 -101 -89q-32 0 -99.5 33.5t-97.5 33.5zM118 181q-72 0 -89 -77h-12q16 89 101 89q32 0 99.5 -33.5t97.5 -33.5q72 0 89 77h12q-16 -89 -101 -89q-32 0 -99.5 33.5t-97.5 33.5
z" />
    <glyph glyph-name="notequal" unicode="&#x2260;" horiz-adv-x="428" 
d="M18 316l-3 12h220l44 155h13l-44 -155h165l-3 -12h-166l-45 -161h211l3 -12h-218l-46 -165h-13l46 165h-167l3 12h168l45 161h-213z" />
    <glyph glyph-name="lessequal" unicode="&#x2264;" horiz-adv-x="420" 
d="M405 103l-394 167v11l394 166l5 -11l-381 -159v-2l381 -161zM410 37h-399l2 12h395z" />
    <glyph glyph-name="greaterequal" unicode="&#x2265;" horiz-adv-x="420" 
d="M410 270l-394 -167l-5 11l381 161v2l-381 159l5 11l394 -166v-11zM410 37h-399l2 12h395z" />
    <glyph glyph-name="pcircle" unicode="&#x24df;" horiz-adv-x="704" 
d="M352 -14q-136 0 -231.5 95.5t-95.5 231.5t95.5 232t231.5 96t231.5 -96t95.5 -232t-95.5 -231.5t-231.5 -95.5zM352 -5q131 0 224 93.5t93 224.5t-93 225t-224 94t-224 -94t-93 -225t93 -224.5t224 -93.5zM206 119l1 6l29 3q28 3 28 10v341q0 4 -18 6h-5q-2 0 -5 0.5
t-6 0.5l-22 2l-2 6h172q75 0 113 -26t38 -71q0 -46 -43 -76.5t-113 -30.5q-7 0 -14.5 0.5t-15 2t-11.5 1.5v-158q0 -7 35 -9l27 -2l2 -6h-190zM372 297q38 0 61.5 26t23.5 67q0 97 -92 98l-33 -1v-184q22 -6 40 -6z" />
    <glyph glyph-name="commaaccent" unicode="&#xf6c3;" horiz-adv-x="379" 
d="M136 -278l-2 4q38 9 60 34t22 55q0 35 -29 49t-55 -4q-11 26 6 52t56 26q38 0 61 -22.5t23 -59.5q0 -42 -41.5 -83t-100.5 -51z" />
    <glyph glyph-name="J.alt" horiz-adv-x="469" 
d="M166 -11q-76 0 -114 27t-38 66q0 27 18.5 45t46.5 18q26 0 43 -17t17 -41q0 -17 -10 -33t-31 -22q18 -34 70 -34q53 0 74.5 33.5t21.5 118.5v453q0 11 -58 14l-39 3l-3 6h309l-3 -6l-47 -4q-47 -4 -47 -16v-464q0 -41 -68.5 -94t-141.5 -53z" />
    <glyph glyph-name="Jcircumflex.alt" horiz-adv-x="469" 
d="M170 680l145 197h4l145 -197h-6l-140 104h-2l-141 -104h-5zM166 -11q-76 0 -114 27t-38 66q0 28 18.5 46t46.5 18q27 0 44 -17t17 -42q0 -43 -42 -55q20 -34 71 -34q53 0 74 33.5t21 118.5v453q0 11 -58 14l-39 3l-3 6h310l-3 -6l-47 -4q-48 -4 -48 -16v-464
q0 -41 -68.5 -94t-141.5 -53z" />
    <glyph glyph-name="zero.alt" horiz-adv-x="551" 
d="M275 -11q-106 0 -175 69.5t-69 178.5q0 108 70 180t176 72q105 0 174.5 -71t69.5 -178q0 -109 -70 -180t-176 -71zM275 -1q101 0 168.5 68.5t67.5 172.5q0 103 -67 171.5t-167 68.5q-101 0 -168.5 -70t-67.5 -173q0 -104 66 -171t168 -67z" />
    <glyph glyph-name="one.alt" horiz-adv-x="339" 
d="M38 0l3 6l31 1q47 1 47 16v428q0 12 -51 14l-27 1l-3 6h262l-3 -6l-30 -1q-48 -3 -48 -16v-428q0 -12 52 -14l26 -1l3 -6h-262z" />
    <glyph glyph-name="dot" horiz-adv-x="209" 
d="M104 165q-28 0 -46.5 18.5t-18.5 45.5q0 25 19 43.5t46 18.5q26 0 44.5 -18.5t18.5 -43.5q0 -27 -18 -45.5t-45 -18.5z" />
    <glyph glyph-name="ampersand.smallcap" horiz-adv-x="550" 
d="M153 -9q-66 0 -105.5 38.5t-39.5 94.5t38 94.5t102 55.5q-33 14 -54 40t-21 57q0 43 44 75.5t94 32.5q56 0 92 -23.5t36 -59.5q0 -32 -28.5 -54t-68.5 -28q36 -17 77.5 -60t62.5 -83q55 77 55 107t-67 33h-5l-4 7h198l-2 -7l-8 -1q-34 -3 -54.5 -16.5t-54.5 -57.5
l-53 -72q32 -71 57.5 -98t57.5 -27q28 0 58 32l5 -5q-21 -22 -33.5 -33.5t-39 -26.5t-50.5 -15q-83 0 -123 101q-91 -101 -166 -101zM235 317q30 21 30 74q0 31 -15.5 55.5t-42.5 24.5q-25 0 -40 -19.5t-15 -48.5q0 -54 83 -86zM204 51q62 0 110 49q-23 57 -64.5 102.5
t-94.5 67.5q-62 -38 -62 -111q0 -45 32 -76.5t79 -31.5z" />
    <glyph glyph-name="at.smallcap" horiz-adv-x="580" 
d="M294 -78q-121 0 -197.5 72t-76.5 186q0 125 86 215t207 90q107 0 177 -66t70 -167q0 -83 -53.5 -146t-121.5 -63q-37 0 -58.5 18.5t-21.5 48.5q0 15 16 63h-1q-44 -70 -72.5 -100t-61.5 -30q-28 0 -49 20.5t-21 49.5q0 42 29 92.5t72 92.5q54 53 102 53q22 0 32.5 -23.5
t5.5 -54.5h1l35 96l77 -3l-49 -126l-35 -88q-25 -73 43 -73q44 0 83.5 50.5t39.5 122.5q0 97 -67.5 161t-171.5 64q-118 0 -201.5 -87.5t-83.5 -209.5q0 -110 74 -180t192 -70q80 0 146.5 40.5t96.5 102.5l7 -3q-31 -64 -99.5 -106t-150.5 -42zM224 89q19 0 45.5 28.5
t53.5 82.5q21 40 21 54q0 24 -15 45t-33 21q-12 0 -25 -11q-25 -24 -50 -81t-25 -97q0 -19 8 -30.5t20 -11.5z" />
    <glyph glyph-name="a.smallcap" horiz-adv-x="498" 
d="M262 197h-127l-25 -70q-28 -77 -24 -96.5t55 -23.5l15 -1l2 -6h-166l3 6l13 1q20 2 29.5 5.5t21.5 21.5t20.5 41t28.5 79l85 238l-8 25q44 12 69 67h13l131 -379q21 -60 35 -78t39 -20l21 -1l2 -6h-239l3 6l21 1q26 2 30 18t-8 50zM139 208h119l-57 171h-1z" />
    <glyph glyph-name="b.smallcap" horiz-adv-x="465" 
d="M13 0l2 6l28 3q35 4 35 11v433q0 7 -42 11l-20 2l-2 6h204q199 0 199 -105q0 -82 -139 -103v-1q76 -5 119.5 -39.5t43.5 -87.5q0 -63 -53 -99.5t-158 -36.5h-217zM217 9l12 1q48 4 78.5 38t30.5 83q0 54 -37 88t-94 34q-22 0 -29 -1v-230zM178 262l20 1q54 0 86 25.5
t32 73.5q0 99 -115 99h-23v-199z" />
    <glyph glyph-name="c.smallcap" horiz-adv-x="518" 
d="M294 -10q-122 0 -197.5 68.5t-75.5 173.5q0 107 75.5 178t203.5 71q70 0 124 -29l48 17l4 -154h-5l-76 134q-32 22 -94 22q-81 0 -126.5 -66t-45.5 -169q0 -106 48.5 -171t120.5 -65q60 0 98 27.5t69 85.5l24 45h4l-25 -135l-25 -5q-23 -9 -68.5 -18.5t-80.5 -9.5z" />
    <glyph glyph-name="d.smallcap" horiz-adv-x="525" 
d="M13 0l2 6l28 3q35 4 35 11v433q0 7 -42 11l-20 2l-2 6h224q130 1 198.5 -60.5t68.5 -171.5q0 -100 -78.5 -170t-201.5 -70h-212zM228 10q80 0 125 62.5t45 152.5q0 111 -45.5 174t-134.5 63h-40v-439z" />
    <glyph glyph-name="e.smallcap" horiz-adv-x="472" 
d="M13 0l2 6l26 3q37 4 37 11v433q0 7 -42 11l-20 2l-2 6h397l7 -155h-6l-4 9q-23 75 -59.5 106t-103.5 30l-67 -1v-215l43 1q49 2 74 17t35 52l4 15h7l-20 -184l-6 1l-1 14q-5 41 -24.5 56t-76.5 18l-35 3v-227l83 -3q130 1 175 140l4 10l7 -1l-20 -158h-414z" />
    <glyph glyph-name="f.smallcap" horiz-adv-x="439" 
d="M13 0l2 6l29 3q34 4 34 11v433q0 5 -6.5 6.5t-34.5 4.5l-21 2l-2 6h392l7 -155h-7l-3 9q-21 75 -57 105.5t-104 30.5l-64 -1v-219l35 2q50 2 74.5 16.5t35.5 51.5l4 15h6l-19 -183h-7l-1 14q-5 42 -25 57.5t-76 17.5h-27v-215q0 -8 42 -10l32 -2l3 -6h-242z" />
    <glyph glyph-name="g.smallcap" horiz-adv-x="543" 
d="M288 -12q-121 0 -194 69t-73 175q0 108 74 179t206 71q72 0 126 -28l48 15l2 -154h-5l-72 133q-36 24 -101 24q-81 0 -125.5 -66t-44.5 -170q0 -112 50 -175t116 -63q54 0 82 21v178q0 6 -52 10l-25 3l-2 6h239l-3 -6l-31 -3q-31 -3 -31 -11v-158l43 9l2 -5
q-46 -22 -112 -38t-117 -16z" />
    <glyph glyph-name="h.smallcap" horiz-adv-x="567" 
d="M13 0l2 6l28 3q35 4 35 11v433q0 7 -42 11l-20 2l-2 6h230l-2 -6l-28 -3q-36 -4 -36 -12v-206h210v208q0 7 -42 11l-21 2l-2 6h231l-3 -6l-28 -3q-35 -4 -35 -12v-433q0 -5 43 -10l20 -2l2 -6h-231l2 6l29 3q35 4 35 11v212h-210v-214q0 -5 44 -10l19 -2l3 -6h-231z" />
    <glyph glyph-name="i.smallcap" horiz-adv-x="275" 
d="M21 0l3 6l29 3q35 4 35 11v433q0 4 -7 6t-36 5l-22 2l-2 6h233l-2 -6l-29 -3q-35 -4 -35 -12v-433q0 -6 42 -10l21 -2l2 -6h-232z" />
    <glyph glyph-name="j.smallcap" horiz-adv-x="268" 
d="M2 -132q-32 0 -52 15.5t-20 39.5q0 21 14.5 36t37.5 15q37 0 47 -34t-17 -60q36 -3 54.5 39.5t18.5 117.5v416q0 4 -7 6t-37 5l-20 2l-2 6h232l-3 -6l-29 -3q-35 -4 -35 -12v-416q0 -37 -63.5 -102t-118.5 -65z" />
    <glyph glyph-name="j.smallcap.alt" horiz-adv-x="374" 
d="M136 -9q-59 0 -91.5 22t-32.5 57q0 24 15 39t39 15q23 0 37.5 -14t14.5 -36q0 -14 -8 -28.5t-23 -20.5q13 -26 51 -26t53 24.5t15 87.5v342q0 8 -44 11l-29 2l-3 6h245l-2 -6l-33 -3q-35 -4 -35 -12v-343q0 -33 -56 -75t-113 -42z" />
    <glyph glyph-name="k.smallcap" horiz-adv-x="529" 
d="M13 0l2 6l29 3q34 4 34 11v433q0 5 -6.5 6.5t-34.5 4.5l-21 2l-2 6h235l-2 -6l-33 -3q-36 -4 -36 -12v-237l114 116q88 89 84 113q-4 16 -52 21l-23 2l-1 6h205l-2 -6l-18 -2q-9 -1 -17 -2.5t-14.5 -3.5t-14.5 -6.5t-13.5 -7.5t-15 -11t-15.5 -13t-19 -18l-21 -20
l-25 -26q-18 -18 -29 -30l-5 -5l146 -242q28 -47 41 -58.5t38 -13.5l13 -1l2 -6h-230l2 6l15 1q16 2 22.5 5.5t6 14.5t-8.5 27.5t-26 47.5l-88 149l-51 -52v-181q0 -7 44 -10l24 -2l2 -6h-235z" />
    <glyph glyph-name="l.smallcap" horiz-adv-x="438" 
d="M13 0l2 6l29 3q34 4 34 11v433q0 5 -6.5 6.5t-34.5 4.5l-21 2l-2 6h242l-3 -6l-39 -3q-36 -5 -36 -12v-440l55 -3q59 0 96 36t77 120l5 10h6l-25 -174h-379z" />
    <glyph glyph-name="m.smallcap" horiz-adv-x="636" 
d="M10 0l2 6l15 1q58 5 58 34l10 401q-19 20 -53 22l-21 2l-2 6h172l125 -339h1l129 339h175l-3 -6l-38 -3q-34 -3 -34 -12l9 -433q0 -7 42 -10l22 -2l2 -6h-235l2 6l37 3q30 3 30 11l-9 417h-1l-167 -437h-10l-159 418l-5 10l-6 -392q0 -24 70 -29l13 -1l2 -6h-173z" />
    <glyph glyph-name="n.smallcap" horiz-adv-x="537" 
d="M447 -4l-340 403h-1v-364q0 -24 66 -28l15 -1l2 -6h-167l2 6l15 1q55 4 55 34l3 368q-40 51 -82 54l-9 1l-2 8h177l264 -318h1v283q0 23 -66 28l-14 1l-3 6h167l-2 -6l-15 -1q-55 -4 -55 -35l-3 -434h-8z" />
    <glyph glyph-name="o.smallcap" horiz-adv-x="559" 
d="M276 -9q-111 0 -183 67.5t-72 176.5q0 98 78 172t184 74q112 0 183.5 -68.5t71.5 -178.5q0 -98 -77.5 -170.5t-184.5 -72.5zM283 1q72 0 109.5 59.5t37.5 175.5q0 109 -41 172t-111 63q-73 0 -111 -60t-38 -176q0 -111 41 -172.5t113 -61.5z" />
    <glyph glyph-name="p.smallcap" horiz-adv-x="458" 
d="M8 0l3 6l32 3q35 3 35 11v433q0 7 -42 11l-25 2l-2 6h228q201 0 201 -116q0 -59 -56 -95t-151 -36q-17 0 -53 3v-210q0 -8 42 -10l32 -2l3 -6h-247zM229 235q46 0 75 30.5t29 81.5q0 115 -109 116l-46 -2v-221q18 -5 51 -5z" />
    <glyph glyph-name="q.smallcap" horiz-adv-x="559" 
d="M451 -136q-75 0 -122.5 26.5t-79.5 101.5q-102 8 -165 76.5t-63 166.5q0 97 78 171t184 74q113 0 184 -70t71 -176q0 -73 -48.5 -136t-125.5 -89q35 -85 79.5 -110t130.5 -13l2 -6q-53 -16 -125 -16zM283 -1q72 0 109.5 60t37.5 176q0 109 -41 172.5t-111 63.5
q-149 0 -149 -238q0 -110 41 -172t113 -62z" />
    <glyph glyph-name="r.smallcap" horiz-adv-x="520" 
d="M8 0l3 6l32 3q35 5 35 11v433q0 7 -42 11l-25 2l-2 6h230q197 2 197 -120q0 -42 -32 -73.5t-84 -40.5l96 -154q28 -44 45 -58.5t46 -18.5l9 -1l2 -6h-166l-7 12l-124 223q-30 7 -43 13v-230q0 -6 42 -10l29 -2l2 -6h-243zM219 250q53 0 82.5 27.5t29.5 77.5t-32 79
t-90 28l-31 -1v-205q20 -6 41 -6z" />
    <glyph glyph-name="s.smallcap" horiz-adv-x="391" 
d="M188 -9q-87 0 -152 25l-9 123h5l32 -59q41 -80 128 -80q47 0 76.5 26t29.5 69t-30 66.5t-89 44.5q-63 22 -100 53t-37 83q0 57 45.5 98t113.5 41q51 0 108 -19l30 10l2 -133h-4l-64 110q-31 23 -74 23q-37 0 -64 -22.5t-27 -54.5q0 -38 27.5 -58.5t86.5 -39.5
q67 -24 105.5 -58t38.5 -92q0 -62 -51.5 -109t-126.5 -47z" />
    <glyph glyph-name="t.smallcap" horiz-adv-x="510" 
d="M135 0l2 6l34 3q35 3 35 11v444h-25q-25 -2 -47.5 -15t-42 -36t-30 -39.5t-25.5 -41.5l-7 -11h-5l24 151h421l15 -150h-4l-5 11q-31 58 -64.5 93.5t-78.5 37.5h-26v-446q0 -7 42 -10l25 -2l3 -6h-241z" />
    <glyph glyph-name="u.smallcap" horiz-adv-x="528" 
d="M273 -12q-104 0 -150.5 39t-46.5 125v301q0 5 -6.5 6.5t-35.5 4.5l-24 2l-3 6h240l-2 -6l-33 -3q-35 -4 -35 -12v-277q0 -148 133 -148q135 0 135 160v251q0 24 -67 28l-14 1l-2 6h167l-2 -6l-15 -1q-55 -5 -55 -35l-3 -245q-1 -98 -43.5 -147.5t-137.5 -49.5z" />
    <glyph glyph-name="v.smallcap" horiz-adv-x="497" 
d="M247 -8l-153 380q-26 62 -37 76.5t-37 15.5l-20 2l-3 6h234l-3 -6l-24 -1q-33 -1 -36 -12t14 -49l111 -282h2l85 223q31 76 28 95.5t-56 23.5l-14 2l-3 6h165l-2 -6l-13 -2q-34 -3 -48 -22t-48 -104l-132 -346h-10z" />
    <glyph glyph-name="w.smallcap" horiz-adv-x="751" 
d="M237 -12l-150 384q-24 60 -35.5 75.5t-37.5 16.5l-17 2l-2 6h231l-2 -6l-23 -1q-30 -1 -34.5 -10.5t6.5 -35.5l113 -296h1l90 224l-10 25q-22 56 -34.5 73.5t-36.5 18.5l-21 2l-3 6h236l-2 -6l-22 -1q-31 -1 -36.5 -10t6.5 -40l106 -288h2l81 219q30 70 26 92t-59 26
l-16 2l-2 6h167l-2 -6l-12 -2q-36 -4 -48.5 -21.5t-44.5 -102.5l-131 -352h-9l-129 344h-1l-136 -344h-9z" />
    <glyph glyph-name="x.smallcap" horiz-adv-x="504" 
d="M-3 0l2 6l22 1q17 2 29 6.5t30.5 25t29 34.5t44.5 61l57 80l-102 160q-7 11 -16.5 26t-13.5 21t-10.5 15.5t-10 13t-9 7.5t-11 5.5t-12.5 1.5l-23 2l-3 6h240l-2 -6l-23 -1q-27 -2 -29.5 -14.5t21.5 -50.5l70 -110h1l39 57q51 73 51.5 92t-48.5 25l-18 2l-2 6h181l-2 -6
l-18 -2q-36 -3 -60 -25.5t-78 -101.5l-40 -55l133 -206q35 -55 45 -62q9 -6 22 -7l17 -1l3 -6h-234l2 6l23 1q27 1 32 11t-9 32l-100 156h-1l-14 -20q-13 -20 -27 -40l-14 -20q-34 -48 -43.5 -71.5t0 -33t40.5 -13.5l19 -2l2 -6h-182z" />
    <glyph glyph-name="y.smallcap" horiz-adv-x="491" 
d="M125 0l2 6l33 3q36 3 36 11v194l-100 179q-23 42 -37 55.5t-39 15.5l-15 2l-3 6h236l-2 -6l-13 -1q-35 -4 -41 -14t7 -32l99 -180h1l55 104q18 34 26 51t13 32.5t-1 21.5t-17 10t-33 6l-16 2l-2 6h173l-2 -6l-21 -2q-30 -3 -49.5 -25.5t-61.5 -101.5l-58 -110v-209
q0 -7 43 -10l25 -2l1 -6h-239z" />
    <glyph glyph-name="z.smallcap" horiz-adv-x="456" 
d="M23 0v4l282 455v1l-65 2q-77 0 -122 -33.5t-68 -98.5l-3 -9h-5l10 151h371v-5l-288 -455v-1l70 -2q89 -2 137 34.5t82 125.5l5 11h6l-25 -180h-387z" />
    <glyph glyph-name="fi.smallcap" horiz-adv-x="714" 
d="M460 0l3 6l29 3q35 4 35 11v433q0 4 -7 6t-36 5l-22 2l-2 6h233l-2 -6l-30 -3q-34 -4 -34 -12v-433q0 -6 42 -10l21 -2l2 -6h-232zM13 0l2 6l29 3q34 4 34 11v433q0 5 -6.5 6.5t-34.5 4.5l-21 2l-2 6h392l7 -155h-7l-3 9q-21 75 -57 105.5t-104 30.5l-64 -1v-219l35 2
q50 2 74.5 16.5t35.5 51.5l4 15h6l-19 -183h-7l-1 14q-5 42 -25 57.5t-76 17.5h-27v-215q0 -8 42 -10l32 -2l3 -6h-242z" />
    <glyph glyph-name="fl.smallcap" horiz-adv-x="876" 
d="M452 0l2 6l29 3q34 4 34 11v433q0 5 -6.5 6.5t-34.5 4.5l-21 2l-2 6h242l-3 -6l-40 -3q-35 -6 -35 -12v-440l54 -3q59 0 96.5 36t77.5 120l4 10h6l-24 -174h-379zM13 0l2 6l29 3q34 4 34 11v433q0 5 -6.5 6.5t-34.5 4.5l-21 2l-2 6h392l7 -155h-7l-3 9q-21 75 -57 105.5
t-104 30.5l-64 -1v-219l35 2q50 2 74.5 16.5t35.5 51.5l4 15h6l-19 -183h-7l-1 14q-5 42 -25 57.5t-76 17.5h-27v-215q0 -8 42 -10l32 -2l3 -6h-242z" />
    <glyph glyph-name="ff.smallcap" horiz-adv-x="879" 
d="M452 0l2 6l30 3q34 4 34 11v433q0 7 -41 11l-22 2l-2 6h393l7 -155h-7l-3 9q-21 75 -57 105.5t-104 30.5l-64 -1v-219l35 2q50 2 74 16.5t35 51.5l4 15h7l-20 -183h-6l-1 14q-5 41 -25 57t-76 18h-27v-215q0 -8 42 -10l32 -2l3 -6h-243zM13 0l2 6l29 3q34 4 34 11v433
q0 5 -6.5 6.5t-34.5 4.5l-21 2l-2 6h393l6 -155h-6l-4 9q-20 75 -56 105.5t-104 30.5l-65 -1v-219l36 2q49 2 73.5 16.5t35.5 51.5l4 15h7l-20 -183h-6l-1 14q-5 41 -25 57t-76 18h-28v-215q0 -8 43 -10l32 -2l2 -6h-242z" />
    <glyph glyph-name="ffi.smallcap" horiz-adv-x="1154" 
d="M452 0l2 6l30 3q34 4 34 11v433q0 7 -41 11l-22 2l-2 6h393l7 -155h-7l-3 9q-21 75 -57 105.5t-104 30.5l-64 -1v-219l35 2q50 2 74 16.5t35 51.5l4 15h7l-20 -183h-6l-1 14q-5 41 -25 57t-76 18h-27v-215q0 -8 42 -10l32 -2l3 -6h-243zM899 0l4 6l28 3q36 4 36 11v433
q0 4 -7 6t-36 5l-22 2l-2 6h233l-2 -6l-29 -3q-35 -4 -35 -12v-433q0 -6 42 -10l21 -2l2 -6h-233zM13 0l2 6l29 3q34 4 34 11v433q0 5 -6.5 6.5t-34.5 4.5l-21 2l-2 6h393l6 -155h-6l-4 9q-20 75 -56 105.5t-104 30.5l-65 -1v-219l36 2q49 2 73.5 16.5t35.5 51.5l4 15h7
l-20 -183h-6l-1 14q-5 41 -25 57t-76 18h-28v-215q0 -8 43 -10l32 -2l2 -6h-242z" />
    <glyph glyph-name="ffl.smallcap" horiz-adv-x="1317" 
d="M452 0l2 6l30 3q34 4 34 11v433q0 7 -41 11l-22 2l-2 6h393l7 -155h-7l-3 9q-21 75 -57 105.5t-104 30.5l-64 -1v-219l35 2q50 2 74 16.5t35 51.5l4 15h7l-20 -183h-6l-1 14q-5 41 -25 57t-76 18h-27v-215q0 -8 42 -10l32 -2l3 -6h-243zM891 0l2 6l30 3q34 4 34 11v433
q0 5 -6.5 6.5t-34.5 4.5l-22 2l-2 6h243l-3 -6l-39 -3q-36 -5 -36 -12v-440l54 -3q59 0 96 36t78 121l5 9h6l-25 -174h-380zM13 0l2 6l29 3q34 4 34 11v433q0 5 -6.5 6.5t-34.5 4.5l-21 2l-2 6h393l6 -155h-6l-4 9q-20 75 -56 105.5t-104 30.5l-65 -1v-219l36 2
q49 2 73.5 16.5t35.5 51.5l4 15h7l-20 -183h-6l-1 14q-5 41 -25 57t-76 18h-28v-215q0 -8 43 -10l32 -2l2 -6h-242z" />
    <glyph glyph-name="germandbls.smallcap" horiz-adv-x="782" 
d="M579 -9q-87 0 -152 25l-9 123h5l32 -59q41 -80 128 -80q47 0 76.5 26t29.5 69t-30 66.5t-89 44.5q-63 22 -100 53t-37 83q0 57 45.5 98t113.5 41q51 0 108 -19l30 10l2 -133h-4l-64 110q-31 23 -74 23q-37 0 -64 -22.5t-27 -54.5q0 -38 27.5 -58.5t86.5 -39.5
q67 -24 105.5 -58t38.5 -92q0 -62 -51.5 -109t-126.5 -47zM188 -9q-87 0 -152 25l-9 123h5l32 -59q41 -80 128 -80q47 0 76.5 26t29.5 69t-30 66.5t-89 44.5q-63 22 -100 53t-37 83q0 57 45.5 98t113.5 41q51 0 108 -19l30 10l2 -133h-4l-64 110q-31 23 -74 23
q-37 0 -64 -22.5t-27 -54.5q0 -38 27.5 -58.5t86.5 -39.5q67 -24 105.5 -58t38.5 -92q0 -62 -51.5 -109t-126.5 -47z" />
    <glyph glyph-name="agrave.smallcap" horiz-adv-x="498" 
d="M262 197h-127l-25 -70q-28 -77 -24 -96.5t55 -23.5l15 -1l2 -6h-166l3 6l13 1q20 2 29.5 5.5t21.5 21.5t20.5 41t28.5 79l85 238l-8 25q44 12 69 67h13l131 -379q21 -60 35 -78t39 -20l21 -1l2 -6h-239l3 6l21 1q26 2 30 18t-8 50zM139 208h119l-57 171h-1zM274 526
l-198 187h105l98 -187h-5z" />
    <glyph glyph-name="aacute.smallcap" horiz-adv-x="498" 
d="M262 197h-127l-25 -70q-28 -77 -24 -96.5t55 -23.5l15 -1l2 -6h-166l3 6l13 1q20 2 29.5 5.5t21.5 21.5t20.5 41t28.5 79l85 238l-8 25q44 12 69 67h13l131 -379q21 -60 35 -78t39 -20l21 -1l2 -6h-239l3 6l21 1q26 2 30 18t-8 50zM139 208h119l-57 171h-1zM205 526
l98 187h105l-198 -187h-5z" />
    <glyph glyph-name="acircumflex.smallcap" horiz-adv-x="498" 
d="M262 197h-127l-25 -70q-28 -77 -24 -96.5t55 -23.5l15 -1l2 -6h-166l3 6l13 1q20 2 29.5 5.5t21.5 21.5t20.5 41t28.5 79l85 238l-8 25q44 12 69 67h13l131 -379q21 -60 35 -78t39 -20l21 -1l2 -6h-239l3 6l21 1q26 2 30 18t-8 50zM139 208h119l-57 171h-1zM110 515
l145 197h4l145 -197h-6l-140 104h-2l-141 -104h-5z" />
    <glyph glyph-name="atilde.smallcap" horiz-adv-x="498" 
d="M262 197h-127l-25 -70q-28 -77 -24 -96.5t55 -23.5l15 -1l2 -6h-166l3 6l13 1q20 2 29.5 5.5t21.5 21.5t20.5 41t28.5 79l85 238l-8 25q44 12 69 67h13l131 -379q21 -60 35 -78t39 -20l21 -1l2 -6h-239l3 6l21 1q26 2 30 18t-8 50zM139 208h119l-57 171h-1zM330 532
q-33 0 -98 31t-84 31q-10 0 -16 -1t-13 -6t-11 -16t-5 -30h-6q6 65 22 89.5t54 24.5q32 0 97 -31t83 -31q22 0 33 9.5t14 44.5h6q-6 -64 -22 -89.5t-54 -25.5z" />
    <glyph glyph-name="adieresis.smallcap" horiz-adv-x="498" 
d="M262 197h-127l-25 -70q-28 -77 -24 -96.5t55 -23.5l15 -1l2 -6h-166l3 6l13 1q20 2 29.5 5.5t21.5 21.5t20.5 41t28.5 79l85 238l-8 25q44 12 69 67h13l131 -379q21 -60 35 -78t39 -20l21 -1l2 -6h-239l3 6l21 1q26 2 30 18t-8 50zM139 208h119l-57 171h-1zM344 542
q-26 0 -41 17.5t-15 37.5q0 21 15 39.5t41 18.5q27 0 42 -18.5t15 -39.5q0 -20 -15 -37.5t-42 -17.5zM157 542q-26 0 -41.5 17.5t-15.5 37.5q0 21 15.5 39.5t41.5 18.5q27 0 42 -18.5t15 -39.5q0 -20 -15 -37.5t-42 -17.5z" />
    <glyph glyph-name="aring.smallcap" horiz-adv-x="498" 
d="M262 197h-127l-25 -70q-28 -77 -24 -96.5t55 -23.5l15 -1l2 -6h-166l3 6l13 1q37 4 52 26t48 121l109 305q-28 8 -44.5 31.5t-16.5 53.5q0 37 24.5 63.5t64.5 26.5t64.5 -26.5t24.5 -63.5q0 -30 -16 -53t-43 -32l31 -89q30 -88 61 -176l31 -89q21 -60 35 -78t39 -20
l21 -1l2 -6h-239l3 6l21 1q26 2 30 18t-8 50zM245 463q36 0 57.5 23.5t21.5 57.5t-21.5 57.5t-57.5 23.5t-57.5 -23.5t-21.5 -57.5t21.5 -57.5t57.5 -23.5zM139 208h119l-57 171h-1z" />
    <glyph glyph-name="aringacute.smallcap" horiz-adv-x="499" 
d="M155 615l98 187h105l-198 -187h-5zM262 197h-127l-25 -70q-28 -77 -24 -96.5t55 -23.5l15 -1l2 -6h-166l3 6l13 1q37 4 52 26t48 121l109 305q-28 8 -44.5 31.5t-16.5 53.5q0 37 24.5 63.5t64.5 26.5t64.5 -26.5t24.5 -63.5q0 -30 -16 -53t-43 -32l31 -89q30 -88 61 -176
l31 -89q21 -60 35 -78t39 -20l21 -1l2 -6h-239l3 6l21 1q26 2 30 18t-8 50zM245 463q36 0 57.5 23.5t21.5 57.5t-21.5 57.5t-57.5 23.5t-57.5 -23.5t-21.5 -57.5t21.5 -57.5t57.5 -23.5zM139 208h119l-57 171h-1z" />
    <glyph glyph-name="amacron.smallcap" horiz-adv-x="499" 
d="M262 197h-127l-25 -70q-28 -77 -24 -96.5t55 -23.5l15 -1l2 -6h-166l3 6l13 1q20 2 29.5 5.5t21.5 21.5t20.5 41t28.5 79l85 238l-8 25q44 12 69 67h13l131 -379q21 -60 35 -78t39 -20l21 -1l2 -6h-239l3 6l21 1q26 2 30 18t-8 50zM139 208h119l-57 171h-1zM102 521
l11 34h252l-11 -34h-252z" />
    <glyph glyph-name="abreve.smallcap" horiz-adv-x="499" 
d="M262 197h-127l-25 -70q-28 -77 -24 -96.5t55 -23.5l15 -1l2 -6h-166l3 6l13 1q20 2 29.5 5.5t21.5 21.5t20.5 41t28.5 79l85 238l-8 25q44 12 69 67h13l131 -379q21 -60 35 -78t39 -20l21 -1l2 -6h-239l3 6l21 1q26 2 30 18t-8 50zM139 208h119l-57 171h-1zM242 501
q-56 0 -84.5 47.5t-47.5 134.5h6q39 -116 128 -116t128 116h6q-18 -87 -47.5 -134.5t-88.5 -47.5z" />
    <glyph glyph-name="aogonek.smallcap" horiz-adv-x="499" 
d="M392 -240q-40 0 -67 24.5t-27 64.5q0 51 45 92.5t97 58.5h-184l3 6l21 1q26 2 30 18t-8 50l-41 122h-126l-25 -70q-28 -77 -24 -96.5t55 -23.5l15 -1l2 -6h-166l3 6l13 1q20 2 29.5 5.5t21.5 21.5t20.5 41t28.5 79l85 238l-8 25q44 12 69 67h13l132 -379q20 -60 34 -78
t40 -20l21 -1l2 -6q-67 -11 -103 -42.5t-36 -81.5q0 -34 19.5 -52.5t53.5 -18.5q32 0 61 31l4 -4q-12 -25 -41 -48.5t-62 -23.5zM139 208h118l-56 171h-1z" />
    <glyph glyph-name="ae.smallcap" horiz-adv-x="655" 
d="M282 199h-138l-41 -76q-32 -62 -28.5 -86t41.5 -29l19 -2l2 -6h-178l3 6l27 3q23 2 45.5 27.5t60.5 96.5l160 296q11 17 5 24t-44 10l-30 2l-2 7h409l8 -155h-7l-3 9q-23 76 -56.5 106.5t-100.5 29.5l-52 -1v-215l28 1q49 2 71 17t32 52l4 15h7l-20 -184h-7v15
q-3 41 -21 56t-72 19l-22 2v-227l68 -3q67 1 105.5 36t64.5 104l3 10l8 -1l-21 -158h-403l1 6l38 3q36 3 36 11v179zM150 210h132v242h-1z" />
    <glyph glyph-name="aeacute.smallcap" horiz-adv-x="655" 
d="M334 496l98 187h105l-198 -187h-5zM282 199h-138l-41 -76q-32 -62 -28.5 -86t41.5 -29l19 -2l2 -6h-178l3 6l27 3q23 2 45.5 27.5t60.5 96.5l160 296q11 17 5 24t-44 10l-30 2l-2 7h409l8 -155h-7l-3 9q-23 76 -56.5 106.5t-100.5 29.5l-52 -1v-215l28 1q49 2 71 17
t32 52l4 15h7l-20 -184h-7v15q-3 41 -21 56t-72 19l-22 2v-227l68 -3q67 1 105.5 36t64.5 104l3 10l8 -1l-21 -158h-403l1 6l38 3q36 3 36 11v179zM150 210h132v242h-1z" />
    <glyph glyph-name="ccedilla.smallcap" horiz-adv-x="518" 
d="M289 -10q-120 1 -194 69.5t-74 172.5q0 107 75.5 178t203.5 71q70 0 124 -29l48 17l4 -154h-5l-76 134q-32 22 -94 22q-81 0 -126.5 -66t-45.5 -169q0 -106 48.5 -171t120.5 -65q60 0 98 27.5t69 85.5l24 45h4l-25 -135l-25 -5q-62 -26 -143 -28l-51 -56q65 12 112 -10.5
t47 -64.5q0 -26 -14 -46t-32.5 -32.5t-51.5 -23t-55.5 -15t-59.5 -10.5l-2 5q77 16 114 35.5t37 55.5q0 56 -84 56q-40 0 -71 -12v7q6 7 16.5 18.5t32.5 36t36 40.5z" />
    <glyph glyph-name="cacute.smallcap" horiz-adv-x="519" 
d="M245 493l98 187h105l-198 -187h-5zM294 -10q-122 0 -197.5 68.5t-75.5 173.5q0 107 75.5 178t203.5 71q70 0 124 -29l48 17l4 -154h-5l-76 134q-32 22 -94 22q-81 0 -126.5 -66t-45.5 -169q0 -106 48.5 -171t120.5 -65q60 0 98 27.5t69 85.5l24 45h4l-25 -135l-25 -5
q-23 -9 -68.5 -18.5t-80.5 -9.5z" />
    <glyph glyph-name="ccircumflex.smallcap" horiz-adv-x="519" 
d="M134 482l145 197h4l145 -197h-6l-140 104h-2l-141 -104h-5zM294 -10q-122 0 -197.5 68.5t-75.5 173.5q0 107 75.5 178t203.5 71q70 0 124 -29l48 17l4 -154h-5l-76 134q-32 22 -94 22q-81 0 -126.5 -66t-45.5 -169q0 -106 48.5 -171t120.5 -65q60 0 98 27.5t69 85.5
l24 45h4l-25 -135l-25 -5q-23 -9 -68.5 -18.5t-80.5 -9.5z" />
    <glyph glyph-name="cdotaccent.smallcap" horiz-adv-x="519" 
d="M294 -10q-122 0 -197.5 68.5t-75.5 173.5q0 107 75.5 178t203.5 71q70 0 124 -29l48 17l4 -154h-5l-76 134q-32 22 -94 22q-81 0 -126.5 -66t-45.5 -169q0 -106 48.5 -171t120.5 -65q60 0 98 27.5t69 85.5l24 45h4l-25 -135l-25 -5q-23 -9 -68.5 -18.5t-80.5 -9.5z
M289 523q-28 0 -44 19t-16 40q0 23 16 42.5t44 19.5t44 -19.5t16 -42.5q0 -22 -16 -40.5t-44 -18.5z" />
    <glyph glyph-name="ccaron.smallcap" horiz-adv-x="519" 
d="M295 502l-145 197h5l141 -104h2l141 104h5l-145 -197h-4zM294 -10q-122 0 -197.5 68.5t-75.5 173.5q0 107 75.5 178t203.5 71q70 0 124 -29l48 17l4 -154h-5l-76 134q-32 22 -94 22q-81 0 -126.5 -66t-45.5 -169q0 -106 48.5 -171t120.5 -65q60 0 98 27.5t69 85.5l24 45
h4l-25 -135l-25 -5q-23 -9 -68.5 -18.5t-80.5 -9.5z" />
    <glyph glyph-name="dcaron.smallcap" horiz-adv-x="530" 
d="M13 0l2 6l28 3q35 4 35 11v433q0 7 -42 11l-20 2l-2 6h224q130 1 198.5 -60.5t68.5 -171.5q0 -100 -78.5 -170t-201.5 -70h-212zM228 10q80 0 125 62.5t45 152.5q0 111 -45.5 174t-134.5 63h-40v-439zM235 505l-145 197h5l141 -104h2l141 104h5l-145 -197h-4z" />
    <glyph glyph-name="eth.smallcap" horiz-adv-x="522" 
d="M78 232h-66l2 10h64v211q0 7 -42 11l-25 2l-2 6h229q130 1 197 -60.5t67 -171.5q0 -100 -77 -170t-200 -70h-217l3 6l32 3q35 3 35 11v212zM178 242h95l2 -10h-97v-209l50 -13q79 0 123 62t44 153q0 111 -44 174t-133 63h-40v-220z" />
    <glyph glyph-name="dcroat.smallcap" horiz-adv-x="522" 
d="M78 232h-66l2 10h64v211q0 7 -42 11l-25 2l-2 6h229q130 1 197 -60.5t67 -171.5q0 -100 -77 -170t-200 -70h-217l3 6l32 3q35 3 35 11v212zM178 242h95l2 -10h-97v-209l50 -13q79 0 123 62t44 153q0 111 -44 174t-133 63h-40v-220z" />
    <glyph glyph-name="egrave.smallcap" horiz-adv-x="472" 
d="M13 0l2 6l26 3q37 4 37 11v433q0 7 -42 11l-20 2l-2 6h397l7 -155h-6l-4 9q-23 75 -59.5 106t-103.5 30l-67 -1v-215l43 1q49 2 74 17t35 52l4 15h7l-20 -184l-6 1l-1 14q-5 41 -24.5 56t-76.5 18l-35 3v-227l83 -3q130 1 175 140l4 10l7 -1l-20 -158h-414zM275 526
l-198 187h105l98 -187h-5z" />
    <glyph glyph-name="eacute.smallcap" horiz-adv-x="472" 
d="M13 0l2 6l26 3q37 4 37 11v433q0 7 -42 11l-20 2l-2 6h397l7 -155h-6l-4 9q-23 75 -59.5 106t-103.5 30l-67 -1v-215l43 1q49 2 74 17t35 52l4 15h7l-20 -184l-6 1l-1 14q-5 41 -24.5 56t-76.5 18l-35 3v-227l83 -3q130 1 175 140l4 10l7 -1l-20 -158h-414zM206 521
l98 187h105l-198 -187h-5z" />
    <glyph glyph-name="ecircumflex.smallcap" horiz-adv-x="472" 
d="M13 0l2 6l26 3q37 4 37 11v433q0 7 -42 11l-20 2l-2 6h397l7 -155h-6l-4 9q-23 75 -59.5 106t-103.5 30l-67 -1v-215l43 1q49 2 74 17t35 52l4 15h7l-20 -184l-6 1l-1 14q-5 41 -24.5 56t-76.5 18l-35 3v-227l83 -3q130 1 175 140l4 10l7 -1l-20 -158h-414zM86 515
l145 197h4l145 -197h-6l-140 104h-2l-141 -104h-5z" />
    <glyph glyph-name="edieresis.smallcap" horiz-adv-x="472" 
d="M13 0l2 6l26 3q37 4 37 11v433q0 7 -42 11l-20 2l-2 6h397l7 -155h-6l-4 9q-23 75 -59.5 106t-103.5 30l-67 -1v-215l43 1q49 2 74 17t35 52l4 15h7l-20 -184l-6 1l-1 14q-5 41 -24.5 56t-76.5 18l-35 3v-227l83 -3q130 1 175 140l4 10l7 -1l-20 -158h-414zM328 542
q-26 0 -41 17.5t-15 37.5q0 21 15 39.5t41 18.5q27 0 42 -18.5t15 -39.5q0 -20 -15 -37.5t-42 -17.5zM141 542q-26 0 -41.5 17.5t-15.5 37.5q0 21 15.5 39.5t41.5 18.5q27 0 42 -18.5t15 -39.5q0 -20 -15 -37.5t-42 -17.5z" />
    <glyph glyph-name="emacron.smallcap" horiz-adv-x="473" 
d="M13 0l2 6l26 3q37 4 37 11v433q0 7 -42 11l-20 2l-2 6h397l7 -155h-6l-4 9q-23 75 -59.5 106t-103.5 30l-67 -1v-215l43 1q49 2 74 17t35 52l4 15h7l-20 -184l-6 1l-1 14q-5 41 -24.5 56t-76.5 18l-35 3v-227l83 -3q130 1 175 140l4 10l7 -1l-20 -158h-414zM104 521
l11 34h252l-11 -34h-252z" />
    <glyph glyph-name="ebreve.smallcap" horiz-adv-x="473" 
d="M13 0l2 6l26 3q37 4 37 11v433q0 7 -42 11l-20 2l-2 6h397l7 -155h-6l-4 9q-23 75 -59.5 106t-103.5 30l-67 -1v-215l43 1q49 2 74 17t35 52l4 15h7l-20 -184l-6 1l-1 14q-5 41 -24.5 56t-76.5 18l-35 3v-227l83 -3q130 1 175 140l4 10l7 -1l-20 -158h-414zM234 491
q-56 0 -84.5 47.5t-47.5 134.5h6q39 -116 128 -116t128 116h6q-18 -87 -47.5 -134.5t-88.5 -47.5z" />
    <glyph glyph-name="edotaccent.smallcap" horiz-adv-x="473" 
d="M13 0l2 6l26 3q37 4 37 11v433q0 7 -42 11l-20 2l-2 6h397l7 -155h-6l-4 9q-23 75 -59.5 106t-103.5 30l-67 -1v-215l43 1q49 2 74 17t35 52l4 15h7l-20 -184l-6 1l-1 14q-5 41 -24.5 56t-76.5 18l-35 3v-227l83 -3q130 1 175 140l4 10l7 -1l-20 -158h-414zM234 519
q-28 0 -44 19t-16 40q0 23 16 42.5t44 19.5t44 -19.5t16 -42.5q0 -22 -16 -40.5t-44 -18.5z" />
    <glyph glyph-name="eogonek.smallcap" horiz-adv-x="473" 
d="M338 -240q-40 0 -66 26t-26 65q0 87 122 149h-355l2 6l26 3q37 4 37 11v433q0 7 -42 11l-20 2l-2 6h397l8 -155h-7l-3 9q-23 75 -60 106t-104 30l-67 -1v-215l43 1q49 2 74 17t36 52l4 15h6l-20 -184l-6 1l-1 14q-5 42 -24.5 56.5t-76.5 17.5l-35 3v-227l83 -3
q130 1 176 140l3 10l8 -1l-20 -158h-42q-82 -49 -82 -122q0 -35 19 -54t53 -19q33 0 61 31l4 -4q-12 -25 -40.5 -48.5t-62.5 -23.5z" />
    <glyph glyph-name="ecaron.smallcap" horiz-adv-x="473" 
d="M231 485l-145 197h5l141 -104h2l141 104h5l-145 -197h-4zM13 0l2 6l26 3q37 4 37 11v433q0 7 -42 11l-20 2l-2 6h397l7 -155h-6l-4 9q-23 75 -59.5 106t-103.5 30l-67 -1v-215l43 1q49 2 74 17t35 52l4 15h7l-20 -184l-6 1l-1 14q-5 41 -24.5 56t-76.5 18l-35 3v-227
l83 -3q130 1 175 140l4 10l7 -1l-20 -158h-414z" />
    <glyph glyph-name="gcircumflex.smallcap" horiz-adv-x="543" 
d="M137 482l145 197h4l145 -197h-6l-140 104h-2l-141 -104h-5zM288 -12q-121 0 -194 69t-73 175q0 108 74 179t206 71q72 0 126 -28l48 15l2 -154h-5l-72 133q-36 24 -101 24q-81 0 -125.5 -66t-44.5 -170q0 -112 50 -175t116 -63q54 0 82 21v178q0 6 -52 10l-25 3l-2 6h239
l-3 -6l-31 -3q-31 -3 -31 -11v-158l43 9l2 -5q-46 -22 -112 -38t-117 -16z" />
    <glyph glyph-name="gbreve.smallcap" horiz-adv-x="543" 
d="M288 -12q-121 0 -194 69t-73 175q0 108 74 179t206 71q72 0 126 -28l48 15l2 -154h-5l-72 133q-36 24 -101 24q-81 0 -125.5 -66t-44.5 -170q0 -112 50 -175t116 -63q54 0 82 21v178q0 6 -52 10l-25 3l-2 6h239l-3 -6l-31 -3q-31 -3 -31 -11v-158l43 9l2 -5
q-46 -22 -112 -38t-117 -16zM291 492q-56 0 -84.5 47.5t-47.5 134.5h6q39 -116 128 -116t128 116h6q-18 -87 -47.5 -134.5t-88.5 -47.5z" />
    <glyph glyph-name="gdotaccent.smallcap" horiz-adv-x="543" 
d="M288 -12q-121 0 -194 69t-73 175q0 108 74 179t206 71q72 0 126 -28l48 15l2 -154h-5l-72 133q-36 24 -101 24q-81 0 -125.5 -66t-44.5 -170q0 -112 50 -175t116 -63q54 0 82 21v178q0 6 -52 10l-25 3l-2 6h239l-3 -6l-31 -3q-31 -3 -31 -11v-158l43 9l2 -5
q-46 -22 -112 -38t-117 -16zM295 521q-28 0 -44 19t-16 40q0 23 16 42.5t44 19.5t44 -19.5t16 -42.5q0 -22 -16 -40.5t-44 -18.5z" />
    <glyph glyph-name="gcommaaccent.smallcap" horiz-adv-x="543" 
d="M226 -278l-2 4q38 9 60 34t22 55q0 35 -29 49t-55 -4q-11 26 6 52t56 26q38 0 61 -22.5t23 -59.5q0 -42 -41.5 -83t-100.5 -51zM288 -12q-121 0 -194 69t-73 175q0 108 74 179t206 71q72 0 126 -28l48 15l2 -154h-5l-72 133q-36 24 -101 24q-81 0 -125.5 -66t-44.5 -170
q0 -112 50 -175t116 -63q54 0 82 21v178q0 6 -52 10l-25 3l-2 6h239l-3 -6l-31 -3q-31 -3 -31 -11v-158l43 9l2 -5q-46 -22 -112 -38t-117 -16z" />
    <glyph glyph-name="hcircumflex.smallcap" horiz-adv-x="567" 
d="M136 492l145 197h4l145 -197h-6l-140 104h-2l-141 -104h-5zM13 0l2 6l28 3q35 4 35 11v433q0 7 -42 11l-20 2l-2 6h230l-2 -6l-28 -3q-36 -4 -36 -12v-206h210v208q0 7 -42 11l-21 2l-2 6h231l-3 -6l-28 -3q-35 -4 -35 -12v-433q0 -5 43 -10l20 -2l2 -6h-231l2 6l29 3
q35 4 35 11v212h-210v-214q0 -5 44 -10l19 -2l3 -6h-231z" />
    <glyph glyph-name="hbar.smallcap" horiz-adv-x="567" 
d="M-4 329l10 32h72v92q0 7 -42 11l-20 2l-2 6h230l-2 -6l-28 -3q-36 -4 -36 -12v-90h210v92q0 7 -42 11l-21 2l-2 6h232l-3 -6l-28 -3q-36 -4 -36 -12v-90h82l-11 -32h-71v-311q0 -5 44 -10l20 -2l2 -6h-232l2 6l29 3q35 4 35 11v212h-210v-214q0 -5 44 -10l19 -2l4 -6
h-232l2 6l28 3q35 4 35 11v309h-82zM178 245h210v84h-210v-84z" />
    <glyph glyph-name="igrave.smallcap" horiz-adv-x="275" 
d="M21 0l3 6l29 3q35 4 35 11v433q0 4 -7 6t-36 5l-22 2l-2 6h233l-2 -6l-29 -3q-35 -4 -35 -12v-433q0 -6 42 -10l21 -2l2 -6h-232zM177 526l-198 187h105l98 -187h-5z" />
    <glyph glyph-name="iacute.smallcap" horiz-adv-x="275" 
d="M21 0l3 6l29 3q35 4 35 11v433q0 4 -7 6t-36 5l-22 2l-2 6h233l-2 -6l-29 -3q-35 -4 -35 -12v-433q0 -6 42 -10l21 -2l2 -6h-232zM91 526l98 187h105l-198 -187h-5z" />
    <glyph glyph-name="icircumflex.smallcap" horiz-adv-x="275" 
d="M21 0l3 6l29 3q35 4 35 11v433q0 4 -7 6t-36 5l-22 2l-2 6h233l-2 -6l-29 -3q-35 -4 -35 -12v-433q0 -6 42 -10l21 -2l2 -6h-232zM-8 515l145 197h4l145 -197h-6l-140 104h-2l-141 -104h-5z" />
    <glyph glyph-name="idieresis.smallcap" horiz-adv-x="275" 
d="M21 0l3 6l29 3q35 4 35 11v433q0 4 -7 6t-36 5l-22 2l-2 6h233l-2 -6l-29 -3q-35 -4 -35 -12v-433q0 -6 42 -10l21 -2l2 -6h-232zM233 542q-26 0 -41 17.5t-15 37.5q0 21 15 39.5t41 18.5q27 0 42 -18.5t15 -39.5q0 -20 -15 -37.5t-42 -17.5zM46 542q-26 0 -41.5 17.5
t-15.5 37.5q0 21 15.5 39.5t41.5 18.5q27 0 42 -18.5t15 -39.5q0 -20 -15 -37.5t-42 -17.5z" />
    <glyph glyph-name="imacron.smallcap" horiz-adv-x="276" 
d="M21 0l3 6l29 3q35 4 35 11v433q0 4 -7 6t-36 5l-22 2l-2 6h233l-2 -6l-29 -3q-35 -4 -35 -12v-433q0 -6 42 -10l21 -2l2 -6h-232zM8 521l11 34h252l-11 -34h-252z" />
    <glyph glyph-name="ibreve.smallcap" horiz-adv-x="276" 
d="M21 0l3 6l29 3q35 4 35 11v433q0 4 -7 6t-36 5l-22 2l-2 6h233l-2 -6l-29 -3q-35 -4 -35 -12v-433q0 -6 42 -10l21 -2l2 -6h-232zM136 491q-56 0 -84.5 47.5t-47.5 134.5h6q39 -116 128 -116t128 116h6q-18 -87 -47.5 -134.5t-88.5 -47.5z" />
    <glyph glyph-name="iogonek.smallcap" horiz-adv-x="276" 
d="M151 -240q-40 0 -66 26t-26 65q0 87 121 149h-159l3 6l29 3q35 4 35 11v433q0 4 -7 6t-36 5l-22 2l-2 6h234l-2 -6l-30 -3q-35 -4 -35 -12v-433q0 -6 42 -10l22 -2l2 -6q-65 -11 -101 -42.5t-36 -79.5q0 -35 19 -54t53 -19q33 0 61 31l4 -4q-12 -25 -40.5 -48.5
t-62.5 -23.5z" />
    <glyph glyph-name="idotaccent.smallcap" horiz-adv-x="276" 
d="M21 0l3 6l29 3q35 4 35 11v433q0 4 -7 6t-36 5l-22 2l-2 6h233l-2 -6l-29 -3q-35 -4 -35 -12v-433q0 -6 42 -10l21 -2l2 -6h-232zM147 521q-28 0 -44 19t-16 40q0 23 16 42.5t44 19.5t44 -19.5t16 -42.5q0 -22 -16 -40.5t-44 -18.5z" />
    <glyph glyph-name="dotlessi.smallcap" horiz-adv-x="275" 
d="M21 0l3 6l29 3q35 4 35 11v433q0 4 -7 6t-36 5l-22 2l-2 6h233l-2 -6l-29 -3q-35 -4 -35 -12v-433q0 -6 42 -10l21 -2l2 -6h-232z" />
    <glyph glyph-name="jcircumflex.smallcap" horiz-adv-x="268" 
d="M2 -132q-32 0 -52.5 15.5t-20.5 39.5q0 21 15 36t37 15q38 0 48.5 -34t-17.5 -60q36 -3 54.5 39.5t18.5 117.5v416q0 4 -7 6t-37 5l-20 2l-2 6h232l-2 -6l-30 -3q-34 -4 -34 -12v-415q0 -38 -64 -103t-119 -65zM-11 486l145 197h4l145 -197h-6l-140 104h-2l-141 -104h-5z
" />
    <glyph glyph-name="jcircumflex.smallcap.alt" horiz-adv-x="374" 
d="M103 486l145 197h4l145 -197h-6l-140 104h-2l-141 -104h-5zM136 -9q-59 0 -91.5 22t-32.5 57q0 24 15 39t39 15q23 0 37.5 -14t14.5 -36q0 -14 -8 -28.5t-23 -20.5q13 -26 51 -26t53 24.5t15 87.5v342q0 8 -44 11l-29 2l-3 6h245l-2 -6l-33 -3q-35 -4 -35 -12v-343
q0 -33 -56 -75t-113 -42z" />
    <glyph glyph-name="dotlessj.smallcap" horiz-adv-x="268" 
d="M2 -132q-32 0 -52.5 15.5t-20.5 39.5q0 21 15 36t37 15q38 0 48.5 -34t-17.5 -60q36 -3 54.5 39.5t18.5 117.5v416q0 4 -7 6t-37 5l-20 2l-2 6h232l-2 -6l-30 -3q-34 -4 -34 -12v-415q0 -38 -64 -103t-119 -65z" />
    <glyph glyph-name="kcommaaccent.smallcap" horiz-adv-x="529" 
d="M201 -285l-2 4q38 9 60 34t22 55q0 35 -29 49t-55 -4q-11 26 6 52t56 26q38 0 61 -22.5t23 -59.5q0 -42 -41.5 -83t-100.5 -51zM13 0l2 6l29 3q34 4 34 11v433q0 5 -6.5 6.5t-34.5 4.5l-21 2l-2 6h235l-2 -6l-33 -3q-36 -4 -36 -12v-237l114 116q88 89 84 113
q-4 16 -52 21l-23 2l-1 6h205l-2 -6l-18 -2q-9 -1 -17 -2.5t-14.5 -3.5t-14.5 -6.5t-13.5 -7.5t-15 -11t-15.5 -13t-19 -18l-21 -20l-25 -26q-18 -18 -29 -30l-5 -5l146 -242q28 -47 41 -58.5t38 -13.5l13 -1l2 -6h-230l2 6l15 1q16 2 22.5 5.5t6 14.5t-8.5 27.5t-26 47.5
l-88 149l-51 -52v-181q0 -7 44 -10l24 -2l2 -6h-235z" />
    <glyph glyph-name="lacute.smallcap" horiz-adv-x="438" 
d="M88 493l98 187h105l-198 -187h-5zM13 0l2 6l29 3q34 4 34 11v433q0 5 -6.5 6.5t-34.5 4.5l-21 2l-2 6h242l-3 -6l-39 -3q-36 -5 -36 -12v-440l55 -3q59 0 96 36t77 120l5 10h6l-25 -174h-379z" />
    <glyph glyph-name="lcommaaccent.smallcap" horiz-adv-x="438" 
d="M160 -288l-2 4q38 9 60 34t22 55q0 35 -29 49t-55 -4q-11 26 6 52t56 26q38 0 61 -22.5t23 -59.5q0 -42 -41.5 -83t-100.5 -51zM13 0l2 6l29 3q34 4 34 11v433q0 5 -6.5 6.5t-34.5 4.5l-21 2l-2 6h242l-3 -6l-39 -3q-36 -5 -36 -12v-440l55 -3q59 0 96 36t77 120l5 10h6
l-25 -174h-379z" />
    <glyph glyph-name="lcaron.smallcap" horiz-adv-x="626" 
d="M436 234l-4 4q39 20 61.5 49.5t22.5 62.5q0 19 -9 33t-21.5 20.5t-25 9.5t-21.5 5l-9 1q0 23 17 43t47 20q39 0 62.5 -26.5t23.5 -65.5q0 -47 -38 -89.5t-106 -66.5zM13 0l2 6l29 3q34 4 34 11v433q0 5 -6.5 6.5t-34.5 4.5l-21 2l-2 6h242l-3 -6l-39 -3q-36 -5 -36 -12
v-440l55 -3q59 0 96 36t77 120l5 10h6l-25 -174h-379z" />
    <glyph glyph-name="ldotaccent.smallcap" horiz-adv-x="608" 
d="M534 182q-28 0 -46.5 19t-18.5 45q0 25 19 43.5t46 18.5q26 0 44.5 -18.5t18.5 -43.5q0 -27 -18 -45.5t-45 -18.5zM13 0l2 6l29 3q34 4 34 11v433q0 5 -6.5 6.5t-34.5 4.5l-21 2l-2 6h242l-3 -6l-39 -3q-36 -5 -36 -12v-440l55 -3q59 0 96 36t77 120l5 10h6l-25 -174
h-379z" />
    <glyph glyph-name="lslash.smallcap" horiz-adv-x="440" 
d="M80 211l-75 -24l2 11l73 24v230q0 6 -43 10l-24 2l-2 8h247l-3 -8l-40 -3q-35 -3 -35 -11v-196l76 25l1 -10l-77 -25v-233l54 -3q60 0 98 36t76 120l5 10h6l-24 -174h-385l3 8l32 3q35 4 35 11v189z" />
    <glyph glyph-name="ntilde.smallcap" horiz-adv-x="537" 
d="M447 -4l-340 403h-1v-364q0 -24 66 -28l15 -1l2 -6h-167l2 6l15 1q55 4 55 34l3 368q-40 51 -82 54l-9 1l-2 8h177l264 -318h1v283q0 23 -66 28l-14 1l-3 6h167l-2 -6l-15 -1q-55 -4 -55 -35l-3 -434h-8zM370 532q-33 0 -98 31t-84 31q-10 0 -16 -1t-13 -6t-11 -16
t-5 -30h-6q6 65 22 89.5t54 24.5q32 0 97 -31t83 -31q22 0 33 9.5t14 44.5h6q-6 -64 -22 -89.5t-54 -25.5z" />
    <glyph glyph-name="nacute.smallcap" horiz-adv-x="537" 
d="M249 493l98 187h105l-198 -187h-5zM447 -4l-340 403h-1v-364q0 -24 66 -28l15 -1l2 -6h-167l2 6l15 1q55 4 55 34l3 368q-40 51 -82 54l-9 1l-2 8h177l264 -318h1v283q0 23 -66 28l-14 1l-3 6h167l-2 -6l-15 -1q-55 -4 -55 -35l-3 -434h-8z" />
    <glyph glyph-name="ncommaaccent.smallcap" horiz-adv-x="537" 
d="M218 -283l-2 4q38 9 60 34t22 55q0 35 -29 49t-55 -4q-11 26 6 52t56 26q38 0 61 -22.5t23 -59.5q0 -42 -41.5 -83t-100.5 -51zM447 -4l-340 403h-1v-364q0 -24 66 -28l15 -1l2 -6h-167l2 6l15 1q55 4 55 34l3 368q-40 51 -82 54l-9 1l-2 8h177l264 -318h1v283
q0 23 -66 28l-14 1l-3 6h167l-2 -6l-15 -1q-55 -4 -55 -35l-3 -434h-8z" />
    <glyph glyph-name="ncaron.smallcap" horiz-adv-x="537" 
d="M284 485l-145 197h5l141 -104h2l141 104h5l-145 -197h-4zM447 -4l-340 403h-1v-364q0 -24 66 -28l15 -1l2 -6h-167l2 6l15 1q55 4 55 34l3 368q-40 51 -82 54l-9 1l-2 8h177l264 -318h1v283q0 23 -66 28l-14 1l-3 6h167l-2 -6l-15 -1q-55 -4 -55 -35l-3 -434h-8z" />
    <glyph glyph-name="ograve.smallcap" horiz-adv-x="559" 
d="M276 -9q-111 0 -183 67.5t-72 176.5q0 98 78 172t184 74q112 0 183.5 -68.5t71.5 -178.5q0 -98 -77.5 -170.5t-184.5 -72.5zM283 1q72 0 109.5 59.5t37.5 175.5q0 109 -41 172t-111 63q-73 0 -111 -60t-38 -176q0 -111 41 -172.5t113 -61.5zM313 526l-198 187h105
l98 -187h-5z" />
    <glyph glyph-name="oacute.smallcap" horiz-adv-x="559" 
d="M276 -9q-111 0 -183 67.5t-72 176.5q0 98 78 172t184 74q112 0 183.5 -68.5t71.5 -178.5q0 -98 -77.5 -170.5t-184.5 -72.5zM283 1q72 0 109.5 59.5t37.5 175.5q0 109 -41 172t-111 63q-73 0 -111 -60t-38 -176q0 -111 41 -172.5t113 -61.5zM242 526l98 187h105
l-198 -187h-5z" />
    <glyph glyph-name="ocircumflex.smallcap" horiz-adv-x="559" 
d="M276 -9q-111 0 -183 67.5t-72 176.5q0 98 78 172t184 74q112 0 183.5 -68.5t71.5 -178.5q0 -98 -77.5 -170.5t-184.5 -72.5zM283 1q72 0 109.5 59.5t37.5 175.5q0 109 -41 172t-111 63q-73 0 -111 -60t-38 -176q0 -111 41 -172.5t113 -61.5zM136 515l145 197h4l145 -197
h-6l-140 104h-2l-141 -104h-5z" />
    <glyph glyph-name="otilde.smallcap" horiz-adv-x="559" 
d="M276 -9q-111 0 -183 67.5t-72 176.5q0 98 78 172t184 74q112 0 183.5 -68.5t71.5 -178.5q0 -98 -77.5 -170.5t-184.5 -72.5zM283 1q72 0 109.5 59.5t37.5 175.5q0 109 -41 172t-111 63q-73 0 -111 -60t-38 -176q0 -111 41 -172.5t113 -61.5zM365 532q-33 0 -98 31t-84 31
q-10 0 -16 -1t-13 -6t-11 -16t-5 -30h-6q6 65 22 89.5t54 24.5q32 0 97 -31t83 -31q22 0 33 9.5t14 44.5h6q-6 -64 -22 -89.5t-54 -25.5z" />
    <glyph glyph-name="odieresis.smallcap" horiz-adv-x="559" 
d="M276 -9q-111 0 -183 67.5t-72 176.5q0 98 78 172t184 74q112 0 183.5 -68.5t71.5 -178.5q0 -98 -77.5 -170.5t-184.5 -72.5zM283 1q72 0 109.5 59.5t37.5 175.5q0 109 -41 172t-111 63q-73 0 -111 -60t-38 -176q0 -111 41 -172.5t113 -61.5zM375 542q-26 0 -41 17.5
t-15 37.5q0 21 15 39.5t41 18.5q27 0 42 -18.5t15 -39.5q0 -20 -15 -37.5t-42 -17.5zM188 542q-26 0 -41.5 17.5t-15.5 37.5q0 21 15.5 39.5t41.5 18.5q27 0 42 -18.5t15 -39.5q0 -20 -15 -37.5t-42 -17.5z" />
    <glyph glyph-name="omacron.smallcap" horiz-adv-x="560" 
d="M149 521l11 34h252l-11 -34h-252zM276 -9q-111 0 -183 67.5t-72 176.5q0 98 78 172t184 74q112 0 183.5 -68.5t71.5 -178.5q0 -98 -77.5 -170.5t-184.5 -72.5zM283 1q72 0 109.5 59.5t37.5 175.5q0 109 -41 172t-111 63q-73 0 -111 -60t-38 -176q0 -111 41 -172.5
t113 -61.5z" />
    <glyph glyph-name="obreve.smallcap" horiz-adv-x="560" 
d="M276 -9q-111 0 -183 67.5t-72 176.5q0 98 78 172t184 74q112 0 183.5 -68.5t71.5 -178.5q0 -98 -77.5 -170.5t-184.5 -72.5zM283 1q72 0 109.5 59.5t37.5 175.5q0 109 -41 172t-111 63q-73 0 -111 -60t-38 -176q0 -111 41 -172.5t113 -61.5zM274 491q-56 0 -84.5 47.5
t-47.5 134.5h6q39 -116 128 -116t128 116h6q-18 -87 -47.5 -134.5t-88.5 -47.5z" />
    <glyph glyph-name="ohungarumlaut.smallcap" horiz-adv-x="560" 
d="M326 496l96 187h100l-188 -187h-8zM162 496l97 187h99l-187 -187h-9zM276 -9q-111 0 -183 67.5t-72 176.5q0 98 78 172t184 74q112 0 183.5 -68.5t71.5 -178.5q0 -98 -77.5 -170.5t-184.5 -72.5zM283 1q72 0 109.5 59.5t37.5 175.5q0 109 -41 172t-111 63q-73 0 -111 -60
t-38 -176q0 -111 41 -172.5t113 -61.5z" />
    <glyph glyph-name="oslash.smallcap" horiz-adv-x="559" 
d="M413 451q58 -31 91.5 -87.5t33.5 -129.5q0 -98 -77.5 -170.5t-184.5 -72.5q-63 0 -115 23l-40 -70h-12l42 74q-60 30 -95 86.5t-35 130.5q0 98 78 172t184 74q65 0 120 -25l36 63h13zM173 56l209 364q-40 51 -104 51q-149 0 -149 -236q0 -116 44 -179zM389 410l-209 -363
q40 -46 103 -46q147 0 147 235q0 112 -41 174z" />
    <glyph glyph-name="oslashacute.smallcap" horiz-adv-x="560" 
d="M413 451q58 -31 91.5 -87.5t33.5 -129.5q0 -98 -77.5 -170.5t-184.5 -72.5q-63 0 -115 23l-40 -70h-12l42 74q-60 30 -95 86.5t-35 130.5q0 98 78 172t184 74q65 0 120 -25l36 63h13zM173 56l209 364q-40 51 -104 51q-149 0 -149 -236q0 -116 44 -179zM389 410l-209 -363
q40 -46 103 -46q147 0 147 235q0 112 -41 174zM265 495l98 187h105l-198 -187h-5z" />
    <glyph glyph-name="oe.smallcap" horiz-adv-x="721" 
d="M286 0q-130 0 -197.5 61t-67.5 171q0 100 78 170t200 70h361l7 -155h-7l-3 9q-21 77 -57 107.5t-103 28.5l-52 -1v-215l28 1q48 2 71 17.5t35 51.5l5 15h6l-19 -184l-7 1l-1 14q-3 42 -22 56.5t-76 18.5l-20 2v-227l68 -3q68 1 107.5 36.5t64.5 103.5l5 10l6 -1l-20 -158
h-390zM306 10h39v439l-50 14q-79 -1 -122.5 -63t-43.5 -153q0 -111 44 -174t133 -63z" />
    <glyph glyph-name="thorn.smallcap" horiz-adv-x="454" 
d="M12 0l3 8l33 3q35 4 35 11v430q0 6 -43 10l-25 2l-2 8h239l-2 -8l-32 -3q-36 -3 -36 -11v-78h50q201 0 201 -119q0 -60 -56 -97.5t-150 -37.5q-29 0 -45 3v-101q0 -7 43 -10l32 -2l2 -8h-247zM224 127q46 0 75 32.5t29 83.5q0 58 -27 90t-82 30l-37 -2v-229q25 -5 42 -5z
" />
    <glyph glyph-name="racute.smallcap" horiz-adv-x="521" 
d="M174 493l98 187h105l-198 -187h-5zM8 0l3 6l32 3q35 5 35 11v433q0 7 -42 11l-25 2l-2 6h230q197 2 197 -120q0 -42 -32 -73.5t-84 -40.5l96 -154q28 -44 45 -58.5t46 -18.5l9 -1l2 -6h-166l-7 12l-124 223q-30 7 -43 13v-230q0 -6 42 -10l29 -2l2 -6h-243zM219 250
q53 0 82.5 27.5t29.5 77.5t-32 79t-90 28l-31 -1v-205q20 -6 41 -6z" />
    <glyph glyph-name="rcommaaccent.smallcap" horiz-adv-x="521" 
d="M195 -285l-2 4q38 9 60 34t22 55q0 35 -29 49t-55 -4q-11 26 6 52t56 26q38 0 61 -22.5t23 -59.5q0 -42 -41.5 -83t-100.5 -51zM8 0l3 6l32 3q35 5 35 11v433q0 7 -42 11l-25 2l-2 6h230q197 2 197 -120q0 -42 -32 -73.5t-84 -40.5l96 -154q28 -44 45 -58.5t46 -18.5
l9 -1l2 -6h-166l-7 12l-124 223q-30 7 -43 13v-230q0 -6 42 -10l29 -2l2 -6h-243zM219 250q53 0 82.5 27.5t29.5 77.5t-32 79t-90 28l-31 -1v-205q20 -6 41 -6z" />
    <glyph glyph-name="rcaron.smallcap" horiz-adv-x="521" 
d="M223 492l-145 197h5l141 -104h2l141 104h5l-145 -197h-4zM8 0l3 6l32 3q35 5 35 11v433q0 7 -42 11l-25 2l-2 6h230q197 2 197 -120q0 -42 -32 -73.5t-84 -40.5l96 -154q28 -44 45 -58.5t46 -18.5l9 -1l2 -6h-166l-7 12l-124 223q-30 7 -43 13v-230q0 -6 42 -10l29 -2
l2 -6h-243zM219 250q53 0 82.5 27.5t29.5 77.5t-32 79t-90 28l-31 -1v-205q20 -6 41 -6z" />
    <glyph glyph-name="sacute.smallcap" horiz-adv-x="392" 
d="M140 493l98 187h105l-198 -187h-5zM188 -9q-87 0 -152 25l-9 123h5l32 -59q41 -80 128 -80q47 0 76.5 26t29.5 69t-30 66.5t-89 44.5q-63 22 -100 53t-37 83q0 57 45.5 98t113.5 41q51 0 108 -19l30 10l2 -133h-4l-64 110q-31 23 -74 23q-37 0 -64 -22.5t-27 -54.5
q0 -38 27.5 -58.5t86.5 -39.5q67 -24 105.5 -58t38.5 -92q0 -62 -51.5 -109t-126.5 -47z" />
    <glyph glyph-name="scircumflex.smallcap" horiz-adv-x="392" 
d="M66 482l145 197h4l145 -197h-6l-140 104h-2l-141 -104h-5zM188 -9q-87 0 -152 25l-9 123h5l32 -59q41 -80 128 -80q47 0 76.5 26t29.5 69t-30 66.5t-89 44.5q-63 22 -100 53t-37 83q0 57 45.5 98t113.5 41q51 0 108 -19l30 10l2 -133h-4l-64 110q-31 23 -74 23
q-37 0 -64 -22.5t-27 -54.5q0 -38 27.5 -58.5t86.5 -39.5q67 -24 105.5 -58t38.5 -92q0 -62 -51.5 -109t-126.5 -47z" />
    <glyph glyph-name="scedilla.smallcap" horiz-adv-x="392" 
d="M81 -268l-2 5q77 16 114 35.5t37 55.5q0 56 -84 56q-40 0 -71 -12v7l101 112q-84 3 -140 25l-9 123h5l32 -59q41 -80 128 -80q47 0 76.5 26t29.5 69t-30 66.5t-89 44.5q-63 22 -100 53t-37 83q0 57 45.5 98t113.5 41q51 0 108 -19l30 10l2 -133h-4l-64 110q-31 23 -74 23
q-37 0 -64 -22.5t-27 -54.5q0 -38 27.5 -58.5t86.5 -39.5q67 -24 105.5 -58t38.5 -92q0 -62 -51.5 -109t-126.5 -47h-2l-51 -57q65 12 112 -10.5t47 -64.5q0 -26 -14 -46t-32.5 -32.5t-51.5 -23t-55.5 -15t-59.5 -10.5z" />
    <glyph glyph-name="scommaaccent.smallcap" horiz-adv-x="392" 
d="M123 -285l-2 4q38 9 60 34t22 55q0 35 -29 49t-55 -4q-11 26 6 52t56 26q38 0 61 -22.5t23 -59.5q0 -42 -41.5 -83t-100.5 -51zM188 -9q-87 0 -152 25l-9 123h5l32 -59q41 -80 128 -80q47 0 76.5 26t29.5 69t-30 66.5t-89 44.5q-63 22 -100 53t-37 83q0 57 45.5 98
t113.5 41q51 0 108 -19l30 10l2 -133h-4l-64 110q-31 23 -74 23q-37 0 -64 -22.5t-27 -54.5q0 -38 27.5 -58.5t86.5 -39.5q67 -24 105.5 -58t38.5 -92q0 -62 -51.5 -109t-126.5 -47z" />
    <glyph glyph-name="scaron.smallcap" horiz-adv-x="391" 
d="M188 -9q-87 0 -152 25l-9 123h5l32 -59q41 -80 128 -80q47 0 76.5 26t29.5 69t-30 66.5t-89 44.5q-63 22 -100 53t-37 83q0 57 45.5 98t113.5 41q51 0 108 -19l30 10l2 -133h-4l-64 110q-31 23 -74 23q-37 0 -64 -22.5t-27 -54.5q0 -38 27.5 -58.5t86.5 -39.5
q67 -24 105.5 -58t38.5 -92q0 -62 -51.5 -109t-126.5 -47zM205 503l-145 197h5l141 -104h2l141 104h5l-145 -197h-4z" />
    <glyph glyph-name="tcommaaccent.smallcap" horiz-adv-x="511" 
d="M189 -280l-2 4q38 9 60 34t22 55q0 35 -29 49t-55 -4q-11 26 6 52t56 26q38 0 61 -22.5t23 -59.5q0 -42 -41.5 -83t-100.5 -51zM135 0l2 6l34 3q35 3 35 11v444h-25q-25 -2 -47.5 -15t-42 -36t-30 -39.5t-25.5 -41.5l-7 -11h-5l24 151h421l15 -150h-4l-5 11
q-31 58 -64.5 93.5t-78.5 37.5h-26v-446q0 -7 42 -10l25 -2l3 -6h-241z" />
    <glyph glyph-name="tcaron.smallcap" horiz-adv-x="511" 
d="M253 495l-145 197h5l141 -104h2l141 104h5l-145 -197h-4zM135 0l2 6l34 3q35 3 35 11v444h-25q-25 -2 -47.5 -15t-42 -36t-30 -39.5t-25.5 -41.5l-7 -11h-5l24 151h421l15 -150h-4l-5 11q-31 58 -64.5 93.5t-78.5 37.5h-26v-446q0 -7 42 -10l25 -2l3 -6h-241z" />
    <glyph glyph-name="ugrave.smallcap" horiz-adv-x="528" 
d="M273 -12q-104 0 -150.5 39t-46.5 125v301q0 5 -6.5 6.5t-35.5 4.5l-24 2l-3 6h240l-2 -6l-33 -3q-35 -4 -35 -12v-277q0 -148 133 -148q135 0 135 160v251q0 24 -67 28l-14 1l-2 6h167l-2 -6l-15 -1q-55 -5 -55 -35l-3 -245q-1 -98 -43.5 -147.5t-137.5 -49.5zM318 526
l-198 187h105l98 -187h-5z" />
    <glyph glyph-name="uacute.smallcap" horiz-adv-x="528" 
d="M273 -12q-104 0 -150.5 39t-46.5 125v301q0 5 -6.5 6.5t-35.5 4.5l-24 2l-3 6h240l-2 -6l-33 -3q-35 -4 -35 -12v-277q0 -148 133 -148q135 0 135 160v251q0 24 -67 28l-14 1l-2 6h167l-2 -6l-15 -1q-55 -5 -55 -35l-3 -245q-1 -98 -43.5 -147.5t-137.5 -49.5zM259 526
l98 187h105l-198 -187h-5z" />
    <glyph glyph-name="ucircumflex.smallcap" horiz-adv-x="528" 
d="M273 -12q-104 0 -150.5 39t-46.5 125v301q0 5 -6.5 6.5t-35.5 4.5l-24 2l-3 6h240l-2 -6l-33 -3q-35 -4 -35 -12v-277q0 -148 133 -148q135 0 135 160v251q0 24 -67 28l-14 1l-2 6h167l-2 -6l-15 -1q-55 -5 -55 -35l-3 -245q-1 -98 -43.5 -147.5t-137.5 -49.5zM131 515
l145 197h4l145 -197h-6l-140 104h-2l-141 -104h-5z" />
    <glyph glyph-name="udieresis.smallcap" horiz-adv-x="528" 
d="M273 -12q-104 0 -150.5 39t-46.5 125v301q0 5 -6.5 6.5t-35.5 4.5l-24 2l-3 6h240l-2 -6l-33 -3q-35 -4 -35 -12v-277q0 -148 133 -148q135 0 135 160v251q0 24 -67 28l-14 1l-2 6h167l-2 -6l-15 -1q-55 -5 -55 -35l-3 -245q-1 -98 -43.5 -147.5t-137.5 -49.5zM200 542
q-26 0 -41.5 17.5t-15.5 37.5q0 21 15.5 39.5t41.5 18.5q27 0 42 -18.5t15 -39.5q0 -20 -15 -37.5t-42 -17.5zM387 542q-26 0 -41 17.5t-15 37.5q0 21 15 39.5t41 18.5q27 0 42 -18.5t15 -39.5q0 -20 -15 -37.5t-42 -17.5z" />
    <glyph glyph-name="umacron.smallcap" horiz-adv-x="528" 
d="M273 -12q-104 0 -150.5 39t-46.5 125v301q0 5 -6.5 6.5t-35.5 4.5l-24 2l-3 6h240l-2 -6l-33 -3q-35 -4 -35 -12v-277q0 -148 133 -148q135 0 135 160v251q0 24 -67 28l-14 1l-2 6h167l-2 -6l-15 -1q-55 -5 -55 -35l-3 -245q-1 -98 -43.5 -147.5t-137.5 -49.5zM165 523
l11 34h252l-11 -34h-252z" />
    <glyph glyph-name="ubreve.smallcap" horiz-adv-x="528" 
d="M273 -12q-104 0 -150.5 39t-46.5 125v301q0 5 -6.5 6.5t-35.5 4.5l-24 2l-3 6h240l-2 -6l-33 -3q-35 -4 -35 -12v-277q0 -148 133 -148q135 0 135 160v251q0 24 -67 28l-14 1l-2 6h167l-2 -6l-15 -1q-55 -5 -55 -35l-3 -245q-1 -98 -43.5 -147.5t-137.5 -49.5zM294 491
q-56 0 -84.5 47.5t-47.5 134.5h6q39 -116 128 -116t128 116h6q-18 -87 -47.5 -134.5t-88.5 -47.5z" />
    <glyph glyph-name="uring.smallcap" horiz-adv-x="528" 
d="M273 -12q-104 0 -150.5 39t-46.5 125v301q0 5 -6.5 6.5t-35.5 4.5l-24 2l-3 6h240l-2 -6l-33 -3q-35 -4 -35 -12v-277q0 -148 133 -148q135 0 135 160v251q0 24 -67 28l-14 1l-2 6h167l-2 -6l-15 -1q-55 -5 -55 -35l-3 -245q-1 -98 -43.5 -147.5t-137.5 -49.5zM300 503
q-40 0 -64.5 26t-24.5 64q0 37 24.5 63.5t64.5 26.5t64.5 -26.5t24.5 -63.5q0 -38 -24.5 -64t-64.5 -26zM300 512q36 0 57.5 23.5t21.5 57.5t-21.5 57.5t-57.5 23.5t-57.5 -23.5t-21.5 -57.5t21.5 -57.5t57.5 -23.5z" />
    <glyph glyph-name="uhungarumlaut.smallcap" horiz-adv-x="528" 
d="M273 -12q-104 0 -150.5 39t-46.5 125v301q0 5 -6.5 6.5t-35.5 4.5l-24 2l-3 6h240l-2 -6l-33 -3q-35 -4 -35 -12v-277q0 -148 133 -148q135 0 135 160v251q0 24 -67 28l-14 1l-2 6h167l-2 -6l-15 -1q-55 -5 -55 -35l-3 -245q-1 -98 -43.5 -147.5t-137.5 -49.5zM182 496
l97 187h99l-187 -187h-9zM346 496l96 187h100l-188 -187h-8z" />
    <glyph glyph-name="uogonek.smallcap" horiz-adv-x="528" 
d="M306 -240q-40 0 -66.5 25t-26.5 65q0 81 111 142q-20 -4 -51 -4q-104 0 -150.5 39t-46.5 125v301q0 5 -6.5 6.5t-35.5 4.5l-24 2l-3 6h240l-2 -6l-33 -3q-35 -4 -35 -12v-277q0 -148 133 -148q135 0 135 160v251q0 24 -67 28l-14 1l-2 6h167l-2 -6l-15 -1q-55 -5 -55 -35
l-2 -245q-1 -142 -95 -185q-88 -42 -88 -124q0 -34 19 -52.5t54 -18.5q32 0 61 31l3 -4q-12 -25 -40.5 -48.5t-62.5 -23.5z" />
    <glyph glyph-name="wcircumflex.smallcap" horiz-adv-x="751" 
d="M254 488l145 197h4l145 -197h-6l-140 104h-2l-141 -104h-5zM237 -12l-150 384q-24 60 -35.5 75.5t-37.5 16.5l-17 2l-2 6h231l-2 -6l-23 -1q-30 -1 -34.5 -10.5t6.5 -35.5l113 -296h1l90 224l-10 25q-22 56 -34.5 73.5t-36.5 18.5l-21 2l-3 6h236l-2 -6l-22 -1
q-31 -1 -36.5 -10t6.5 -40l106 -288h2l81 219q30 70 26 92t-59 26l-16 2l-2 6h167l-2 -6l-12 -2q-36 -4 -48.5 -21.5t-44.5 -102.5l-131 -352h-9l-129 344h-1l-136 -344h-9z" />
    <glyph glyph-name="wgrave.smallcap" horiz-adv-x="751" 
d="M237 -12l-150 384q-24 60 -35.5 75.5t-37.5 16.5l-17 2l-2 6h231l-2 -6l-23 -1q-30 -1 -34.5 -10.5t6.5 -35.5l113 -296h1l90 224l-10 25q-22 56 -34.5 73.5t-36.5 18.5l-21 2l-3 6h236l-2 -6l-22 -1q-31 -1 -36.5 -10t6.5 -40l106 -288h2l81 219q30 70 26 92t-59 26
l-16 2l-2 6h167l-2 -6l-12 -2q-36 -4 -48.5 -21.5t-44.5 -102.5l-131 -352h-9l-129 344h-1l-136 -344h-9zM432 496l-198 187h105l98 -187h-5z" />
    <glyph glyph-name="wacute.smallcap" horiz-adv-x="751" 
d="M329 496l98 187h105l-198 -187h-5zM237 -12l-150 384q-24 60 -35.5 75.5t-37.5 16.5l-17 2l-2 6h231l-2 -6l-23 -1q-30 -1 -34.5 -10.5t6.5 -35.5l113 -296h1l90 224l-10 25q-22 56 -34.5 73.5t-36.5 18.5l-21 2l-3 6h236l-2 -6l-22 -1q-31 -1 -36.5 -10t6.5 -40
l106 -288h2l81 219q30 70 26 92t-59 26l-16 2l-2 6h167l-2 -6l-12 -2q-36 -4 -48.5 -21.5t-44.5 -102.5l-131 -352h-9l-129 344h-1l-136 -344h-9z" />
    <glyph glyph-name="wdieresis.smallcap" horiz-adv-x="751" 
d="M492 512q-26 0 -41 17.5t-15 37.5q0 21 15 39.5t41 18.5q27 0 42 -18.5t15 -39.5q0 -20 -15 -37.5t-42 -17.5zM305 512q-26 0 -41.5 17.5t-15.5 37.5q0 21 15.5 39.5t41.5 18.5q27 0 42 -18.5t15 -39.5q0 -20 -15 -37.5t-42 -17.5zM237 -12l-150 384q-24 60 -35.5 75.5
t-37.5 16.5l-17 2l-2 6h231l-2 -6l-23 -1q-30 -1 -34.5 -10.5t6.5 -35.5l113 -296h1l90 224l-10 25q-22 56 -34.5 73.5t-36.5 18.5l-21 2l-3 6h236l-2 -6l-22 -1q-31 -1 -36.5 -10t6.5 -40l106 -288h2l81 219q30 70 26 92t-59 26l-16 2l-2 6h167l-2 -6l-12 -2
q-36 -4 -48.5 -21.5t-44.5 -102.5l-131 -352h-9l-129 344h-1l-136 -344h-9z" />
    <glyph glyph-name="yacute.smallcap" horiz-adv-x="491" 
d="M125 0l2 6l33 3q36 3 36 11v194l-100 179q-23 42 -37 55.5t-39 15.5l-15 2l-3 6h236l-2 -6l-13 -1q-35 -4 -41 -14t7 -32l99 -180h1l55 104q18 34 26 51t13 32.5t-1 21.5t-17 10t-33 6l-16 2l-2 6h173l-2 -6l-21 -2q-30 -3 -49.5 -25.5t-61.5 -101.5l-58 -110v-209
q0 -7 43 -10l25 -2l1 -6h-239zM249 496l98 187h105l-198 -187h-5z" />
    <glyph glyph-name="ycircumflex.smallcap" horiz-adv-x="492" 
d="M125 0l2 6l33 3q36 3 36 11v194l-100 179q-23 42 -37 55.5t-39 15.5l-15 2l-3 6h236l-2 -6l-13 -1q-35 -4 -41 -14t7 -32l99 -180h1l55 104q18 34 26 51t13 32.5t-1 21.5t-17 10t-33 6l-16 2l-2 6h173l-2 -6l-21 -2q-30 -3 -49.5 -25.5t-61.5 -101.5l-58 -110v-209
q0 -7 43 -10l25 -2l1 -6h-239zM109 487l145 197h4l145 -197h-6l-140 104h-2l-141 -104h-5z" />
    <glyph glyph-name="ydieresis.smallcap" horiz-adv-x="491" 
d="M125 0l2 6l33 3q36 3 36 11v194l-100 179q-23 42 -37 55.5t-39 15.5l-15 2l-3 6h236l-2 -6l-13 -1q-35 -4 -41 -14t7 -32l99 -180h1l55 104q18 34 26 51t13 32.5t-1 21.5t-17 10t-33 6l-16 2l-2 6h173l-2 -6l-21 -2q-30 -3 -49.5 -25.5t-61.5 -101.5l-58 -110v-209
q0 -7 43 -10l25 -2l1 -6h-239zM342 542q-26 0 -41 17.5t-15 37.5q0 21 15 39.5t41 18.5q27 0 42 -18.5t15 -39.5q0 -20 -15 -37.5t-42 -17.5zM155 542q-26 0 -41.5 17.5t-15.5 37.5q0 21 15.5 39.5t41.5 18.5q27 0 42 -18.5t15 -39.5q0 -20 -15 -37.5t-42 -17.5z" />
    <glyph glyph-name="zacute.smallcap" horiz-adv-x="457" 
d="M200 496l98 187h105l-198 -187h-5zM23 0v4l282 455v1l-65 2q-77 0 -122 -33.5t-68 -98.5l-3 -9h-5l10 151h371v-5l-288 -455v-1l70 -2q89 -2 137 34.5t82 125.5l5 11h6l-25 -180h-387z" />
    <glyph glyph-name="zdotaccent.smallcap" horiz-adv-x="457" 
d="M23 0v4l282 455v1l-65 2q-77 0 -122 -33.5t-68 -98.5l-3 -9h-5l10 151h371v-5l-288 -455v-1l70 -2q89 -2 137 34.5t82 125.5l5 11h6l-25 -180h-387zM237 523q-28 0 -44 19t-16 40q0 23 16 42.5t44 19.5t44 -19.5t16 -42.5q0 -22 -16 -40.5t-44 -18.5z" />
    <glyph glyph-name="zcaron.smallcap" horiz-adv-x="456" 
d="M23 0v4l282 455v1l-65 2q-77 0 -122 -33.5t-68 -98.5l-3 -9h-5l10 151h371v-5l-288 -455v-1l70 -2q89 -2 137 34.5t82 125.5l5 11h6l-25 -180h-387zM239 493l-145 197h5l141 -104h2l141 104h5l-145 -197h-4z" />
    <glyph glyph-name="solidus" horiz-adv-x="204" 
d="M-205 -123l600 755h14l-600 -755h-14z" />
    <glyph glyph-name="plusinferior" horiz-adv-x="335" 
d="M163 -98v161h-158l2 8h156v158h9v-158h156l2 -8h-157l-1 -161h-9z" />
    <glyph glyph-name="minusinferior" horiz-adv-x="335" 
d="M306 62h-277l1 7h275z" />
    <glyph glyph-name="zero.lnum" horiz-adv-x="534" 
d="M265 -11q-103 0 -168.5 91t-65.5 230q0 138 67.5 231t170.5 93q102 0 167.5 -92t65.5 -230q0 -143 -65.5 -233t-171.5 -90zM268 -2q58 0 91 79t33 225q0 167 -31 244.5t-95 77.5q-59 0 -92 -77t-33 -219q0 -176 30.5 -253t96.5 -77z" />
    <glyph glyph-name="one.lnum" horiz-adv-x="369" 
d="M62 0l3 6l29 1q46 1 46 16l-1 560l-98 15l3 5l201 28v-610q0 -12 55 -14l25 -1l3 -6h-266z" />
    <glyph glyph-name="two.lnum" horiz-adv-x="457" 
d="M15 0l-4 16q84 82 127 127t83.5 97.5t55.5 95.5t15 92q0 71 -36.5 107.5t-85.5 36.5q-47 0 -80.5 -25t-62.5 -79l-7 3q40 82 90 125.5t118 43.5q67 0 113.5 -43.5t46.5 -113.5q0 -32 -12.5 -67t-28 -61t-51 -66.5t-57.5 -62.5t-73 -72t-74 -73l1 -2h258q28 0 77 123l4 9
l6 -1l-47 -210h-376z" />
    <glyph glyph-name="three.lnum" horiz-adv-x="415" 
d="M146 -34q-58 0 -94.5 20.5t-36.5 53.5q0 22 14.5 37t37.5 15q33 0 53.5 -31.5t13.5 -71.5q1 -1 8 -2.5t18 -3.5t19 -2q58 0 96.5 43.5t38.5 109.5q0 75 -39 117.5t-111 42.5q-41 0 -87 -16l-3 6q19 11 55.5 32.5t49.5 30t35.5 25.5t30.5 28.5t15 29.5t7 38q0 47 -28 74.5
t-75 27.5q-91 0 -134 -91l-7 3q31 72 81.5 115t112.5 43q61 0 102 -37t41 -90q0 -14 -2.5 -26t-8.5 -23t-11 -19t-16.5 -18t-17.5 -15.5t-21 -14.5t-21 -12.5t-24 -13t-23 -12.5v-2q87 1 137.5 -48t50.5 -123q0 -88 -77 -154t-180 -66z" />
    <glyph glyph-name="four.lnum" horiz-adv-x="489" 
d="M271 0l-1 170h-259v5l317 464h39v-400h118l-23 -69h-95v-170h-96zM71 239h199v292h-1z" />
    <glyph glyph-name="five.lnum" horiz-adv-x="406" 
d="M131 -34q-127 0 -127 75q0 22 15 37t37 15q33 0 52 -32.5t16 -69.5q22 -9 47 -9q51 0 89.5 44t38.5 110q0 81 -70.5 132t-185.5 63l74 295h265l-23 -94h-254l-28 -110q144 -15 223.5 -77.5t79.5 -151.5q0 -92 -74.5 -159.5t-174.5 -67.5z" />
    <glyph glyph-name="six.lnum" horiz-adv-x="508" 
d="M260 -12q-105 0 -168.5 71t-63.5 179q0 169 127.5 285t323.5 133l1 -7q-136 -22 -219.5 -110.5t-114.5 -207.5l2 -2q72 63 155 63q76 0 127 -50.5t51 -135.5q0 -95 -65 -156.5t-156 -61.5zM267 -2q52 0 83.5 48t31.5 132q0 77 -39.5 126t-99.5 49t-99 -39
q-12 -19 -12 -84q0 -106 33 -169t102 -63z" />
    <glyph glyph-name="seven.lnum" horiz-adv-x="422" 
d="M76 0l294 532l-2 4h-150q-102 0 -137 -14.5t-48 -68.5l-2 -10l-8 1l22 181h372l1 -5l-263 -620h-79z" />
    <glyph glyph-name="eight.lnum" horiz-adv-x="486" 
d="M245 -14q-93 0 -154.5 47t-61.5 119q0 53 42.5 92t110.5 54v2q-65 32 -99.5 69t-34.5 90q0 70 53 126t140 56q86 0 142.5 -45t56.5 -114q0 -44 -38.5 -77.5t-99.5 -51.5v-2q75 -36 115 -76.5t40 -102.5q0 -75 -61 -130.5t-151 -55.5zM292 356q57 44 57 122q0 59 -31 106
t-83 47q-48 0 -75 -35t-27 -82q0 -54 41 -90.5t118 -67.5zM252 -3q56 0 88.5 34.5t32.5 86.5q0 58 -47.5 99t-132.5 76q-72 -43 -72 -138q0 -60 37 -109t94 -49z" />
    <glyph glyph-name="nine.lnum" horiz-adv-x="508" 
d="M28 -28l-1 7q135 21 219 110t116 209l-2 1q-74 -63 -156 -63q-75 0 -126.5 50.5t-51.5 135.5q0 97 65.5 157.5t155.5 60.5q104 0 168 -70t64 -178q0 -169 -127.5 -286t-323.5 -134zM264 275q60 0 99 39q12 19 12 84q0 101 -33 167t-102 66q-50 0 -82 -47.5t-32 -133.5
q0 -75 39 -125t99 -50z" />
    <glyph glyph-name="dollar.lnum" horiz-adv-x="468" 
d="M148 -8q-72 10 -118 27l-8 156h7l62 -117q25 -27 63 -44l68 258l-12 5q-83 29 -126.5 69.5t-43.5 110.5q0 71 57.5 125.5t146.5 54.5q31 0 73 -7l29 110h10l-30 -112q40 -10 56 -15l39 14l2 -168h-5l-74 133q-10 8 -23 15l-60 -225q1 -1 2 -1q95 -33 145 -76.5t50 -120.5
t-66 -137t-165 -60q-37 0 -69 4l-41 -155h-10zM163 10q36 -12 66 -12q58 0 97.5 36.5t39.5 95.5q0 51 -35 83t-100 56zM312 611q-32 16 -70 16q-49 0 -82.5 -32.5t-33.5 -79.5q0 -49 31.5 -77.5t94.5 -52.5q4 14 10 37.5t19.5 73.5t22.5 82z" />
    <glyph glyph-name="cent.lnum" horiz-adv-x="419" 
d="M156 -157l38 145q-77 11 -126 70.5t-49 143.5q0 100 64 169t166 69q32 0 64 -8l46 172h10l-47 -175q37 -11 59.5 -33t22.5 -51q0 -23 -16.5 -40t-38.5 -17q-20 0 -34.5 12.5t-18.5 30.5l-73 -269q29 -12 54 -12q44 0 73 17.5t54 61.5l9 -3q-71 -140 -190 -140
q-13 0 -19 1l-38 -144h-10zM215 65l93 347q-22 18 -53 18q-56 0 -92.5 -53.5t-36.5 -138.5q0 -64 24 -109t65 -64z" />
    <glyph glyph-name="sterling.lnum" horiz-adv-x="543" 
d="M167 295h-105l3 10h98q-15 43 -15 85q0 99 72.5 170.5t182.5 71.5q54 0 84 -21t30 -60q0 -21 -18 -38t-42 -17q-40 0 -52.5 38.5t9.5 65.5q-13 16 -45 16q-49 0 -83 -36t-34 -104q0 -26 10 -83t13 -88h126l3 -10h-128q0 -5 0.5 -17t0.5 -18q0 -66 -45 -145q8 -2 36.5 -11
t41.5 -12.5t35 -9.5t39.5 -8t34.5 -2q44 0 63.5 24.5t27.5 97.5h9q-3 -87 -44 -146t-104 -59q-35 0 -71 10.5t-57.5 22t-53.5 30.5q-54 -63 -111 -63q-33 0 -53 17t-20 45q0 36 30 60.5t84 24.5q38 0 91 -15q3 13 3 26q0 22 -6.5 44.5t-20.5 56.5t-19 47zM179 58
q-71 45 -106 45q-25 0 -41.5 -14.5t-16.5 -39.5q0 -24 17.5 -38t45.5 -14q54 0 101 61z" />
    <glyph glyph-name="yen.lnum" horiz-adv-x="615" 
d="M153 0l3 6l47 4q48 4 48 16v141h-185l3 10h182v120h-182l-3 10h179l-128 226q-30 50 -48 66t-50 18l-25 2l-4 6h303l-3 -6l-24 -1q-43 -2 -49 -19.5t19 -59.5l122 -224h2l68 132q37 72 45 105t-5.5 46t-57.5 18l-22 3l-4 6h228l-3 -6l-25 -3q-34 -4 -59 -28.5t-65 -101.5
q-93 -179 -94 -179h185l-3 -10h-183v-120h183l3 -10h-186v-144q0 -10 58 -14l37 -3l3 -6h-310z" />
    <glyph glyph-name="Euro.lnum" horiz-adv-x="502" 
d="M301 -13q-87 0 -154 65t-84 174h-64l3 10h59q-3 34 -3 59q0 36 4 61h-63l3 10h62q23 121 105 193t179 72q66 0 103.5 -21t37.5 -60q0 -21 -17 -37.5t-41 -16.5q-40 0 -54 38t10 65q-24 20 -48 20q-69 0 -116.5 -70.5t-56.5 -182.5h194l3 -10h-197q-1 -12 -1 -39
q0 -37 6 -81h189l3 -10h-188q17 -80 66.5 -126.5t112.5 -46.5q49 0 83 19t62 65l8 -5q-78 -145 -206 -145z" />
    <glyph glyph-name="degree.lnum" horiz-adv-x="284" 
d="M142 387q-55 0 -89.5 36.5t-34.5 89.5t34 90.5t90 37.5t90 -37.5t34 -90.5t-33.5 -89.5t-90.5 -36.5zM142 397q51 0 82.5 33t31.5 83q0 49 -31.5 83.5t-82.5 34.5q-50 0 -81 -34t-31 -84t30.5 -83t81.5 -33z" />
    <glyph glyph-name="plus.lnum" horiz-adv-x="433" 
d="M211 101v207h-204l2 12h202v203h12v-203h201l2 -12h-203v-207h-12z" />
    <glyph glyph-name="minus.lnum" horiz-adv-x="433" 
d="M396 308h-359l2 12h355z" />
    <glyph glyph-name="plusminus.lnum" horiz-adv-x="433" 
d="M211 161v167h-204l2 12h202v173h12v-173h201l2 -12h-203v-167h-12zM416 114h-399l2 12h395z" />
    <glyph glyph-name="logicalnot.lnum" horiz-adv-x="433" 
d="M406 384v-170h-12v158h-387l3 12h396z" />
    <glyph glyph-name="equal.lnum" horiz-adv-x="428" 
d="M18 393l-3 12h398l-3 -12h-392zM15 220l3 12h392l3 -12h-398z" />
    <glyph glyph-name="notequal.lnum" horiz-adv-x="428" 
d="M18 393l-3 12h220l44 155h13l-44 -155h165l-3 -12h-166l-45 -161h211l3 -12h-218l-46 -165h-13l46 165h-167l3 12h168l45 161h-213z" />
    <glyph glyph-name="approxequal.lnum" horiz-adv-x="433" 
d="M118 422q-72 0 -89 -77h-12q16 89 101 89q32 0 99.5 -33.5t97.5 -33.5q72 0 89 77h12q-16 -89 -101 -89q-32 0 -99.5 33.5t-97.5 33.5zM118 258q-72 0 -89 -77h-12q16 89 101 89q32 0 99.5 -33.5t97.5 -33.5q72 0 89 77h12q-16 -89 -101 -89q-32 0 -99.5 33.5t-97.5 33.5
z" />
    <glyph glyph-name="multiply.lnum" horiz-adv-x="433" 
d="M390 133l-173 173l-173 -173l-8 8l173 173l-173 173l8 8l173 -173l173 173l8 -8l-173 -173l173 -173z" />
    <glyph glyph-name="divide.lnum" horiz-adv-x="433" 
d="M264 455q0 -19 -14 -34t-34 -15t-34.5 15t-14.5 34q0 18 14 32t35 14q20 0 34 -13.5t14 -32.5zM416 308h-399l2 12h395zM264 172q0 -19 -14 -33.5t-34 -14.5q-21 0 -35 14.5t-14 33.5q0 18 14 32t35 14q20 0 34 -14t14 -32z" />
    <glyph glyph-name="less.lnum" horiz-adv-x="420" 
d="M403 110l-398 197v11l398 196l5 -11l-387 -189v-2l387 -191z" />
    <glyph glyph-name="greater.lnum" horiz-adv-x="420" 
d="M17 110l-5 11l387 191v2l-387 189l5 11l398 -196v-11z" />
    <glyph glyph-name="lessequal.lnum" horiz-adv-x="420" 
d="M405 180l-394 167v11l394 166l5 -11l-381 -159v-2l381 -161zM410 114h-399l2 12h395z" />
    <glyph glyph-name="greaterequal.lnum" horiz-adv-x="420" 
d="M410 347l-394 -167l-5 11l381 161v2l-381 159l5 11l394 -166v-11zM410 114h-399l2 12h395z" />
    <glyph glyph-name="bar.lnum" horiz-adv-x="153" 
d="M72 -130v877h9v-877h-9z" />
    <glyph glyph-name="brokenbar.lnum" horiz-adv-x="153" 
d="M72 369v335h9v-335h-9zM72 -77v335h9v-335h-9z" />
    </font>
</defs>
</svg>
